<svg xmlns="http://www.w3.org/2000/svg" xmlns:xlink="http://www.w3.org/1999/xlink" viewBox="0 0 292 260">
  <use fill="#F0F0F0" transform="translate(46 196)" xlink:href="#path0_fill"/>
  <use fill="#F0F0F0" transform="translate(73 130)" xlink:href="#path1_fill"/>
  <use fill="#F0F0F0" transform="translate(0 67)" xlink:href="#path2_fill"/>
  <g transform="translate(-83 1241)">
    <mask id="a">
      <use fill="#FFF" transform="translate(140 -1241)" xlink:href="#path3_fill"/>
    </mask>
    <g mask="url(#a)">
      <use fill="#F0F0F0" transform="translate(140 -1241)" xlink:href="#path4_fill"/>
    </g>
  </g>
  <use fill="#F0F0F0" transform="translate(259 74)" xlink:href="#path5_fill"/>
  <use fill="#F0F0F0" transform="translate(259 203)" xlink:href="#path5_fill"/>
  <use fill="#909090" transform="translate(75 14)" xlink:href="#path6_fill"/>
  <use fill="#909090" transform="translate(15 82)" xlink:href="#path7_fill"/>
  <use fill="#8F8F8F" opacity=".82" transform="translate(88 145)" xlink:href="#path8_fill"/>
  <use fill="#8F8F8F" opacity=".82" transform="translate(72 208)" xlink:href="#path9_fill"/>
  <defs>
    <path id="path0_fill" fill-rule="evenodd" d="M1.944 30.718C3.426 16.806-12.87-.9 28.61.365 70.09 1.63 170.826-.9 179.715.365c8.888 1.265 22.221-1.265 20.739 15.177-1.481 16.44-1.481 34.147 0 37.941 1.482 3.794 1.482 8.853-20.739 10.118-22.222 1.264-133.328-2.53-151.105 0-17.777 2.53-23.703-7.589-25.184-12.647-1.482-5.06-1.482-20.236-1.482-20.236z"/>
    <path id="path1_fill" fill-rule="evenodd" d="M1.519 22.079C2.676 12.079-10.053-.647 22.347.262c32.4.91 111.084-.909 118.027 0 6.943.91 17.357-.909 16.2 10.909-1.157 11.817-1.157 24.543 0 27.27 1.157 2.727 1.157 6.363-16.2 7.272-17.357.909-104.141-1.818-118.027 0-13.886 1.818-18.514-5.454-19.671-9.09S1.519 22.079 1.519 22.079z"/>
    <path id="path2_fill" fill-rule="evenodd" d="M2.36 22.079c1.8-10-17.983-22.726 32.37-21.817 50.354.91 172.641-.909 183.431 0 10.79.91 26.975-.909 25.177 10.909-1.799 11.817-1.799 24.543 0 27.27 1.798 2.727 1.798 6.363-25.177 7.272-26.975.909-161.85-1.818-183.43 0-21.58 1.818-28.774-5.454-30.572-9.09C2.36 32.987 2.36 22.079 2.36 22.079z"/>
    <path id="path3_fill" fill-rule="evenodd" d="M0 0h102v46H0V0z"/>
    <path id="path4_fill" fill-rule="evenodd" d="M.987 22.079c.751-10-7.518-22.726 13.531-21.817 21.05.91 72.17-.909 76.68 0 4.511.91 11.277-.909 10.525 10.909-.752 11.817-.752 24.543 0 27.27.752 2.727.752 6.363-10.525 7.272-11.276.909-67.658-1.818-76.68 0-9.02 1.818-12.028-5.454-12.78-9.09C.987 32.987.987 22.079.987 22.079z"/>
    <path id="path5_fill" fill-rule="evenodd" d="M16.5 33C25.613 33 33 25.613 33 16.5S25.613 0 16.5 0 0 7.387 0 16.5 7.387 33 16.5 33z"/>
    <path id="path6_fill" d="M1.909 13a.353.353 0 0 1-.238-.084.353.353 0 0 1-.084-.238V3.536c0-.103.028-.182.084-.238a.324.324 0 0 1 .238-.098h.714c.103 0 .182.033.238.098a.296.296 0 0 1 .098.238V7.4h4.816V3.536c0-.103.028-.182.084-.238a.324.324 0 0 1 .238-.098h.714c.103 0 .182.033.238.098a.296.296 0 0 1 .098.238v9.142a.324.324 0 0 1-.098.238.353.353 0 0 1-.238.084h-.714a.353.353 0 0 1-.238-.084.353.353 0 0 1-.084-.238V8.66H2.959v4.018a.324.324 0 0 1-.098.238.353.353 0 0 1-.238.084h-.714zm11.78.14c-1.027 0-1.825-.29-2.394-.868-.56-.579-.859-1.349-.896-2.31l-.014-.602.014-.602c.037-.952.34-1.717.91-2.296.57-.588 1.363-.882 2.38-.882s1.81.294 2.38.882c.57.579.873 1.344.91 2.296.01.103.014.303.014.602s-.005.5-.014.602c-.037.961-.34 1.731-.91 2.31-.56.579-1.353.868-2.38.868zm0-1.078c.588 0 1.05-.187 1.386-.56.345-.373.532-.91.56-1.61.01-.093.014-.27.014-.532 0-.261-.005-.439-.014-.532-.028-.7-.215-1.237-.56-1.61-.336-.373-.798-.56-1.386-.56-.588 0-1.055.187-1.4.56-.345.373-.527.91-.546 1.61l-.014.532.014.532c.018.7.2 1.237.546 1.61.345.373.812.56 1.4.56zm4.7.938a.353.353 0 0 1-.237-.084.353.353 0 0 1-.084-.238V3.382c0-.093.028-.168.084-.224a.324.324 0 0 1 .238-.098h.658a.28.28 0 0 1 .224.098.28.28 0 0 1 .098.224v9.296a.324.324 0 0 1-.098.238.303.303 0 0 1-.224.084h-.658zm4.407.14c-.458 0-.882-.093-1.274-.28a2.44 2.44 0 0 1-.938-.756 1.866 1.866 0 0 1-.336-1.078c0-.616.252-1.12.756-1.512.513-.401 1.204-.663 2.072-.784l2.086-.294V8.03c0-.952-.546-1.428-1.638-1.428-.41 0-.747.089-1.008.266a1.72 1.72 0 0 0-.588.602.38.38 0 0 1-.112.182c-.038.037-.094.056-.168.056h-.602a.335.335 0 0 1-.224-.084.334.334 0 0 1-.084-.224c.01-.224.112-.476.308-.756.205-.29.518-.537.938-.742.42-.215.938-.322 1.554-.322 1.045 0 1.796.247 2.254.742.457.485.686 1.092.686 1.82v4.536a.324.324 0 0 1-.098.238.303.303 0 0 1-.224.084h-.644a.353.353 0 0 1-.238-.084.353.353 0 0 1-.084-.238v-.602c-.206.299-.504.55-.896.756-.392.205-.892.308-1.498.308zm.294-1.05c.606 0 1.101-.196 1.484-.588.392-.401.588-.975.588-1.722v-.392l-1.624.238c-.663.093-1.162.252-1.498.476-.336.215-.504.49-.504.826 0 .373.154.663.462.868.308.196.672.294 1.092.294zm7.951.91a.353.353 0 0 1-.238-.084.353.353 0 0 1-.084-.238V3.522c0-.093.028-.168.084-.224a.324.324 0 0 1 .238-.098h.742a.28.28 0 0 1 .224.098.28.28 0 0 1 .099.224v8.26h4.648a.3.3 0 0 1 .238.098.296.296 0 0 1 .098.238v.56a.324.324 0 0 1-.099.238.353.353 0 0 1-.237.084h-5.712zm9.19.14c-.886 0-1.572-.285-2.058-.854-.485-.579-.728-1.344-.728-2.296V6.042c0-.093.028-.168.084-.224a.324.324 0 0 1 .238-.098h.7a.28.28 0 0 1 .224.098.28.28 0 0 1 .098.224V9.92c0 1.39.607 2.086 1.82 2.086.588 0 1.055-.182 1.4-.546.346-.373.518-.887.518-1.54V6.042c0-.093.028-.168.084-.224a.324.324 0 0 1 .238-.098h.7a.28.28 0 0 1 .224.098c.056.056.084.13.084.224v6.636a.353.353 0 0 1-.084.238.303.303 0 0 1-.224.084h-.658a.353.353 0 0 1-.238-.084.353.353 0 0 1-.084-.238v-.616a2.64 2.64 0 0 1-.952.812c-.373.177-.835.266-1.386.266zm5.35-.14a.353.353 0 0 1-.238-.084.353.353 0 0 1-.084-.238V3.382c0-.093.028-.168.084-.224a.324.324 0 0 1 .238-.098h.658a.28.28 0 0 1 .224.098.28.28 0 0 1 .098.224v4.872l2.758-2.296c.028-.019.075-.056.14-.112a.703.703 0 0 1 .182-.098.876.876 0 0 1 .238-.028h.742a.285.285 0 0 1 .294.294c0 .103-.056.191-.168.266l-3.234 2.688 3.584 3.486c.112.093.168.177.168.252a.285.285 0 0 1-.294.294h-.728a.834.834 0 0 1-.308-.042 1.325 1.325 0 0 1-.252-.196L46.56 9.78v2.898a.324.324 0 0 1-.098.238.303.303 0 0 1-.224.084h-.658zm8.084.14c-.458 0-.882-.093-1.274-.28a2.44 2.44 0 0 1-.938-.756 1.866 1.866 0 0 1-.336-1.078c0-.616.252-1.12.756-1.512.513-.401 1.204-.663 2.072-.784l2.086-.294V8.03c0-.952-.546-1.428-1.638-1.428-.411 0-.747.089-1.008.266a1.72 1.72 0 0 0-.588.602.38.38 0 0 1-.112.182c-.038.037-.094.056-.168.056h-.602a.334.334 0 0 1-.224-.084.334.334 0 0 1-.084-.224c.009-.224.112-.476.308-.756.205-.29.518-.537.938-.742.42-.215.938-.322 1.554-.322 1.045 0 1.796.247 2.254.742.457.485.686 1.092.686 1.82v4.536a.324.324 0 0 1-.098.238.303.303 0 0 1-.224.084h-.644a.353.353 0 0 1-.238-.084.353.353 0 0 1-.084-.238v-.602c-.206.299-.504.55-.896.756-.392.205-.892.308-1.498.308zm.294-1.05c.606 0 1.101-.196 1.484-.588.392-.401.588-.975.588-1.722v-.392l-1.624.238c-.663.093-1.162.252-1.498.476-.336.215-.504.49-.504.826 0 .373.154.663.462.868.308.196.672.294 1.092.294z"/>
    <path id="path7_fill" d="M1.913 13a.353.353 0 0 1-.238-.084.353.353 0 0 1-.084-.238V3.536c0-.103.028-.182.084-.238a.324.324 0 0 1 .238-.098h.714c.103 0 .182.033.238.098a.296.296 0 0 1 .098.238V7.4H7.78V3.536c0-.103.028-.182.084-.238a.324.324 0 0 1 .238-.098h.714c.103 0 .182.033.238.098a.296.296 0 0 1 .098.238v9.142a.324.324 0 0 1-.098.238.353.353 0 0 1-.238.084h-.714a.353.353 0 0 1-.238-.084.353.353 0 0 1-.084-.238V8.66H2.963v4.018a.324.324 0 0 1-.098.238.353.353 0 0 1-.238.084h-.714zm11.78.14c-1.027 0-1.825-.29-2.394-.868-.56-.579-.858-1.349-.896-2.31l-.014-.602.014-.602c.037-.952.34-1.717.91-2.296.57-.588 1.363-.882 2.38-.882 1.018 0 1.81.294 2.38.882.57.579.873 1.344.91 2.296.01.103.014.303.014.602s-.005.5-.014.602c-.037.961-.34 1.731-.91 2.31-.56.579-1.353.868-2.38.868zm0-1.078c.588 0 1.05-.187 1.386-.56.345-.373.532-.91.56-1.61.01-.093.014-.27.014-.532 0-.261-.005-.439-.014-.532-.028-.7-.214-1.237-.56-1.61-.336-.373-.798-.56-1.386-.56-.588 0-1.054.187-1.4.56-.345.373-.527.91-.546 1.61l-.014.532.014.532c.019.7.2 1.237.546 1.61.346.373.812.56 1.4.56zm4.701.938a.353.353 0 0 1-.238-.084.353.353 0 0 1-.084-.238V3.382c0-.093.028-.168.084-.224a.324.324 0 0 1 .238-.098h.658a.28.28 0 0 1 .224.098.28.28 0 0 1 .098.224v9.296a.324.324 0 0 1-.098.238.303.303 0 0 1-.224.084h-.658zm4.406.14c-.457 0-.882-.093-1.274-.28a2.44 2.44 0 0 1-.938-.756 1.866 1.866 0 0 1-.336-1.078c0-.616.252-1.12.756-1.512.513-.401 1.204-.663 2.072-.784l2.086-.294V8.03c0-.952-.546-1.428-1.638-1.428-.41 0-.747.089-1.008.266a1.719 1.719 0 0 0-.588.602.381.381 0 0 1-.112.182c-.037.037-.093.056-.168.056h-.602a.334.334 0 0 1-.224-.084.334.334 0 0 1-.084-.224c.01-.224.112-.476.308-.756.205-.29.518-.537.938-.742.42-.215.938-.322 1.554-.322 1.045 0 1.797.247 2.254.742.457.485.686 1.092.686 1.82v4.536a.324.324 0 0 1-.098.238.303.303 0 0 1-.224.084h-.644a.353.353 0 0 1-.238-.084.353.353 0 0 1-.084-.238v-.602c-.205.299-.504.55-.896.756-.392.205-.891.308-1.498.308zm.294-1.05c.607 0 1.101-.196 1.484-.588.392-.401.588-.975.588-1.722v-.392l-1.624.238c-.663.093-1.162.252-1.498.476-.336.215-.504.49-.504.826 0 .373.154.663.462.868.308.196.672.294 1.092.294zm10.78 1.05c-.775 0-1.447-.121-2.016-.364-.56-.243-.99-.56-1.288-.952a2.28 2.28 0 0 1-.476-1.288c0-.075.028-.14.084-.196a.308.308 0 0 1 .224-.098h.714c.177 0 .299.093.364.28.084.392.322.728.714 1.008.401.28.961.42 1.68.42.775 0 1.358-.135 1.75-.406.392-.28.588-.667.588-1.162 0-.317-.098-.574-.294-.77-.187-.196-.467-.369-.84-.518a21.57 21.57 0 0 0-1.68-.56c-.728-.205-1.307-.425-1.736-.658-.43-.233-.751-.523-.966-.868-.215-.345-.322-.78-.322-1.302 0-.504.135-.957.406-1.358.28-.401.677-.714 1.19-.938.513-.233 1.125-.35 1.834-.35.728 0 1.353.13 1.876.392.523.252.92.574 1.19.966.27.392.415.784.434 1.176 0 .075-.028.14-.084.196-.047.056-.117.084-.21.084h-.742c-.196 0-.317-.089-.364-.266-.056-.392-.275-.714-.658-.966-.383-.261-.863-.392-1.442-.392-.635 0-1.134.121-1.498.364-.364.243-.546.602-.546 1.078 0 .317.084.579.252.784.177.205.443.387.798.546.355.15.873.322 1.554.518.793.215 1.419.439 1.876.672.457.224.798.509 1.022.854.224.336.336.765.336 1.288 0 .868-.336 1.55-1.008 2.044-.672.495-1.577.742-2.716.742zm6.715 0c-.458 0-.882-.093-1.274-.28a2.44 2.44 0 0 1-.938-.756 1.866 1.866 0 0 1-.336-1.078c0-.616.252-1.12.756-1.512.513-.401 1.204-.663 2.072-.784l2.086-.294V8.03c0-.952-.546-1.428-1.638-1.428-.411 0-.747.089-1.008.266a1.72 1.72 0 0 0-.588.602.38.38 0 0 1-.112.182c-.038.037-.094.056-.168.056h-.602a.335.335 0 0 1-.224-.084.334.334 0 0 1-.084-.224c.009-.224.112-.476.308-.756.205-.29.518-.537.938-.742.42-.215.938-.322 1.554-.322 1.045 0 1.796.247 2.254.742.457.485.686 1.092.686 1.82v4.536a.324.324 0 0 1-.098.238.303.303 0 0 1-.224.084h-.644a.353.353 0 0 1-.238-.084.353.353 0 0 1-.084-.238v-.602c-.206.299-.504.55-.896.756-.392.205-.892.308-1.498.308zm.294-1.05c.606 0 1.101-.196 1.484-.588.392-.401.588-.975.588-1.722v-.392l-1.624.238c-.663.093-1.162.252-1.498.476-.336.215-.504.49-.504.826 0 .373.154.663.462.868.308.196.672.294 1.092.294zm5.03.91a.353.353 0 0 1-.238-.084.353.353 0 0 1-.084-.238V6.056c0-.093.028-.173.084-.238a.324.324 0 0 1 .238-.098h.644c.093 0 .173.033.238.098a.324.324 0 0 1 .098.238v.616c.383-.635 1.036-.952 1.96-.952h.546a.28.28 0 0 1 .224.098.28.28 0 0 1 .098.224v.574a.28.28 0 0 1-.098.224.303.303 0 0 1-.224.084h-.84c-.504 0-.9.15-1.19.448-.29.29-.434.686-.434 1.19v4.116a.324.324 0 0 1-.098.238.353.353 0 0 1-.238.084h-.686zm6.225.14c-.457 0-.882-.093-1.274-.28a2.44 2.44 0 0 1-.938-.756 1.866 1.866 0 0 1-.336-1.078c0-.616.252-1.12.756-1.512.513-.401 1.204-.663 2.072-.784l2.086-.294V8.03c0-.952-.546-1.428-1.638-1.428-.41 0-.747.089-1.008.266a1.72 1.72 0 0 0-.588.602.38.38 0 0 1-.112.182c-.038.037-.093.056-.168.056h-.602a.334.334 0 0 1-.224-.084.334.334 0 0 1-.084-.224c.01-.224.112-.476.308-.756.205-.29.518-.537.938-.742.42-.215.938-.322 1.554-.322 1.045 0 1.796.247 2.254.742.457.485.686 1.092.686 1.82v4.536a.324.324 0 0 1-.098.238.303.303 0 0 1-.224.084h-.644a.353.353 0 0 1-.238-.084.353.353 0 0 1-.084-.238v-.602c-.205.299-.504.55-.896.756-.392.205-.892.308-1.498.308zm.294-1.05c.606 0 1.101-.196 1.484-.588.392-.401.588-.975.588-1.722v-.392l-1.624.238c-.663.093-1.162.252-1.498.476-.336.215-.504.49-.504.826 0 .373.154.663.462.868.308.196.672.294 1.092.294zm4.61 1.96a.226.226 0 0 1-.182-.084.306.306 0 0 1-.042-.21l.322-2.002c.038-.27.168-.406.392-.406h.938c.066 0 .117.023.154.07a.23.23 0 0 1 .07.168.97.97 0 0 1-.042.224l-.742 1.918a.617.617 0 0 1-.154.238c-.056.056-.14.084-.252.084h-.462zm8.698-8.33a.28.28 0 0 1 .224.098.28.28 0 0 1 .098.224v.854a.324.324 0 0 1-.098.238.303.303 0 0 1-.224.084h-.91a.353.353 0 0 1-.238-.084.324.324 0 0 1-.098-.238v-.854a.28.28 0 0 1 .098-.224.324.324 0 0 1 .238-.098h.91zm-.112 2.296a.285.285 0 0 1 .294.294v.56c-.019.495-.145.92-.378 1.274-.234.355-.574.76-1.022 1.218-.364.373-.63.681-.798.924a1.372 1.372 0 0 0-.252.798c0 .43.177.77.532 1.022a2.16 2.16 0 0 0 1.26.378c1.11 0 1.764-.56 1.96-1.68.046-.205.168-.308.364-.308h.672c.093 0 .168.028.224.084.056.056.084.13.084.224a2.723 2.723 0 0 1-.448 1.414 2.89 2.89 0 0 1-1.162 1.05c-.504.261-1.083.392-1.736.392-.691 0-1.274-.121-1.75-.364-.467-.233-.812-.541-1.036-.924a2.3 2.3 0 0 1-.336-1.204c0-.476.107-.887.322-1.232.214-.345.536-.747.966-1.204.354-.373.62-.686.798-.938.177-.261.28-.55.308-.868a9.01 9.01 0 0 0 .028-.588c.046-.215.163-.322.35-.322h.756zm6.388 5.124c-.96 0-1.73-.294-2.31-.882-.569-.597-.882-1.41-.938-2.436l-.014-.476.014-.462c.066-1.008.383-1.81.953-2.408.578-.597 1.339-.896 2.281-.896 1.037 0 1.84.331 2.409.994.569.653.853 1.54.853 2.66v.238a.324.324 0 0 1-.097.238.303.303 0 0 1-.225.084H70.1v.126c.027.607.21 1.125.545 1.554.346.42.798.63 1.358.63.43 0 .78-.084 1.05-.252.28-.177.486-.36.616-.546.084-.112.145-.177.182-.196a.491.491 0 0 1 .239-.042h.686c.084 0 .153.023.21.07a.241.241 0 0 1 .084.196c0 .205-.131.453-.392.742-.253.29-.612.541-1.079.756-.457.205-.984.308-1.582.308zm1.918-4.312v-.042c0-.644-.177-1.167-.531-1.568-.346-.41-.813-.616-1.4-.616-.588 0-1.055.205-1.4.616-.337.401-.504.924-.504 1.568v.042h3.835zM76.569 13a.353.353 0 0 1-.238-.084.353.353 0 0 1-.084-.238V6.042c0-.093.028-.168.084-.224a.324.324 0 0 1 .238-.098h.658a.28.28 0 0 1 .224.098.28.28 0 0 1 .098.224v.616c.271-.345.588-.611.952-.798.374-.187.836-.28 1.386-.28.896 0 1.592.29 2.086.868.504.57.756 1.33.756 2.282v3.948a.324.324 0 0 1-.098.238.303.303 0 0 1-.224.084h-.7a.353.353 0 0 1-.238-.084.353.353 0 0 1-.084-.238V8.8c0-.663-.163-1.176-.49-1.54-.317-.364-.779-.546-1.386-.546-.588 0-1.054.187-1.4.56-.345.364-.518.873-.518 1.526v3.878a.324.324 0 0 1-.098.238.303.303 0 0 1-.224.084h-.7zm15.48 2.66a.324.324 0 0 1-.238-.098.303.303 0 0 1-.084-.224V12.09c-.542.7-1.298 1.05-2.268 1.05-.97 0-1.704-.308-2.198-.924-.495-.625-.756-1.419-.784-2.38l-.014-.476.014-.476c.028-.97.284-1.764.77-2.38.494-.616 1.232-.924 2.212-.924 1.008 0 1.773.36 2.296 1.078v-.616c0-.093.028-.168.084-.224a.324.324 0 0 1 .238-.098h.644a.28.28 0 0 1 .224.098.28.28 0 0 1 .098.224v9.296a.28.28 0 0 1-.098.224.28.28 0 0 1-.224.098h-.672zm-2.296-3.654c.625 0 1.106-.205 1.442-.616a2.34 2.34 0 0 0 .532-1.442 6.75 6.75 0 0 0 .014-.546c0-.261-.005-.439-.014-.532-.028-.588-.206-1.092-.532-1.512-.318-.43-.798-.644-1.442-.644-.663 0-1.148.205-1.456.616-.299.41-.462.952-.49 1.624l-.014.406c0 1.764.653 2.646 1.96 2.646zm7.395 1.134c-.886 0-1.572-.285-2.058-.854-.485-.579-.728-1.344-.728-2.296V6.042c0-.093.028-.168.084-.224a.324.324 0 0 1 .238-.098h.7a.28.28 0 0 1 .224.098.28.28 0 0 1 .098.224V9.92c0 1.39.607 2.086 1.82 2.086.588 0 1.055-.182 1.4-.546.346-.373.518-.887.518-1.54V6.042c0-.093.028-.168.084-.224a.324.324 0 0 1 .238-.098h.7a.28.28 0 0 1 .224.098c.056.056.084.13.084.224v6.636a.353.353 0 0 1-.084.238.302.302 0 0 1-.224.084h-.658a.353.353 0 0 1-.238-.084.353.353 0 0 1-.084-.238v-.616a2.64 2.64 0 0 1-.952.812c-.373.177-.835.266-1.386.266zm7.926 0c-.961 0-1.731-.294-2.31-.882-.569-.597-.882-1.41-.938-2.436l-.014-.476.014-.462c.065-1.008.383-1.81.952-2.408.579-.597 1.339-.896 2.282-.896 1.036 0 1.839.331 2.408.994.569.653.854 1.54.854 2.66v.238a.325.325 0 0 1-.098.238.303.303 0 0 1-.224.084h-4.844v.126c.028.607.21 1.125.546 1.554.345.42.798.63 1.358.63.429 0 .779-.084 1.05-.252.28-.177.485-.36.616-.546.084-.112.145-.177.182-.196a.492.492 0 0 1 .238-.042h.686c.084 0 .154.023.21.07a.241.241 0 0 1 .084.196c0 .205-.131.453-.392.742-.252.29-.611.541-1.078.756-.457.205-.985.308-1.582.308zm1.918-4.312v-.042c0-.644-.177-1.167-.532-1.568-.345-.41-.812-.616-1.4-.616-.588 0-1.055.205-1.4.616-.336.401-.504.924-.504 1.568v.042h3.836zm5.387 6.832a.326.326 0 0 1-.238-.098.303.303 0 0 1-.084-.224V6.042c0-.093.028-.168.084-.224a.326.326 0 0 1 .238-.098h.644a.28.28 0 0 1 .224.098c.066.056.098.13.098.224v.616c.523-.719 1.288-1.078 2.296-1.078.98 0 1.713.308 2.198.924.495.616.761 1.41.798 2.38.01.103.014.261.014.476 0 .215-.004.373-.014.476-.037.961-.303 1.755-.798 2.38-.494.616-1.227.924-2.198.924-.97 0-1.726-.35-2.268-1.05v3.248a.303.303 0 0 1-.084.224.28.28 0 0 1-.224.098h-.686zm2.968-3.654c.663 0 1.144-.205 1.442-.616.308-.41.476-.952.504-1.624.01-.093.014-.229.014-.406 0-1.764-.653-2.646-1.96-2.646-.644 0-1.129.215-1.456.644-.317.42-.49.924-.518 1.512l-.014.532.014.546c.019.55.196 1.031.532 1.442.336.41.817.616 1.442.616zm7.06 1.134c-.887 0-1.573-.285-2.058-.854-.486-.579-.728-1.344-.728-2.296V6.042c0-.093.028-.168.084-.224a.322.322 0 0 1 .238-.098h.7a.28.28 0 0 1 .224.098.28.28 0 0 1 .098.224V9.92c0 1.39.606 2.086 1.82 2.086.588 0 1.054-.182 1.4-.546.345-.373.518-.887.518-1.54V6.042c0-.093.028-.168.084-.224a.322.322 0 0 1 .238-.098h.7a.28.28 0 0 1 .224.098c.056.056.084.13.084.224v6.636a.353.353 0 0 1-.084.238.303.303 0 0 1-.224.084h-.658a.351.351 0 0 1-.238-.084.353.353 0 0 1-.084-.238v-.616a2.648 2.648 0 0 1-.952.812c-.374.177-.836.266-1.386.266zm7.925 0c-.961 0-1.731-.294-2.31-.882-.569-.597-.882-1.41-.938-2.436l-.014-.476.014-.462c.066-1.008.383-1.81.952-2.408.579-.597 1.34-.896 2.282-.896 1.036 0 1.839.331 2.408.994.57.653.854 1.54.854 2.66v.238a.321.321 0 0 1-.098.238.302.302 0 0 1-.224.084h-4.844v.126c.028.607.21 1.125.546 1.554.346.42.798.63 1.358.63.43 0 .78-.084 1.05-.252.28-.177.486-.36.616-.546.084-.112.145-.177.182-.196a.492.492 0 0 1 .238-.042h.686c.084 0 .154.023.21.07a.241.241 0 0 1 .084.196c0 .205-.13.453-.392.742-.252.29-.611.541-1.078.756-.457.205-.984.308-1.582.308zm1.918-4.312v-.042c0-.644-.177-1.167-.532-1.568-.345-.41-.812-.616-1.4-.616-.588 0-1.054.205-1.4.616-.336.401-.504.924-.504 1.568v.042h3.836zm4.972 4.312c-.97 0-1.703-.317-2.198-.952-.494-.635-.756-1.437-.784-2.408l-.014-.42.014-.42c.028-.961.29-1.76.784-2.394.495-.644 1.228-.966 2.198-.966.962 0 1.718.34 2.268 1.022v-3.22c0-.093.028-.168.084-.224a.326.326 0 0 1 .238-.098h.672a.28.28 0 0 1 .224.098c.066.056.098.13.098.224v9.296a.321.321 0 0 1-.098.238.302.302 0 0 1-.224.084h-.63a.355.355 0 0 1-.238-.084.353.353 0 0 1-.084-.238v-.588c-.541.7-1.311 1.05-2.31 1.05zm.294-1.134c.644 0 1.125-.21 1.442-.63.327-.43.504-.938.532-1.526.01-.103.014-.28.014-.532a6.74 6.74 0 0 0-.014-.546 2.335 2.335 0 0 0-.532-1.442c-.336-.41-.816-.616-1.442-.616-.662 0-1.148.205-1.456.616-.298.41-.462.952-.49 1.624l-.014.406c0 1.764.654 2.646 1.96 2.646zm7.662 1.134c-1.027 0-1.825-.29-2.394-.868-.56-.579-.859-1.349-.896-2.31l-.014-.602.014-.602c.037-.952.341-1.717.91-2.296.569-.588 1.363-.882 2.38-.882s1.811.294 2.38.882c.569.579.873 1.344.91 2.296.009.103.014.303.014.602s-.005.5-.014.602c-.037.961-.341 1.731-.91 2.31-.56.579-1.353.868-2.38.868zm0-1.078c.588 0 1.05-.187 1.386-.56.345-.373.532-.91.56-1.61.009-.093.014-.27.014-.532 0-.261-.005-.439-.014-.532-.028-.7-.215-1.237-.56-1.61-.336-.373-.798-.56-1.386-.56-.588 0-1.055.187-1.4.56-.345.373-.527.91-.546 1.61l-.014.532.014.532c.019.7.201 1.237.546 1.61.345.373.812.56 1.4.56zm9.134 1.078c-.457 0-.882-.093-1.274-.28a2.445 2.445 0 0 1-.938-.756 1.866 1.866 0 0 1-.336-1.078c0-.616.252-1.12.756-1.512.514-.401 1.204-.663 2.072-.784l2.086-.294V8.03c0-.952-.546-1.428-1.638-1.428-.41 0-.746.089-1.008.266a1.726 1.726 0 0 0-.588.602.378.378 0 0 1-.112.182c-.037.037-.093.056-.168.056h-.602a.336.336 0 0 1-.224-.084.334.334 0 0 1-.084-.224c.01-.224.112-.476.308-.756.206-.29.518-.537.938-.742.42-.215.938-.322 1.554-.322 1.046 0 1.797.247 2.254.742.458.485.686 1.092.686 1.82v4.536a.321.321 0 0 1-.098.238.302.302 0 0 1-.224.084h-.644a.355.355 0 0 1-.238-.084.353.353 0 0 1-.084-.238v-.602c-.205.299-.504.55-.896.756-.392.205-.891.308-1.498.308zm.294-1.05c.607 0 1.102-.196 1.484-.588.392-.401.588-.975.588-1.722v-.392l-1.624.238c-.662.093-1.162.252-1.498.476-.336.215-.504.49-.504.826 0 .373.154.663.462.868.308.196.672.294 1.092.294zm5.832 3.57a.27.27 0 0 1-.196-.084.269.269 0 0 1-.084-.196c0-.065.024-.15.07-.252l1.078-2.562-2.674-6.314a.928.928 0 0 1-.07-.238.285.285 0 0 1 .294-.294h.686c.15 0 .262.08.336.238l2.128 5.096 2.184-5.096c.075-.159.192-.238.35-.238h.658c.084 0 .154.028.21.084a.269.269 0 0 1 .084.196c0 .028-.023.112-.07.252l-3.976 9.17c-.074.159-.191.238-.35.238h-.658zm8.475-2.52c-.887 0-1.573-.285-2.058-.854-.486-.579-.728-1.344-.728-2.296V6.042c0-.093.028-.168.084-.224a.322.322 0 0 1 .238-.098h.7a.28.28 0 0 1 .224.098.28.28 0 0 1 .098.224V9.92c0 1.39.606 2.086 1.82 2.086.588 0 1.054-.182 1.4-.546.345-.373.518-.887.518-1.54V6.042c0-.093.028-.168.084-.224a.322.322 0 0 1 .238-.098h.7a.28.28 0 0 1 .224.098c.056.056.084.13.084.224v6.636a.353.353 0 0 1-.084.238.303.303 0 0 1-.224.084h-.658a.351.351 0 0 1-.238-.084.353.353 0 0 1-.084-.238v-.616a2.648 2.648 0 0 1-.952.812c-.374.177-.836.266-1.386.266zm7.673 0c-.97 0-1.703-.317-2.198-.952-.494-.635-.756-1.437-.784-2.408l-.014-.42.014-.42c.028-.961.29-1.76.784-2.394.495-.644 1.228-.966 2.198-.966.962 0 1.718.34 2.268 1.022v-3.22c0-.093.028-.168.084-.224a.326.326 0 0 1 .238-.098h.672a.28.28 0 0 1 .224.098c.066.056.098.13.098.224v9.296a.321.321 0 0 1-.098.238.302.302 0 0 1-.224.084h-.63a.355.355 0 0 1-.238-.084.353.353 0 0 1-.084-.238v-.588c-.541.7-1.311 1.05-2.31 1.05zm.294-1.134c.644 0 1.125-.21 1.442-.63.327-.43.504-.938.532-1.526.01-.103.014-.28.014-.532a6.74 6.74 0 0 0-.014-.546 2.335 2.335 0 0 0-.532-1.442c-.336-.41-.816-.616-1.442-.616-.662 0-1.148.205-1.456.616-.298.41-.462.952-.49 1.624l-.014.406c0 1.764.654 2.646 1.96 2.646zm6.71 1.134c-.457 0-.882-.093-1.274-.28a2.445 2.445 0 0 1-.938-.756 1.866 1.866 0 0 1-.336-1.078c0-.616.252-1.12.756-1.512.514-.401 1.204-.663 2.072-.784l2.086-.294V8.03c0-.952-.546-1.428-1.638-1.428-.41 0-.746.089-1.008.266a1.726 1.726 0 0 0-.588.602.378.378 0 0 1-.112.182c-.037.037-.093.056-.168.056h-.602a.336.336 0 0 1-.224-.084.334.334 0 0 1-.084-.224c.01-.224.112-.476.308-.756.206-.29.518-.537.938-.742.42-.215.938-.322 1.554-.322 1.046 0 1.797.247 2.254.742.458.485.686 1.092.686 1.82v4.536a.321.321 0 0 1-.098.238.302.302 0 0 1-.224.084h-.644a.355.355 0 0 1-.238-.084.353.353 0 0 1-.084-.238v-.602c-.205.299-.504.55-.896.756-.392.205-.891.308-1.498.308zm.294-1.05c.607 0 1.102-.196 1.484-.588.392-.401.588-.975.588-1.722v-.392l-1.624.238c-.662.093-1.162.252-1.498.476-.336.215-.504.49-.504.826 0 .373.154.663.462.868.308.196.672.294 1.092.294zm5.031.91a.351.351 0 0 1-.238-.084.353.353 0 0 1-.084-.238V6.056c0-.093.028-.173.084-.238a.322.322 0 0 1 .238-.098h.644c.093 0 .172.033.238.098a.325.325 0 0 1 .098.238v.616c.382-.635 1.036-.952 1.96-.952h.546a.28.28 0 0 1 .224.098.28.28 0 0 1 .098.224v.574a.281.281 0 0 1-.098.224.303.303 0 0 1-.224.084h-.84c-.504 0-.901.15-1.19.448-.29.29-.434.686-.434 1.19v4.116a.325.325 0 0 1-.098.238.355.355 0 0 1-.238.084h-.686zm7.146 0c-1.475 0-2.212-.821-2.212-2.464V6.84h-1.092a.353.353 0 0 1-.238-.084.353.353 0 0 1-.084-.238v-.476c0-.093.028-.168.084-.224a.324.324 0 0 1 .238-.098h1.092V3.382c0-.093.028-.168.084-.224a.324.324 0 0 1 .238-.098h.658a.28.28 0 0 1 .224.098.28.28 0 0 1 .098.224V5.72h1.736a.28.28 0 0 1 .224.098.28.28 0 0 1 .098.224v.476a.325.325 0 0 1-.098.238.303.303 0 0 1-.224.084h-1.736v3.598c0 .467.079.821.238 1.064.159.233.42.35.784.35h.854a.28.28 0 0 1 .224.098.28.28 0 0 1 .098.224v.504a.325.325 0 0 1-.098.238.303.303 0 0 1-.224.084h-.966zm4.846.14c-.961 0-1.731-.294-2.31-.882-.569-.597-.882-1.41-.938-2.436l-.014-.476.014-.462c.066-1.008.383-1.81.952-2.408.579-.597 1.34-.896 2.282-.896 1.036 0 1.839.331 2.408.994.57.653.854 1.54.854 2.66v.238a.321.321 0 0 1-.098.238.302.302 0 0 1-.224.084h-4.844v.126c.028.607.21 1.125.546 1.554.346.42.798.63 1.358.63.43 0 .78-.084 1.05-.252.28-.177.486-.36.616-.546.084-.112.145-.177.182-.196a.492.492 0 0 1 .238-.042h.686c.084 0 .154.023.21.07a.241.241 0 0 1 .084.196c0 .205-.13.453-.392.742-.252.29-.611.541-1.078.756-.457.205-.984.308-1.582.308zm1.918-4.312v-.042c0-.644-.177-1.167-.532-1.568-.345-.41-.812-.616-1.4-.616-.588 0-1.054.205-1.4.616-.336.401-.504.924-.504 1.568v.042h3.836zm4.459 1.876a.285.285 0 0 1-.294-.294v-.56c.019-.495.145-.92.378-1.274.234-.355.574-.76 1.022-1.218.364-.373.63-.681.798-.924.168-.243.252-.509.252-.798 0-.43-.182-.77-.546-1.022a2.094 2.094 0 0 0-1.246-.378c-1.11 0-1.764.56-1.96 1.68-.046.205-.168.308-.364.308h-.672a.303.303 0 0 1-.224-.084.303.303 0 0 1-.084-.224c.019-.513.164-.985.434-1.414a2.99 2.99 0 0 1 1.176-1.05c.504-.261 1.083-.392 1.736-.392.691 0 1.27.121 1.736.364.476.233.826.541 1.05.924a2.3 2.3 0 0 1 .336 1.204c0 .476-.107.887-.322 1.232-.214.345-.536.747-.966 1.204-.354.373-.62.69-.798.952-.177.252-.28.537-.308.854a9.543 9.543 0 0 0-.028.588c-.046.215-.163.322-.35.322h-.756zM207.171 13a.355.355 0 0 1-.238-.084.353.353 0 0 1-.084-.238v-.854c0-.093.028-.168.084-.224a.326.326 0 0 1 .238-.098h.91c.094 0 .173.033.238.098.066.056.098.13.098.224v.854a.321.321 0 0 1-.098.238.351.351 0 0 1-.238.084h-.91z"/>
    <path id="path8_fill" d="M1.414 13a.353.353 0 0 1-.238-.084.353.353 0 0 1-.084-.238V6.042c0-.093.028-.168.084-.224a.324.324 0 0 1 .238-.098h.658a.28.28 0 0 1 .224.098.28.28 0 0 1 .098.224v.616c.271-.345.588-.611.952-.798.374-.187.836-.28 1.386-.28.896 0 1.592.29 2.086.868.504.57.756 1.33.756 2.282v3.948a.324.324 0 0 1-.098.238.303.303 0 0 1-.224.084h-.7a.353.353 0 0 1-.238-.084.353.353 0 0 1-.084-.238V8.8c0-.663-.163-1.176-.49-1.54-.317-.364-.779-.546-1.386-.546-.588 0-1.054.187-1.4.56-.345.364-.518.873-.518 1.526v3.878a.324.324 0 0 1-.098.238.303.303 0 0 1-.224.084h-.7zm10.388.14c-.96 0-1.73-.294-2.31-.882-.569-.597-.882-1.41-.938-2.436l-.014-.476.014-.462c.066-1.008.383-1.81.952-2.408.58-.597 1.34-.896 2.282-.896 1.036 0 1.84.331 2.408.994.57.653.854 1.54.854 2.66v.238a.324.324 0 0 1-.098.238.303.303 0 0 1-.224.084H9.884v.126c.028.607.21 1.125.546 1.554.346.42.798.63 1.358.63.43 0 .78-.084 1.05-.252.28-.177.486-.36.616-.546.084-.112.145-.177.182-.196a.491.491 0 0 1 .238-.042h.686c.084 0 .154.023.21.07a.241.241 0 0 1 .084.196c0 .205-.13.453-.392.742-.252.29-.61.541-1.078.756-.457.205-.984.308-1.582.308zm1.918-4.312v-.042c0-.644-.177-1.167-.532-1.568-.345-.41-.812-.616-1.4-.616-.588 0-1.054.205-1.4.616-.336.401-.504.924-.504 1.568v.042h3.836zm5.252 4.312c-.998 0-1.783-.28-2.352-.84-.56-.57-.859-1.363-.896-2.38l-.014-.56.014-.56c.037-1.017.336-1.806.896-2.366.57-.57 1.354-.854 2.352-.854.672 0 1.241.121 1.708.364.467.243.812.541 1.036.896.233.355.36.71.378 1.064a.245.245 0 0 1-.084.224.353.353 0 0 1-.238.084H21.1c-.093 0-.163-.019-.21-.056a.577.577 0 0 1-.14-.224c-.159-.448-.383-.765-.672-.952-.29-.196-.653-.294-1.092-.294-.579 0-1.04.182-1.386.546-.336.355-.518.9-.546 1.638l-.014.504.014.476c.028.747.21 1.297.546 1.652.336.355.798.532 1.386.532.439 0 .803-.093 1.092-.28.29-.196.514-.518.672-.966a.576.576 0 0 1 .14-.224c.047-.047.117-.07.21-.07h.672c.094 0 .173.033.238.098.066.056.093.13.084.224-.018.345-.145.7-.378 1.064-.224.355-.57.653-1.036.896-.457.243-1.026.364-1.708.364zm7.005 0c-.962 0-1.732-.294-2.31-.882-.57-.597-.882-1.41-.938-2.436l-.014-.476.014-.462c.065-1.008.382-1.81.952-2.408.578-.597 1.339-.896 2.282-.896 1.036 0 1.838.331 2.408.994.569.653.854 1.54.854 2.66v.238a.324.324 0 0 1-.098.238.303.303 0 0 1-.224.084h-4.844v.126c.028.607.21 1.125.546 1.554.345.42.798.63 1.358.63.429 0 .779-.084 1.05-.252.28-.177.485-.36.616-.546.084-.112.144-.177.182-.196a.49.49 0 0 1 .238-.042h.686c.084 0 .154.023.21.07a.241.241 0 0 1 .084.196c0 .205-.131.453-.392.742-.252.29-.612.541-1.078.756-.458.205-.985.308-1.582.308zm1.918-4.312v-.042c0-.644-.178-1.167-.532-1.568-.346-.41-.812-.616-1.4-.616-.588 0-1.055.205-1.4.616-.336.401-.504.924-.504 1.568v.042h3.836zm4.831 4.312c-.653 0-1.204-.103-1.652-.308-.438-.215-.77-.457-.994-.728-.214-.27-.322-.495-.322-.672 0-.093.033-.163.098-.21a.373.373 0 0 1 .224-.084h.63c.094 0 .178.047.252.14.224.261.467.467.728.616.262.15.612.224 1.05.224.486 0 .878-.093 1.176-.28.308-.196.462-.462.462-.798a.768.768 0 0 0-.196-.546c-.121-.15-.336-.275-.644-.378-.298-.112-.746-.233-1.344-.364-.812-.177-1.39-.434-1.736-.77-.336-.336-.504-.77-.504-1.302 0-.355.103-.69.308-1.008a2.26 2.26 0 0 1 .924-.784c.411-.205.901-.308 1.47-.308.598 0 1.106.098 1.526.294.42.196.733.43.938.7.215.261.322.48.322.658a.265.265 0 0 1-.098.21.285.285 0 0 1-.21.084h-.588a.345.345 0 0 1-.28-.14 3.33 3.33 0 0 0-.392-.406 1.254 1.254 0 0 0-.462-.266c-.196-.075-.448-.112-.756-.112-.448 0-.793.098-1.036.294a.89.89 0 0 0-.364.742.83.83 0 0 0 .154.504c.103.13.299.252.588.364.299.112.728.229 1.288.35.887.187 1.512.457 1.876.812.374.345.56.789.56 1.33 0 .401-.116.765-.35 1.092-.233.327-.578.583-1.036.77-.448.187-.984.28-1.61.28zm4.135-8.778a.353.353 0 0 1-.238-.084.353.353 0 0 1-.084-.238v-.756c0-.093.028-.173.084-.238a.324.324 0 0 1 .238-.098h.882c.093 0 .172.033.238.098a.324.324 0 0 1 .098.238v.756a.324.324 0 0 1-.098.238.353.353 0 0 1-.238.084h-.882zM36.973 13a.353.353 0 0 1-.238-.084.353.353 0 0 1-.084-.238V6.042c0-.093.028-.168.084-.224a.324.324 0 0 1 .238-.098h.672a.28.28 0 0 1 .224.098.28.28 0 0 1 .098.224v6.636a.324.324 0 0 1-.098.238.303.303 0 0 1-.224.084h-.672zm5.218 0c-1.474 0-2.212-.821-2.212-2.464V6.84h-1.092a.353.353 0 0 1-.238-.084.353.353 0 0 1-.084-.238v-.476c0-.093.028-.168.084-.224a.324.324 0 0 1 .238-.098h1.092V3.382c0-.093.028-.168.084-.224a.324.324 0 0 1 .238-.098h.658a.28.28 0 0 1 .224.098.28.28 0 0 1 .098.224V5.72h1.736a.28.28 0 0 1 .224.098.28.28 0 0 1 .098.224v.476a.324.324 0 0 1-.098.238.303.303 0 0 1-.224.084h-1.736v3.598c0 .467.08.821.238 1.064.159.233.42.35.784.35h.854a.28.28 0 0 1 .224.098.28.28 0 0 1 .098.224v.504a.324.324 0 0 1-.098.238.303.303 0 0 1-.224.084h-.966zm4.917.14c-1.027 0-1.825-.29-2.394-.868-.56-.579-.859-1.349-.896-2.31l-.014-.602.014-.602c.037-.952.34-1.717.91-2.296.57-.588 1.362-.882 2.38-.882 1.017 0 1.81.294 2.38.882.57.579.872 1.344.91 2.296.01.103.014.303.014.602s-.005.5-.014.602c-.038.961-.34 1.731-.91 2.31-.56.579-1.354.868-2.38.868zm0-1.078c.588 0 1.05-.187 1.386-.56.345-.373.532-.91.56-1.61.01-.093.014-.27.014-.532 0-.261-.005-.439-.014-.532-.028-.7-.215-1.237-.56-1.61-.336-.373-.798-.56-1.386-.56-.588 0-1.055.187-1.4.56-.346.373-.528.91-.546 1.61l-.014.532.014.532c.018.7.2 1.237.546 1.61.345.373.812.56 1.4.56zm7.44 3.598a.324.324 0 0 1-.238-.098.303.303 0 0 1-.084-.224V6.042c0-.093.028-.168.084-.224a.324.324 0 0 1 .238-.098h.644a.28.28 0 0 1 .224.098.28.28 0 0 1 .098.224v.616c.523-.719 1.288-1.078 2.296-1.078.98 0 1.713.308 2.198.924.495.616.76 1.41.798 2.38.01.103.014.261.014.476 0 .215-.005.373-.014.476-.037.961-.303 1.755-.798 2.38-.495.616-1.227.924-2.198.924-.97 0-1.727-.35-2.268-1.05v3.248a.303.303 0 0 1-.084.224.28.28 0 0 1-.224.098h-.686zm2.968-3.654c.663 0 1.143-.205 1.442-.616.308-.41.476-.952.504-1.624.01-.093.014-.229.014-.406 0-1.764-.653-2.646-1.96-2.646-.644 0-1.13.215-1.456.644-.317.42-.49.924-.518 1.512l-.014.532.014.546a2.34 2.34 0 0 0 .532 1.442c.336.41.817.616 1.442.616zm6.374 1.134c-.458 0-.882-.093-1.274-.28a2.44 2.44 0 0 1-.938-.756 1.866 1.866 0 0 1-.336-1.078c0-.616.252-1.12.756-1.512.513-.401 1.204-.663 2.072-.784l2.086-.294V8.03c0-.952-.546-1.428-1.638-1.428-.411 0-.747.089-1.008.266a1.719 1.719 0 0 0-.588.602.381.381 0 0 1-.112.182c-.038.037-.094.056-.168.056h-.602a.334.334 0 0 1-.224-.084.334.334 0 0 1-.084-.224c.009-.224.112-.476.308-.756.205-.29.518-.537.938-.742.42-.215.938-.322 1.554-.322 1.045 0 1.796.247 2.254.742.457.485.686 1.092.686 1.82v4.536a.324.324 0 0 1-.098.238.303.303 0 0 1-.224.084h-.644a.353.353 0 0 1-.238-.084.353.353 0 0 1-.084-.238v-.602c-.206.299-.504.55-.896.756-.392.205-.892.308-1.498.308zm.294-1.05c.606 0 1.101-.196 1.484-.588.392-.401.588-.975.588-1.722v-.392l-1.624.238c-.663.093-1.162.252-1.498.476-.336.215-.504.49-.504.826 0 .373.154.663.462.868.308.196.672.294 1.092.294zm7.69 3.99c-.765 0-1.381-.13-1.848-.392-.467-.252-.798-.541-.994-.868-.196-.327-.303-.62-.322-.882a.281.281 0 0 1 .084-.238.357.357 0 0 1 .238-.098h.672a.37.37 0 0 1 .21.056.517.517 0 0 1 .14.238c.112.299.294.555.546.77.261.224.663.336 1.204.336.69 0 1.2-.15 1.526-.448.327-.29.49-.807.49-1.554v-.952c-.243.308-.55.555-.924.742-.373.177-.817.266-1.33.266-.99 0-1.731-.313-2.226-.938-.485-.635-.742-1.437-.77-2.408l-.014-.392.014-.378c.028-.961.29-1.76.784-2.394.495-.644 1.232-.966 2.212-.966.98 0 1.745.36 2.296 1.078v-.602c0-.093.028-.173.084-.238a.324.324 0 0 1 .238-.098h.644c.093 0 .173.033.238.098a.324.324 0 0 1 .098.238v6.79c0 2.156-1.097 3.234-3.29 3.234zm-.028-4.144c.635 0 1.115-.21 1.442-.63.327-.42.504-.92.532-1.498.01-.084.014-.247.014-.49 0-.233-.005-.392-.014-.476-.028-.579-.205-1.078-.532-1.498-.317-.42-.798-.63-1.442-.63-.663 0-1.143.205-1.442.616-.299.41-.462.952-.49 1.624l-.014.364.014.378c.028.663.191 1.204.49 1.624.299.41.78.616 1.442.616zm6.737 1.204c-.457 0-.882-.093-1.274-.28a2.44 2.44 0 0 1-.938-.756 1.866 1.866 0 0 1-.336-1.078c0-.616.252-1.12.756-1.512.514-.401 1.204-.663 2.072-.784l2.086-.294V8.03c0-.952-.546-1.428-1.638-1.428-.41 0-.746.089-1.008.266a1.72 1.72 0 0 0-.588.602.38.38 0 0 1-.112.182c-.037.037-.093.056-.168.056h-.602a.335.335 0 0 1-.224-.084.334.334 0 0 1-.084-.224c.01-.224.112-.476.308-.756.206-.29.518-.537.938-.742.42-.215.938-.322 1.554-.322 1.046 0 1.797.247 2.254.742.458.485.686 1.092.686 1.82v4.536a.324.324 0 0 1-.098.238.303.303 0 0 1-.224.084H81.3a.353.353 0 0 1-.238-.084.353.353 0 0 1-.084-.238v-.602c-.205.299-.504.55-.896.756-.392.205-.891.308-1.498.308zm.294-1.05c.607 0 1.102-.196 1.484-.588.392-.401.588-.975.588-1.722v-.392l-1.624.238c-.662.093-1.162.252-1.498.476-.336.215-.504.49-.504.826 0 .373.154.663.462.868.308.196.672.294 1.092.294zm5.03.91a.353.353 0 0 1-.237-.084.353.353 0 0 1-.084-.238V6.056c0-.093.028-.173.084-.238a.324.324 0 0 1 .238-.098h.644c.093 0 .172.033.238.098a.324.324 0 0 1 .098.238v.616c.382-.635 1.036-.952 1.96-.952h.546a.28.28 0 0 1 .224.098.28.28 0 0 1 .098.224v.574a.28.28 0 0 1-.098.224.303.303 0 0 1-.224.084h-.84c-.504 0-.9.15-1.19.448-.29.29-.434.686-.434 1.19v4.116a.324.324 0 0 1-.098.238.353.353 0 0 1-.238.084h-.686zm7.052 0a.353.353 0 0 1-.238-.084.353.353 0 0 1-.084-.238V3.382c0-.093.028-.168.084-.224a.324.324 0 0 1 .238-.098h.658a.28.28 0 0 1 .224.098.28.28 0 0 1 .098.224v9.296a.324.324 0 0 1-.098.238.303.303 0 0 1-.224.084h-.658zm4.406.14c-.457 0-.882-.093-1.274-.28a2.44 2.44 0 0 1-.938-.756 1.866 1.866 0 0 1-.336-1.078c0-.616.252-1.12.756-1.512.514-.401 1.204-.663 2.072-.784l2.086-.294V8.03c0-.952-.546-1.428-1.638-1.428-.41 0-.746.089-1.008.266a1.72 1.72 0 0 0-.588.602.38.38 0 0 1-.112.182c-.037.037-.093.056-.168.056h-.602a.335.335 0 0 1-.224-.084.334.334 0 0 1-.084-.224c.01-.224.112-.476.308-.756.206-.29.518-.537.938-.742.42-.215.938-.322 1.554-.322 1.046 0 1.797.247 2.254.742.458.485.686 1.092.686 1.82v4.536a.324.324 0 0 1-.098.238.303.303 0 0 1-.224.084h-.644a.353.353 0 0 1-.238-.084.353.353 0 0 1-.084-.238v-.602c-.205.299-.504.55-.896.756-.392.205-.891.308-1.498.308zm.294-1.05c.607 0 1.102-.196 1.484-.588.392-.401.588-.975.588-1.722v-.392l-1.624.238c-.662.093-1.162.252-1.498.476-.336.215-.504.49-.504.826 0 .373.154.663.462.868.308.196.672.294 1.092.294zm7.784.91a.353.353 0 0 1-.238-.084.353.353 0 0 1-.084-.238V3.382c0-.093.028-.168.084-.224a.324.324 0 0 1 .238-.098h.658a.28.28 0 0 1 .224.098.28.28 0 0 1 .098.224v9.296a.325.325 0 0 1-.098.238.303.303 0 0 1-.224.084h-.658zm5.092.14c-.887 0-1.573-.285-2.058-.854-.485-.579-.728-1.344-.728-2.296V6.042c0-.093.028-.168.084-.224a.324.324 0 0 1 .238-.098h.7a.28.28 0 0 1 .224.098.28.28 0 0 1 .098.224V9.92c0 1.39.607 2.086 1.82 2.086.588 0 1.055-.182 1.4-.546.345-.373.518-.887.518-1.54V6.042c0-.093.028-.168.084-.224a.324.324 0 0 1 .238-.098h.7a.28.28 0 0 1 .224.098c.056.056.084.13.084.224v6.636a.353.353 0 0 1-.084.238.303.303 0 0 1-.224.084h-.658a.353.353 0 0 1-.238-.084.353.353 0 0 1-.084-.238v-.616a2.64 2.64 0 0 1-.952.812c-.373.177-.835.266-1.386.266zm4.874-.14a.351.351 0 0 1-.238-.084.353.353 0 0 1-.084-.238v-.49c0-.075.018-.15.056-.224a2.16 2.16 0 0 1 .14-.224l3.864-4.914h-3.612a.351.351 0 0 1-.238-.084.353.353 0 0 1-.084-.238v-.462c0-.093.028-.168.084-.224a.322.322 0 0 1 .238-.098h4.984a.28.28 0 0 1 .224.098.28.28 0 0 1 .098.224v.518c0 .075-.024.15-.07.224-.038.075-.08.145-.126.21l-3.822 4.9h3.976c.102 0 .182.028.238.084.056.056.084.135.084.238v.462a.325.325 0 0 1-.098.238.303.303 0 0 1-.224.084h-5.39z"/>
    <path id="path9_fill" d="M4.158 15a.353.353 0 0 1-.238-.084.353.353 0 0 1-.084-.238v-3.304L.462 5.662a.383.383 0 0 0-.014-.084.226.226 0 0 1-.028-.098c0-.075.028-.14.084-.196A.269.269 0 0 1 .7 5.2h.728c.159 0 .28.08.364.238l2.73 4.536 2.73-4.536c.103-.159.229-.238.378-.238h.714c.084 0 .154.028.21.084a.269.269 0 0 1 .084.196.436.436 0 0 1-.056.182l-3.36 5.712v3.304a.324.324 0 0 1-.098.238.353.353 0 0 1-.238.084h-.728zm5.913.14c-.457 0-.882-.093-1.274-.28a2.44 2.44 0 0 1-.938-.756 1.866 1.866 0 0 1-.336-1.078c0-.616.252-1.12.756-1.512.513-.401 1.204-.663 2.072-.784l2.086-.294v-.406c0-.952-.546-1.428-1.638-1.428-.41 0-.747.089-1.008.266a1.72 1.72 0 0 0-.588.602.38.38 0 0 1-.112.182c-.037.037-.093.056-.168.056h-.602a.334.334 0 0 1-.224-.084.334.334 0 0 1-.084-.224c.01-.224.112-.476.308-.756.205-.29.518-.537.938-.742.42-.215.938-.322 1.554-.322 1.045 0 1.797.247 2.254.742.457.485.686 1.092.686 1.82v4.536a.324.324 0 0 1-.098.238.303.303 0 0 1-.224.084h-.644a.353.353 0 0 1-.238-.084.353.353 0 0 1-.084-.238v-.602c-.205.299-.504.55-.896.756-.392.205-.891.308-1.498.308zm.294-1.05c.607 0 1.101-.196 1.484-.588.392-.401.588-.975.588-1.722v-.392l-1.624.238c-.663.093-1.162.252-1.498.476-.336.215-.504.49-.504.826 0 .373.154.663.462.868.308.196.672.294 1.092.294zm7.784.91a.353.353 0 0 1-.238-.084.353.353 0 0 1-.084-.238V5.382c0-.093.028-.168.084-.224a.324.324 0 0 1 .238-.098h.7a.28.28 0 0 1 .224.098.28.28 0 0 1 .098.224v3.262a2.71 2.71 0 0 1 .952-.784c.364-.187.816-.28 1.358-.28.896 0 1.591.29 2.086.868.504.57.756 1.33.756 2.282v3.948a.324.324 0 0 1-.098.238A.303.303 0 0 1 24 15h-.7a.353.353 0 0 1-.238-.084.353.353 0 0 1-.084-.238V10.8c0-.663-.163-1.176-.49-1.54-.317-.364-.78-.546-1.386-.546-.588 0-1.06.187-1.414.56-.346.364-.518.873-.518 1.526v3.878a.324.324 0 0 1-.098.238.303.303 0 0 1-.224.084h-.7zm10.415.14c-.962 0-1.732-.294-2.31-.882-.57-.597-.882-1.41-.938-2.436l-.014-.476.014-.462c.065-1.008.383-1.81.952-2.408.578-.597 1.34-.896 2.282-.896 1.036 0 1.838.331 2.408.994.57.653.854 1.54.854 2.66v.238a.324.324 0 0 1-.098.238.303.303 0 0 1-.224.084h-4.844v.126c.028.607.21 1.125.546 1.554.345.42.798.63 1.358.63.43 0 .78-.084 1.05-.252.28-.177.485-.36.616-.546.084-.112.144-.177.182-.196a.49.49 0 0 1 .238-.042h.686c.084 0 .154.023.21.07a.241.241 0 0 1 .084.196c0 .205-.13.453-.392.742-.252.29-.611.541-1.078.756-.457.205-.985.308-1.582.308zm1.918-4.312v-.042c0-.644-.177-1.167-.532-1.568-.345-.41-.812-.616-1.4-.616-.588 0-1.055.205-1.4.616-.336.401-.504.924-.504 1.568v.042h3.836zm7.963 4.312c-.961 0-1.731-.294-2.31-.882-.57-.597-.882-1.41-.938-2.436l-.014-.476.014-.462c.065-1.008.383-1.81.952-2.408.579-.597 1.34-.896 2.282-.896 1.036 0 1.839.331 2.408.994.57.653.854 1.54.854 2.66v.238a.324.324 0 0 1-.098.238.303.303 0 0 1-.224.084h-4.844v.126c.028.607.21 1.125.546 1.554.345.42.798.63 1.358.63.43 0 .78-.084 1.05-.252.28-.177.485-.36.616-.546.084-.112.145-.177.182-.196a.49.49 0 0 1 .238-.042h.686c.084 0 .154.023.21.07a.241.241 0 0 1 .084.196c0 .205-.13.453-.392.742-.252.29-.611.541-1.078.756-.457.205-.985.308-1.582.308zm1.918-4.312v-.042c0-.644-.177-1.167-.532-1.568-.345-.41-.812-.616-1.4-.616-.588 0-1.055.205-1.4.616-.336.401-.504.924-.504 1.568v.042h3.836zM43.657 15a.353.353 0 0 1-.238-.084.353.353 0 0 1-.084-.238V8.84h-1.19a.353.353 0 0 1-.239-.084.353.353 0 0 1-.084-.238v-.476c0-.093.028-.168.084-.224a.324.324 0 0 1 .239-.098h1.19v-.7c0-1.587.802-2.38 2.407-2.38h.84a.28.28 0 0 1 .224.098.28.28 0 0 1 .099.224v.476a.324.324 0 0 1-.099.238.303.303 0 0 1-.223.084h-.813c-.42 0-.714.112-.882.336-.167.215-.252.546-.252.994v.63h1.806a.28.28 0 0 1 .224.098.28.28 0 0 1 .099.224v.476a.324.324 0 0 1-.099.238.303.303 0 0 1-.223.084h-1.806v5.838a.324.324 0 0 1-.099.238.303.303 0 0 1-.223.084h-.658zm6.42.14c-.962 0-1.732-.294-2.31-.882-.57-.597-.883-1.41-.939-2.436l-.014-.476.014-.462c.066-1.008.383-1.81.952-2.408.579-.597 1.34-.896 2.282-.896 1.036 0 1.839.331 2.408.994.57.653.854 1.54.854 2.66v.238a.324.324 0 0 1-.098.238.303.303 0 0 1-.224.084h-4.844v.126c.028.607.21 1.125.546 1.554.346.42.798.63 1.358.63.43 0 .78-.084 1.05-.252.28-.177.486-.36.616-.546.084-.112.145-.177.182-.196a.491.491 0 0 1 .238-.042h.686c.084 0 .154.023.21.07a.241.241 0 0 1 .084.196c0 .205-.13.453-.392.742-.252.29-.611.541-1.078.756-.457.205-.984.308-1.582.308zm1.917-4.312v-.042c0-.644-.177-1.167-.532-1.568-.345-.41-.812-.616-1.4-.616-.588 0-1.054.205-1.4.616-.336.401-.504.924-.504 1.568v.042h3.836zm5.252 4.312c-.999 0-1.783-.28-2.352-.84-.56-.57-.859-1.363-.896-2.38l-.014-.56.014-.56c.037-1.017.336-1.806.896-2.366.57-.57 1.353-.854 2.352-.854.672 0 1.241.121 1.708.364.467.243.812.541 1.036.896.233.355.36.71.378 1.064a.245.245 0 0 1-.084.224.353.353 0 0 1-.238.084h-.672c-.093 0-.163-.019-.21-.056a.576.576 0 0 1-.14-.224c-.159-.448-.383-.765-.672-.952-.29-.196-.653-.294-1.092-.294-.579 0-1.04.182-1.386.546-.336.355-.518.9-.546 1.638l-.014.504.014.476c.028.747.21 1.297.546 1.652.336.355.798.532 1.386.532.439 0 .803-.093 1.092-.28.29-.196.513-.518.672-.966a.576.576 0 0 1 .14-.224c.047-.047.117-.07.21-.07h.672c.093 0 .173.033.238.098.065.056.093.13.084.224-.019.345-.145.7-.378 1.064-.224.355-.57.653-1.036.896-.457.243-1.027.364-1.708.364zM64.18 15c-1.474 0-2.212-.821-2.212-2.464V8.84h-1.092a.353.353 0 0 1-.238-.084.353.353 0 0 1-.084-.238v-.476c0-.093.028-.168.084-.224a.324.324 0 0 1 .238-.098h1.092V5.382c0-.093.028-.168.084-.224a.324.324 0 0 1 .238-.098h.658a.28.28 0 0 1 .224.098.28.28 0 0 1 .098.224V7.72h1.736a.28.28 0 0 1 .224.098.28.28 0 0 1 .098.224v.476a.324.324 0 0 1-.098.238.303.303 0 0 1-.224.084H63.27v3.598c0 .467.08.821.238 1.064.16.233.42.35.784.35h.854a.28.28 0 0 1 .224.098.28.28 0 0 1 .098.224v.504a.324.324 0 0 1-.098.238.303.303 0 0 1-.224.084h-.966zm4.65.14c-.886 0-1.572-.285-2.057-.854-.485-.579-.728-1.344-.728-2.296V8.042c0-.093.028-.168.084-.224a.324.324 0 0 1 .238-.098h.7a.28.28 0 0 1 .224.098.28.28 0 0 1 .098.224v3.878c0 1.39.607 2.086 1.82 2.086.588 0 1.055-.182 1.4-.546.345-.373.518-.887.518-1.54V8.042c0-.093.028-.168.084-.224a.324.324 0 0 1 .238-.098h.7a.28.28 0 0 1 .224.098c.056.056.084.13.084.224v6.636a.353.353 0 0 1-.084.238.303.303 0 0 1-.224.084h-.658a.353.353 0 0 1-.238-.084.353.353 0 0 1-.084-.238v-.616a2.64 2.64 0 0 1-.952.812c-.373.177-.835.266-1.386.266zm7.045 0c-.458 0-.882-.093-1.274-.28a2.44 2.44 0 0 1-.938-.756 1.866 1.866 0 0 1-.336-1.078c0-.616.252-1.12.756-1.512.513-.401 1.204-.663 2.072-.784l2.086-.294v-.406c0-.952-.546-1.428-1.638-1.428-.411 0-.747.089-1.008.266a1.719 1.719 0 0 0-.588.602.381.381 0 0 1-.112.182c-.038.037-.094.056-.168.056h-.602a.334.334 0 0 1-.224-.084.334.334 0 0 1-.084-.224c.009-.224.112-.476.308-.756.205-.29.518-.537.938-.742.42-.215.938-.322 1.554-.322 1.045 0 1.796.247 2.254.742.457.485.686 1.092.686 1.82v4.536a.324.324 0 0 1-.098.238.303.303 0 0 1-.224.084h-.644a.353.353 0 0 1-.238-.084.353.353 0 0 1-.084-.238v-.602c-.206.299-.504.55-.896.756-.392.205-.892.308-1.498.308zm.294-1.05c.606 0 1.1-.196 1.484-.588.392-.401.588-.975.588-1.722v-.392l-1.624.238c-.663.093-1.162.252-1.498.476-.336.215-.504.49-.504.826 0 .373.154.663.462.868.308.196.672.294 1.092.294zm7.368 1.05c-.97 0-1.703-.317-2.198-.952-.495-.635-.756-1.437-.784-2.408l-.014-.42.014-.42c.028-.961.29-1.76.784-2.394.495-.644 1.227-.966 2.198-.966.961 0 1.717.34 2.268 1.022v-3.22c0-.093.028-.168.084-.224a.324.324 0 0 1 .238-.098h.672a.28.28 0 0 1 .224.098.28.28 0 0 1 .098.224v9.296a.324.324 0 0 1-.098.238.303.303 0 0 1-.224.084h-.63a.353.353 0 0 1-.238-.084.353.353 0 0 1-.084-.238v-.588c-.541.7-1.311 1.05-2.31 1.05zm.294-1.134c.644 0 1.125-.21 1.442-.63.327-.43.504-.938.532-1.526.01-.103.014-.28.014-.532 0-.261-.005-.443-.014-.546a2.34 2.34 0 0 0-.532-1.442c-.336-.41-.817-.616-1.442-.616-.663 0-1.148.205-1.456.616-.299.41-.462.952-.49 1.624l-.014.406c0 1.764.653 2.646 1.96 2.646zm7.662 1.134c-1.027 0-1.825-.29-2.394-.868-.56-.579-.859-1.349-.896-2.31l-.014-.602.014-.602c.037-.952.34-1.717.91-2.296.57-.588 1.363-.882 2.38-.882s1.81.294 2.38.882c.57.579.873 1.344.91 2.296.01.103.014.303.014.602s-.005.5-.014.602c-.037.961-.34 1.731-.91 2.31-.56.579-1.353.868-2.38.868zm0-1.078c.588 0 1.05-.187 1.386-.56.345-.373.532-.91.56-1.61.01-.093.014-.27.014-.532 0-.261-.005-.439-.014-.532-.028-.7-.215-1.237-.56-1.61-.336-.373-.798-.56-1.386-.56-.588 0-1.055.187-1.4.56-.345.373-.527.91-.546 1.61l-.014.532.014.532c.019.7.2 1.237.546 1.61.345.373.812.56 1.4.56zm9.645.938c-1.474 0-2.212-.821-2.212-2.464V8.84h-1.092a.353.353 0 0 1-.238-.084.353.353 0 0 1-.084-.238v-.476c0-.093.028-.168.084-.224a.324.324 0 0 1 .238-.098h1.092V5.382c0-.093.028-.168.084-.224a.324.324 0 0 1 .238-.098h.658a.28.28 0 0 1 .224.098c.066.056.098.13.098.224V7.72h1.736a.28.28 0 0 1 .224.098c.066.056.098.13.098.224v.476a.321.321 0 0 1-.098.238.302.302 0 0 1-.224.084h-1.736v3.598c0 .467.08.821.238 1.064.159.233.42.35.784.35h.854a.28.28 0 0 1 .224.098c.066.056.098.13.098.224v.504a.321.321 0 0 1-.098.238.302.302 0 0 1-.224.084h-.966zm4.651.14c-.887 0-1.573-.285-2.058-.854-.485-.579-.728-1.344-.728-2.296V8.042c0-.093.028-.168.084-.224a.324.324 0 0 1 .238-.098h.7a.28.28 0 0 1 .224.098.28.28 0 0 1 .098.224v3.878c0 1.39.607 2.086 1.82 2.086.588 0 1.055-.182 1.4-.546.345-.373.518-.887.518-1.54V8.042c0-.093.028-.168.084-.224a.324.324 0 0 1 .238-.098h.7a.28.28 0 0 1 .224.098c.056.056.084.13.084.224v6.636a.353.353 0 0 1-.084.238.303.303 0 0 1-.224.084h-.658a.353.353 0 0 1-.238-.084.353.353 0 0 1-.084-.238v-.616a2.64 2.64 0 0 1-.952.812c-.373.177-.835.266-1.386.266zm8.089 2.52a.324.324 0 0 1-.238-.098.303.303 0 0 1-.084-.224V8.042c0-.093.028-.168.084-.224a.324.324 0 0 1 .238-.098h.644a.28.28 0 0 1 .224.098.28.28 0 0 1 .098.224v.616c.523-.719 1.288-1.078 2.296-1.078.98 0 1.713.308 2.198.924.495.616.761 1.41.798 2.38.009.103.014.261.014.476 0 .215-.005.373-.014.476-.037.961-.303 1.755-.798 2.38-.495.616-1.227.924-2.198.924-.971 0-1.727-.35-2.268-1.05v3.248a.303.303 0 0 1-.084.224.28.28 0 0 1-.224.098h-.686zm2.968-3.654c.663 0 1.143-.205 1.442-.616.308-.41.476-.952.504-1.624.009-.093.014-.229.014-.406 0-1.764-.653-2.646-1.96-2.646-.644 0-1.129.215-1.456.644-.317.42-.49.924-.518 1.512l-.014.532.014.546c.019.55.196 1.031.532 1.442.336.41.817.616 1.442.616zm6.374 1.134c-.458 0-.882-.093-1.274-.28a2.438 2.438 0 0 1-.938-.756 1.866 1.866 0 0 1-.336-1.078c0-.616.252-1.12.756-1.512.513-.401 1.204-.663 2.072-.784l2.086-.294v-.406c0-.952-.546-1.428-1.638-1.428-.411 0-.747.089-1.008.266a1.709 1.709 0 0 0-.588.602.386.386 0 0 1-.112.182c-.038.037-.094.056-.168.056h-.602a.334.334 0 0 1-.224-.084.334.334 0 0 1-.084-.224c.009-.224.112-.476.308-.756.205-.29.518-.537.938-.742.42-.215.938-.322 1.554-.322 1.045 0 1.796.247 2.254.742.457.485.686 1.092.686 1.82v4.536a.325.325 0 0 1-.098.238.303.303 0 0 1-.224.084h-.644a.351.351 0 0 1-.238-.084.353.353 0 0 1-.084-.238v-.602c-.206.299-.504.55-.896.756-.392.205-.892.308-1.498.308zm.294-1.05c.606 0 1.101-.196 1.484-.588.392-.401.588-.975.588-1.722v-.392l-1.624.238c-.663.093-1.162.252-1.498.476-.336.215-.504.49-.504.826 0 .373.154.663.462.868.308.196.672.294 1.092.294zm7.69 3.99c-.765 0-1.381-.13-1.848-.392-.467-.252-.798-.541-.994-.868-.196-.327-.303-.62-.322-.882a.283.283 0 0 1 .084-.238.357.357 0 0 1 .238-.098h.672a.37.37 0 0 1 .21.056.515.515 0 0 1 .14.238c.112.299.294.555.546.77.261.224.663.336 1.204.336.691 0 1.199-.15 1.526-.448.327-.29.49-.807.49-1.554v-.952a2.692 2.692 0 0 1-.924.742c-.373.177-.817.266-1.33.266-.989 0-1.731-.313-2.226-.938-.485-.635-.742-1.437-.77-2.408l-.014-.392.014-.378c.028-.961.289-1.76.784-2.394.495-.644 1.232-.966 2.212-.966.98 0 1.745.36 2.296 1.078v-.602c0-.093.028-.173.084-.238a.324.324 0 0 1 .238-.098h.644c.093 0 .173.033.238.098a.325.325 0 0 1 .098.238v6.79c0 2.156-1.097 3.234-3.29 3.234zm-.028-4.144c.635 0 1.115-.21 1.442-.63.327-.42.504-.92.532-1.498.009-.084.014-.247.014-.49a5.34 5.34 0 0 0-.014-.476c-.028-.579-.205-1.078-.532-1.498-.317-.42-.798-.63-1.442-.63-.663 0-1.143.205-1.442.616-.299.41-.462.952-.49 1.624l-.014.364.014.378c.028.663.191 1.204.49 1.624.299.41.779.616 1.442.616zm7.689 1.204c-1.026 0-1.824-.29-2.394-.868-.56-.579-.858-1.349-.896-2.31l-.014-.602.014-.602c.038-.952.341-1.717.91-2.296.57-.588 1.363-.882 2.38-.882 1.018 0 1.811.294 2.38.882.57.579.873 1.344.91 2.296.01.103.014.303.014.602s-.004.5-.014.602c-.037.961-.34 1.731-.91 2.31-.56.579-1.353.868-2.38.868zm0-1.078c.588 0 1.05-.187 1.386-.56.346-.373.532-.91.56-1.61.01-.093.014-.27.014-.532 0-.261-.004-.439-.014-.532-.028-.7-.214-1.237-.56-1.61-.336-.373-.798-.56-1.386-.56-.588 0-1.054.187-1.4.56-.345.373-.527.91-.546 1.61l-.014.532.014.532c.019.7.201 1.237.546 1.61.346.373.812.56 1.4.56zm7.357-3.962a.351.351 0 0 1-.238-.084.353.353 0 0 1-.084-.238v-.98c0-.093.028-.168.084-.224a.322.322 0 0 1 .238-.098h1.008a.28.28 0 0 1 .224.098.28.28 0 0 1 .098.224v.98a.325.325 0 0 1-.098.238.303.303 0 0 1-.224.084h-1.008zm0 4.9a.351.351 0 0 1-.238-.084.353.353 0 0 1-.084-.238v-.98c0-.093.028-.168.084-.224a.323.323 0 0 1 .238-.098h1.008a.28.28 0 0 1 .224.098.28.28 0 0 1 .098.224v.98a.325.325 0 0 1-.098.238.303.303 0 0 1-.224.084h-1.008zm2.259 2.226a.31.31 0 0 1-.224-.098.281.281 0 0 1-.098-.224v-.49c0-.084.028-.159.084-.224a.297.297 0 0 1 .21-.098c.523-.01.934-.191 1.232-.546.308-.345.528-.905.658-1.68.131-.775.196-1.839.196-3.192 0-1.353-.065-2.417-.196-3.192-.13-.775-.35-1.335-.658-1.68-.298-.345-.709-.523-1.232-.532a.297.297 0 0 1-.21-.098.334.334 0 0 1-.084-.224v-.49c0-.093.033-.168.098-.224a.31.31 0 0 1 .224-.098c.812 0 1.456.229 1.932.686.476.448.817 1.148 1.022 2.1.215.943.322 2.193.322 3.752 0 1.559-.107 2.814-.322 3.766-.205.943-.546 1.643-1.022 2.1-.476.457-1.12.686-1.932.686zM3.696 35.14c-.97 0-1.703-.317-2.198-.952-.495-.635-.756-1.437-.784-2.408L.7 31.36l.014-.42c.028-.961.29-1.76.784-2.394.495-.644 1.227-.966 2.198-.966.961 0 1.717.34 2.268 1.022v-3.22c0-.093.028-.168.084-.224a.324.324 0 0 1 .238-.098h.672a.28.28 0 0 1 .224.098.28.28 0 0 1 .098.224v9.296a.324.324 0 0 1-.098.238.303.303 0 0 1-.224.084h-.63a.353.353 0 0 1-.238-.084.353.353 0 0 1-.084-.238v-.588c-.541.7-1.311 1.05-2.31 1.05zm.294-1.134c.644 0 1.125-.21 1.442-.63.327-.43.504-.938.532-1.526.01-.103.014-.28.014-.532 0-.261-.005-.443-.014-.546a2.34 2.34 0 0 0-.532-1.442c-.336-.41-.817-.616-1.442-.616-.663 0-1.148.205-1.456.616-.299.41-.462.952-.49 1.624l-.014.406c0 1.764.653 2.646 1.96 2.646zm4.89-7.644a.353.353 0 0 1-.238-.084.353.353 0 0 1-.084-.238v-.756c0-.093.028-.173.084-.238a.324.324 0 0 1 .238-.098h.882c.093 0 .173.033.238.098a.324.324 0 0 1 .098.238v.756a.324.324 0 0 1-.098.238.353.353 0 0 1-.238.084H8.88zM8.992 35a.353.353 0 0 1-.238-.084.353.353 0 0 1-.084-.238v-6.636c0-.093.028-.168.084-.224a.324.324 0 0 1 .238-.098h.672a.28.28 0 0 1 .224.098.28.28 0 0 1 .098.224v6.636a.324.324 0 0 1-.098.238.303.303 0 0 1-.224.084h-.672zm4.896.14c-.653 0-1.204-.103-1.652-.308-.438-.215-.77-.457-.994-.728-.214-.27-.322-.495-.322-.672 0-.093.033-.163.098-.21a.372.372 0 0 1 .224-.084h.63c.094 0 .178.047.252.14.224.261.467.467.728.616.262.15.612.224 1.05.224.486 0 .878-.093 1.176-.28.308-.196.462-.462.462-.798a.768.768 0 0 0-.196-.546c-.121-.15-.336-.275-.644-.378-.298-.112-.746-.233-1.344-.364-.812-.177-1.39-.434-1.736-.77-.336-.336-.504-.77-.504-1.302 0-.355.103-.69.308-1.008.215-.327.523-.588.924-.784.411-.205.901-.308 1.47-.308.598 0 1.106.098 1.526.294.42.196.733.43.938.7.215.261.322.48.322.658a.265.265 0 0 1-.098.21.285.285 0 0 1-.21.084h-.588a.345.345 0 0 1-.28-.14 3.338 3.338 0 0 0-.392-.406 1.256 1.256 0 0 0-.462-.266c-.196-.075-.448-.112-.756-.112-.448 0-.793.098-1.036.294a.89.89 0 0 0-.364.742c0 .196.052.364.154.504.103.13.299.252.588.364.299.112.728.229 1.288.35.887.187 1.512.457 1.876.812.374.345.56.789.56 1.33 0 .401-.116.765-.35 1.092-.233.327-.578.583-1.036.77-.448.187-.984.28-1.61.28zM18.85 35a.353.353 0 0 1-.238-.084.353.353 0 0 1-.084-.238V28.84h-1.19a.353.353 0 0 1-.238-.084.353.353 0 0 1-.084-.238v-.476c0-.093.028-.168.084-.224a.324.324 0 0 1 .238-.098h1.19v-.7c0-1.587.803-2.38 2.408-2.38h.84a.28.28 0 0 1 .224.098.28.28 0 0 1 .098.224v.476a.324.324 0 0 1-.098.238.303.303 0 0 1-.224.084h-.812c-.42 0-.714.112-.882.336-.168.215-.252.546-.252.994v.63h1.806a.28.28 0 0 1 .224.098.28.28 0 0 1 .098.224v.476a.324.324 0 0 1-.098.238.303.303 0 0 1-.224.084H19.83v5.838a.324.324 0 0 1-.098.238.303.303 0 0 1-.224.084h-.658zm3.967 0a.353.353 0 0 1-.238-.084.353.353 0 0 1-.084-.238v-6.622c0-.093.028-.173.084-.238a.324.324 0 0 1 .238-.098h.644c.093 0 .172.033.238.098a.324.324 0 0 1 .098.238v.616c.382-.635 1.036-.952 1.96-.952h.546a.28.28 0 0 1 .224.098.28.28 0 0 1 .098.224v.574a.28.28 0 0 1-.098.224.303.303 0 0 1-.224.084h-.84c-.504 0-.901.15-1.19.448-.29.29-.434.686-.434 1.19v4.116a.324.324 0 0 1-.098.238.353.353 0 0 1-.238.084h-.686zm7.02.14c-.887 0-1.573-.285-2.058-.854-.485-.579-.728-1.344-.728-2.296v-3.948c0-.093.028-.168.084-.224a.324.324 0 0 1 .238-.098h.7a.28.28 0 0 1 .224.098.28.28 0 0 1 .098.224v3.878c0 1.39.607 2.086 1.82 2.086.588 0 1.055-.182 1.4-.546.345-.373.518-.887.518-1.54v-3.878c0-.093.028-.168.084-.224a.324.324 0 0 1 .238-.098h.7a.28.28 0 0 1 .224.098c.056.056.084.13.084.224v6.636a.353.353 0 0 1-.084.238.303.303 0 0 1-.224.084h-.658a.353.353 0 0 1-.238-.084.353.353 0 0 1-.084-.238v-.616a2.64 2.64 0 0 1-.952.812c-.373.177-.835.266-1.386.266zM37.69 35c-1.474 0-2.212-.821-2.212-2.464V28.84h-1.091a.353.353 0 0 1-.238-.084.353.353 0 0 1-.084-.238v-.476a.3.3 0 0 1 .084-.224.324.324 0 0 1 .238-.098h1.092v-2.338c0-.093.028-.168.084-.224a.324.324 0 0 1 .237-.098h.658a.28.28 0 0 1 .224.098.28.28 0 0 1 .099.224v2.338h1.736a.28.28 0 0 1 .224.098.28.28 0 0 1 .098.224v.476a.324.324 0 0 1-.099.238.303.303 0 0 1-.224.084H36.78v3.598c0 .467.08.821.239 1.064.158.233.42.35.783.35h.855a.28.28 0 0 1 .224.098.28.28 0 0 1 .098.224v.504a.324.324 0 0 1-.098.238.303.303 0 0 1-.224.084h-.967zm3.965.14c-.457 0-.882-.093-1.274-.28a2.44 2.44 0 0 1-.938-.756 1.866 1.866 0 0 1-.336-1.078c0-.616.252-1.12.756-1.512.513-.401 1.204-.663 2.072-.784l2.086-.294v-.406c0-.952-.546-1.428-1.638-1.428-.41 0-.747.089-1.008.266a1.721 1.721 0 0 0-.588.602.38.38 0 0 1-.112.182c-.037.037-.093.056-.168.056h-.602a.334.334 0 0 1-.224-.084.334.334 0 0 1-.084-.224c.01-.224.112-.476.308-.756.205-.29.518-.537.938-.742.42-.215.938-.322 1.554-.322 1.045 0 1.797.247 2.254.742.457.485.686 1.092.686 1.82v4.536a.324.324 0 0 1-.098.238.303.303 0 0 1-.224.084h-.644a.353.353 0 0 1-.238-.084.353.353 0 0 1-.084-.238v-.602c-.205.299-.504.55-.896.756-.392.205-.891.308-1.498.308zm.294-1.05c.607 0 1.101-.196 1.484-.588.392-.401.588-.975.588-1.722v-.392l-1.624.238c-.663.093-1.162.252-1.498.476-.336.215-.504.49-.504.826 0 .373.154.663.462.868.308.196.672.294 1.092.294zm9.989.91c-1.475 0-2.212-.821-2.212-2.464V28.84h-1.092a.353.353 0 0 1-.238-.084.353.353 0 0 1-.084-.238v-.476c0-.093.028-.168.084-.224a.324.324 0 0 1 .238-.098h1.092v-2.338c0-.093.028-.168.084-.224a.324.324 0 0 1 .238-.098h.658a.28.28 0 0 1 .224.098.28.28 0 0 1 .098.224v2.338h1.736a.28.28 0 0 1 .224.098.28.28 0 0 1 .098.224v.476a.324.324 0 0 1-.098.238.303.303 0 0 1-.224.084h-1.736v3.598c0 .467.08.821.238 1.064.159.233.42.35.784.35h.854a.28.28 0 0 1 .224.098.28.28 0 0 1 .098.224v.504a.324.324 0 0 1-.098.238.303.303 0 0 1-.224.084h-.966zm4.65.14c-.886 0-1.572-.285-2.057-.854-.486-.579-.728-1.344-.728-2.296v-3.948a.3.3 0 0 1 .084-.224.324.324 0 0 1 .238-.098h.7a.28.28 0 0 1 .224.098.28.28 0 0 1 .098.224v3.878c0 1.39.606 2.086 1.82 2.086.587 0 1.054-.182 1.4-.546.345-.373.517-.887.517-1.54v-3.878c0-.093.029-.168.084-.224a.324.324 0 0 1 .239-.098h.7a.28.28 0 0 1 .224.098c.056.056.084.13.084.224v6.636a.353.353 0 0 1-.084.238.303.303 0 0 1-.224.084h-.659a.353.353 0 0 1-.238-.084.353.353 0 0 1-.084-.238v-.616a2.64 2.64 0 0 1-.952.812c-.373.177-.835.266-1.386.266zm10.414 0c-.971 0-1.704-.317-2.198-.952-.495-.635-.756-1.437-.784-2.408l-.014-.42.014-.42c.028-.961.289-1.76.784-2.394.494-.644 1.227-.966 2.198-.966.961 0 1.717.34 2.268 1.022v-3.22c0-.093.028-.168.084-.224a.324.324 0 0 1 .238-.098h.672a.28.28 0 0 1 .224.098.28.28 0 0 1 .098.224v9.296a.324.324 0 0 1-.098.238.303.303 0 0 1-.224.084h-.63a.353.353 0 0 1-.238-.084.353.353 0 0 1-.084-.238v-.588c-.542.7-1.312 1.05-2.31 1.05zm.294-1.134c.644 0 1.124-.21 1.442-.63.326-.43.504-.938.532-1.526a6.99 6.99 0 0 0 .014-.532 7.04 7.04 0 0 0-.014-.546 2.339 2.339 0 0 0-.532-1.442c-.336-.41-.817-.616-1.442-.616-.663 0-1.148.205-1.456.616-.299.41-.462.952-.49 1.624l-.014.406c0 1.764.653 2.646 1.96 2.646zm5.002.994a.353.353 0 0 1-.238-.084.353.353 0 0 1-.084-.238v-6.636c0-.093.028-.168.084-.224a.324.324 0 0 1 .238-.098h.672a.28.28 0 0 1 .224.098.28.28 0 0 1 .098.224v6.636a.324.324 0 0 1-.098.238.303.303 0 0 1-.224.084h-.672zm-.07-8.33c-.15 0-.224-.075-.224-.224 0-.075.023-.135.07-.182l1.05-1.26c.093-.103.168-.173.224-.21a.608.608 0 0 1 .294-.056h.952c.084 0 .149.028.196.084.046.047.07.112.07.196a.23.23 0 0 1-.07.168l-1.624 1.33a.57.57 0 0 1-.21.126.939.939 0 0 1-.252.028h-.476zm4.476 8.47c-.457 0-.882-.093-1.274-.28a2.44 2.44 0 0 1-.938-.756 1.866 1.866 0 0 1-.336-1.078c0-.616.252-1.12.756-1.512.513-.401 1.204-.663 2.072-.784l2.086-.294v-.406c0-.952-.546-1.428-1.638-1.428-.41 0-.747.089-1.008.266a1.72 1.72 0 0 0-.588.602.381.381 0 0 1-.112.182c-.037.037-.093.056-.168.056h-.602a.334.334 0 0 1-.224-.084.334.334 0 0 1-.084-.224c.01-.224.112-.476.308-.756.205-.29.518-.537.938-.742.42-.215.938-.322 1.554-.322 1.045 0 1.797.247 2.254.742.457.485.686 1.092.686 1.82v4.536a.324.324 0 0 1-.098.238.303.303 0 0 1-.224.084h-.644a.353.353 0 0 1-.238-.084.353.353 0 0 1-.084-.238v-.602c-.205.299-.504.55-.896.756-.392.205-.891.308-1.498.308zm.294-1.05c.607 0 1.101-.196 1.484-.588.392-.401.588-.975.588-1.722v-.392l-1.624.238c-.663.093-1.162.252-1.498.476-.336.215-.504.49-.504.826 0 .373.154.663.462.868.308.196.672.294 1.092.294z"/>
  </defs>
</svg>
