<svg xmlns="http://www.w3.org/2000/svg" xmlns:xlink="http://www.w3.org/1999/xlink" viewBox="0 0 40 40">
  <g transform="translate(-22 -1899)">
    <mask id="a">
      <use fill="#FFF" transform="translate(22.06 1899.28)" xlink:href="#path0_fill"/>
    </mask>
    <g mask="url(#a)">
      <use fill="#FFF" transform="translate(22 1899.28)" xlink:href="#path1_fill"/>
    </g>
  </g>
  <defs>
    <path id="path0_fill" fill-rule="evenodd" d="M19.831 0H0v39.723h39.663V0H19.832z"/>
    <path id="path1_fill" fill-rule="evenodd" d="M19.859 0C8.91 0 0 8.911 0 19.86c0 10.953 8.91 19.863 19.859 19.863 10.953 0 19.864-8.91 19.864-19.863C39.723 8.911 30.812 0 19.859 0zm4.942 20.559H21.57v11.52h-4.789v-11.52h-2.277v-4.07h2.277v-2.633c0-1.883.895-4.832 4.832-4.832l3.547.015v3.95h-2.574c-.422 0-1.016.211-1.016 1.109v2.395h3.649l-.418 4.066z"/>
  </defs>
</svg>
