<svg xmlns="http://www.w3.org/2000/svg" xmlns:xlink="http://www.w3.org/1999/xlink" viewBox="0 0 130 123">
  <use fill="#0AA6FE" transform="translate(0 1.5)" xlink:href="#path0_fill"/>
  <g transform="translate(-21 -626)">
    <mask id="a">
      <use fill="#FFF" transform="translate(21 627.5)" xlink:href="#path1_fill"/>
    </mask>
    <g mask="url(#a)">
      <use fill="#0AA6FE" transform="translate(-263 -1373.5)" xlink:href="#path2_fill"/>
    </g>
    <g mask="url(#a)">
      <use fill="#0AA6FE" transform="translate(16 622.5)" xlink:href="#path3_fill"/>
    </g>
  </g>
  <g transform="translate(-21 -626)">
    <mask id="b">
      <use fill="#FFF" transform="translate(25 627.5)" xlink:href="#path4_fill"/>
    </mask>
    <g mask="url(#b)">
      <use fill="#1A285C" transform="translate(20 622.5)" xlink:href="#path5_stroke"/>
    </g>
    <g mask="url(#b)">
      <use fill="#1A285C" transform="translate(-259 -1373.5)" xlink:href="#path6_stroke"/>
    </g>
  </g>
  <use fill="#1A285C" transform="translate(4 1.5)" xlink:href="#path7_stroke"/>
  <use fill="#FFF" transform="translate(39.5 24.5)" xlink:href="#path8_fill"/>
  <use fill="#1A285C" transform="translate(36.5 27.5)" xlink:href="#path9_stroke"/>
  <use fill="#1A285C" transform="translate(53 37.5)" xlink:href="#path10_stroke"/>
  <use fill="#1A285C" transform="translate(48 73)" xlink:href="#path11_stroke"/>
  <use fill="#1A285C" transform="translate(48 81)" xlink:href="#path11_stroke"/>
  <use fill="#1A285C" transform="translate(48 89)" xlink:href="#path11_stroke"/>
  <use fill="#1A285C" transform="translate(61.5 46)" xlink:href="#path12_stroke"/>
  <use fill="#1A285C" transform="translate(61.5 46)" xlink:href="#path13_stroke"/>
  <defs>
    <path id="path0_fill" fill-rule="evenodd" d="M62.5 120c34.518 0 62.5-26.863 62.5-60S97.018 0 62.5 0 0 26.863 0 60s27.982 60 62.5 60z"/>
    <path id="path1_fill" fill-rule="evenodd" d="M0 60c0 33.136 27.982 60 62.5 60S125 93.136 125 60c0-33.137-27.982-60-62.5-60S0 26.863 0 60z"/>
    <path id="path2_fill" fill-rule="evenodd" d="M0 3526h1440V0H0v3526z"/>
    <path id="path3_fill" fill-rule="evenodd" d="M0 130h135V0H0v130z"/>
    <path id="path4_fill" fill-rule="evenodd" d="M0 60c0 33.136 27.983 60 62.5 60 34.517 0 62.5-26.864 62.5-60 0-33.137-27.983-60-62.5-60C27.983 0 0 26.863 0 60z"/>
    <path id="path5_stroke" d="M0 130h-.5v.5H0v-.5zm135 0v.5h.5v-.5h-.5zm0-130h.5v-.5h-.5V0zM0 0v-.5h-.5V0H0zm0 130.5h135v-1H0v1zm135.5-.5V0h-1v130h1zM135-.5H0v1h135v-1zM-.5 0v130h1V0h-1z"/>
    <path id="path6_stroke" d="M0 3526h-.5v.5H0v-.5zm1440 0v.5h.5v-.5h-.5zm0-3526h.5v-.5h-.5V0zM0 0v-.5h-.5V0H0zm0 3526.5h1440v-1H0v1zm1440.5-.5V0h-1v3526h1zM1440-.5H0v1h1440v-1zM-.5 0v3526h1V0h-1z"/>
    <path id="path7_stroke" d="M62.5 121c35.031 0 63.5-27.273 63.5-61h-2c0 32.547-27.495 59-61.5 59v2zM126 60c0-33.727-28.469-61-63.5-61v2C96.505 1 124 27.453 124 60h2zM62.5-1C27.469-1-1 26.273-1 60h2C1 27.453 28.495 1 62.5 1v-2zM-1 60c0 33.727 28.469 61 63.5 61v-2C28.495 119 1 92.547 1 60h-2z"/>
    <path id="path8_fill" fill-rule="evenodd" d="M52.529 73.5H2.471A2.471 2.471 0 0 1 0 71.028V2.472A2.471 2.471 0 0 1 2.471 0h50.058A2.47 2.47 0 0 1 55 2.472v68.556a2.47 2.47 0 0 1-2.471 2.472z"/>
    <path id="path9_stroke" d="M52.529 72.25H2.471v2.5h50.058v-2.5zm-50.058 0a1.221 1.221 0 0 1-1.221-1.222h-2.5a3.721 3.721 0 0 0 3.721 3.722v-2.5zM1.25 71.028V2.472h-2.5v68.556h2.5zm0-68.556c0-.676.547-1.222 1.221-1.222v-2.5A3.721 3.721 0 0 0-1.25 2.472h2.5zM2.471 1.25h50.058v-2.5H2.471v2.5zm50.058 0a1.22 1.22 0 0 1 1.221 1.222h2.5a3.72 3.72 0 0 0-3.721-3.722v2.5zm1.221 1.222v68.556h2.5V2.472h-2.5zm0 68.556a1.22 1.22 0 0 1-1.221 1.222v2.5a3.72 3.72 0 0 0 3.721-3.722h-2.5z"/>
    <path id="path10_stroke" d="M24.75 13c0 6.49-5.26 11.75-11.75 11.75v2.5c7.87 0 14.25-6.38 14.25-14.25h-2.5zM13 24.75C6.51 24.75 1.25 19.49 1.25 13h-2.5c0 7.87 6.38 14.25 14.25 14.25v-2.5zM1.25 13C1.25 6.51 6.51 1.25 13 1.25v-2.5C5.13-1.25-1.25 5.13-1.25 13h2.5zM13 1.25c6.49 0 11.75 5.26 11.75 11.75h2.5c0-7.87-6.38-14.25-14.25-14.25v2.5z"/>
    <path id="path11_stroke" d="M0 1.25h34.5v-2.5H0v2.5z"/>
    <path id="path12_stroke" d="M-.884.884l9.5 9.5 1.768-1.768-9.5-9.5L-.884.884z"/>
    <path id="path13_stroke" d="M8.616-.884l-9.5 9.5 1.768 1.768 9.5-9.5L8.616-.884z"/>
  </defs>
</svg>
