<svg xmlns="http://www.w3.org/2000/svg" xmlns:xlink="http://www.w3.org/1999/xlink" viewBox="0 0 130 123">
  <use fill="#0AA6FE" transform="translate(0 1.5)" xlink:href="#path0_fill"/>
  <g transform="translate(-25 -804)">
    <mask id="a">
      <use fill="#FFF" transform="translate(24.999 805.5)" xlink:href="#path1_fill"/>
    </mask>
    <g mask="url(#a)">
      <use fill="#0AA6FE" transform="translate(-259 -1195.5)" xlink:href="#path2_fill"/>
    </g>
    <g mask="url(#a)">
      <use fill="#0AA6FE" transform="translate(20 800.5)" xlink:href="#path3_fill"/>
    </g>
  </g>
  <g transform="translate(-25 -804)">
    <mask id="b">
      <use fill="#FFF" transform="translate(29 805.5)" xlink:href="#path4_fill"/>
    </mask>
    <g mask="url(#b)">
      <use fill="#1A285C" transform="translate(24 800.5)" xlink:href="#path5_stroke"/>
    </g>
    <g mask="url(#b)">
      <use fill="#1A285C" transform="translate(-255 -1195.5)" xlink:href="#path6_stroke"/>
    </g>
  </g>
  <use fill="#1A285C" transform="translate(4 1.5)" xlink:href="#path7_stroke"/>
  <use fill="#FFF" transform="translate(41.962 53.989)" xlink:href="#path8_fill"/>
  <use fill="#FFF" transform="translate(50.352 22.831)" xlink:href="#path9_fill"/>
  <use fill="#1A285C" transform="translate(37.448 52.018)" xlink:href="#path10_fill"/>
  <use fill="#1A285C" transform="translate(47.68 21.923)" xlink:href="#path11_fill"/>
  <use fill="#1A285C" transform="translate(59.6 64.056)" xlink:href="#path12_fill"/>
  <defs>
    <path id="path0_fill" fill-rule="evenodd" d="M62.5 120c34.518 0 62.5-26.863 62.5-60S97.018 0 62.5 0 0 26.863 0 60s27.982 60 62.5 60z"/>
    <path id="path1_fill" fill-rule="evenodd" d="M0 60c0 33.136 27.983 60 62.501 60s62.5-26.864 62.5-60c0-33.137-27.982-60-62.5-60S0 26.863 0 60z"/>
    <path id="path2_fill" fill-rule="evenodd" d="M0 3526h1440V0H0v3526z"/>
    <path id="path3_fill" fill-rule="evenodd" d="M0 130h135V0H0v130z"/>
    <path id="path4_fill" fill-rule="evenodd" d="M0 60c0 33.136 27.982 60 62.5 60S125 93.136 125 60c0-33.137-27.982-60-62.5-60S0 26.863 0 60z"/>
    <path id="path5_stroke" d="M0 130h-.5v.5H0v-.5zm135 0v.5h.5v-.5h-.5zm0-130h.5v-.5h-.5V0zM0 0v-.5h-.5V0H0zm0 130.5h135v-1H0v1zm135.5-.5V0h-1v130h1zM135-.5H0v1h135v-1zM-.5 0v130h1V0h-1z"/>
    <path id="path6_stroke" d="M0 3526h-.5v.5H0v-.5zm1440 0v.5h.5v-.5h-.5zm0-3526h.5v-.5h-.5V0zM0 0v-.5h-.5V0H0zm0 3526.5h1440v-1H0v1zm1440.5-.5V0h-1v3526h1zM1440-.5H0v1h1440v-1zM-.5 0v3526h1V0h-1z"/>
    <path id="path7_stroke" d="M62.5 121c35.031 0 63.5-27.273 63.5-61h-2c0 32.547-27.495 59-61.5 59v2zM126 60c0-33.727-28.469-61-63.5-61v2C96.505 1 124 27.453 124 60h2zM62.5-1C27.469-1-1 26.273-1 60h2C1 27.453 28.495 1 62.5 1v-2zM-1 60c0 33.727 28.469 61 63.5 61v-2C28.495 119 1 92.547 1 60h-2z"/>
    <path id="path8_fill" fill-rule="evenodd" d="M50.902 39.774H4.726A4.726 4.726 0 0 1 0 35.047V4.951A4.95 4.95 0 0 1 4.95 0h42.728a4.95 4.95 0 0 1 4.95 4.951v33.096c0 .954-.773 1.727-1.726 1.727z"/>
    <path id="path9_fill" fill-rule="evenodd" d="M17.182 0C7.693 0 0 7.693 0 17.183v11.811h34.364V17.183C34.364 7.693 26.672 0 17.182 0z"/>
    <path id="path10_fill" fill-rule="evenodd" d="M6.019 2.408a3.615 3.615 0 0 0-3.611 3.611v33.706a3.616 3.616 0 0 0 3.611 3.613h43.337a3.616 3.616 0 0 0 3.612-3.613V6.019a3.615 3.615 0 0 0-3.612-3.611H6.019zm43.337 43.337H6.019A6.025 6.025 0 0 1 0 39.725V6.019C0 2.699 2.7 0 6.019 0h43.337a6.025 6.025 0 0 1 6.019 6.019v33.706c0 3.321-2.7 6.02-6.019 6.02z"/>
    <path id="path11_fill" fill-rule="evenodd" d="M36.114 31.299h-2.103v-1.204h-.304V18.057c0-8.629-7.021-15.65-15.65-15.65-8.629 0-15.65 7.021-15.65 15.65l-.035 13.242H0V18.057C0 8.1 8.1 0 18.057 0c9.957 0 18.057 8.1 18.057 18.057v13.242z"/>
    <path id="path12_fill" fill-rule="evenodd" d="M5.537 2.408a3.133 3.133 0 0 0-3.13 3.129v5.779a3.133 3.133 0 0 0 3.13 3.13 3.133 3.133 0 0 0 3.13-3.13V5.537a3.133 3.133 0 0 0-3.13-3.129zm0 14.445A5.542 5.542 0 0 1 0 11.316V5.537A5.543 5.543 0 0 1 5.537 0a5.543 5.543 0 0 1 5.538 5.537v5.779a5.542 5.542 0 0 1-5.538 5.537z"/>
  </defs>
</svg>
