<svg xmlns="http://www.w3.org/2000/svg" xmlns:xlink="http://www.w3.org/1999/xlink" viewBox="0 0 105 38">
  <g transform="translate(122 1348)">
    <mask id="a">
      <use fill="#FFF" transform="translate(-70.501 -1338.37)" xlink:href="#path0_fill"/>
    </mask>
    <g mask="url(#a)">
      <use fill="#424E66" transform="translate(-72.767 -1340.48)" xlink:href="#path1_fill"/>
    </g>
    <mask id="b">
      <use fill="#FFF" transform="translate(-122 -1348)" xlink:href="#path2_fill"/>
    </mask>
    <g mask="url(#b)">
      <use fill="#00A8FF" transform="translate(-124.019 -1350)" xlink:href="#path3_fill"/>
    </g>
  </g>
  <defs>
    <path id="path0_fill" fill-rule="evenodd" d="M24.556 19.081h-1.244a.67.67 0 0 1-.477-.175.578.578 0 0 1-.188-.443v-1.21a5.429 5.429 0 0 1-1.966 1.573c-.752.349-1.706.523-2.863.523-1.83 0-3.248-.55-4.25-1.652-1.002-1.102-1.504-2.567-1.504-4.394V5.725a.58.58 0 0 1 .188-.444.672.672 0 0 1 .477-.175h1.33c.193 0 .352.058.478.175a.579.579 0 0 1 .188.444v7.443c0 2.724 1.272 4.085 3.816 4.085 1.234 0 2.212-.362 2.935-1.088.723-.725 1.084-1.724 1.084-2.997V5.725c0-.18.063-.328.189-.444a.67.67 0 0 1 .476-.175h1.33a.67.67 0 0 1 .477.175.578.578 0 0 1 .189.444v12.738a.576.576 0 0 1-.189.443.67.67 0 0 1-.476.175zm18.65-10.185h-1.129a.633.633 0 0 1-.447-.175.548.548 0 0 1-.188-.417c0-.412.207-.89.622-1.438.414-.546 1.055-1.02 1.922-1.424.868-.403 1.928-.604 3.18-.604 2.16 0 3.706.465 4.642 1.397.934.931 1.402 2.096 1.402 3.493v8.735a.575.575 0 0 1-.188.443.672.672 0 0 1-.477.175h-1.272a.62.62 0 0 1-.463-.175.601.601 0 0 1-.173-.443V17.28c-.425.592-1.042 1.084-1.85 1.479-.81.394-1.852.59-3.124.59a6.33 6.33 0 0 1-2.616-.537c-.8-.358-1.437-.846-1.91-1.465a3.31 3.31 0 0 1-.707-2.056c0-1.182.52-2.15 1.561-2.902 1.04-.752 2.458-1.254 4.25-1.505l4.338-.564v-.78c0-1.845-1.147-2.768-3.441-2.768-.887 0-1.6.166-2.14.498-.54.331-.934.72-1.185 1.169-.077.179-.159.3-.246.363a.607.607 0 0 1-.361.094zM10.185 19.08H.636a.622.622 0 0 1-.463-.175.603.603 0 0 1-.173-.443V.887C0 .707.058.56.173.443A.623.623 0 0 1 .636.27h1.446c.193 0 .347.058.462.174a.603.603 0 0 1 .174.444v15.936h7.467c.212 0 .38.058.506.175a.579.579 0 0 1 .188.444v1.02a.56.56 0 0 1-.202.444.725.725 0 0 1-.492.175zm19.864 0h-1.243a.67.67 0 0 1-.477-.175.578.578 0 0 1-.188-.443V.618c0-.197.063-.35.188-.457A.706.706 0 0 1 28.806 0h1.243c.193 0 .352.059.477.175a.578.578 0 0 1 .189.443v9.38l5.783-4.435c.289-.197.491-.322.606-.376.117-.054.299-.08.55-.08H39.1c.173 0 .313.048.42.147.105.099.158.237.158.417 0 .161-.106.33-.318.51l-6.766 5.16 7.489 6.665c.212.197.318.367.318.51a.551.551 0 0 1-.16.404.563.563 0 0 1-.418.161h-1.417c-.29 0-.497-.027-.622-.081-.125-.053-.304-.18-.535-.376l-6.534-5.751v5.59a.576.576 0 0 1-.189.443.67.67 0 0 1-.477.175zm19.316-2.849c.809-.77 1.214-1.89 1.214-3.359v-.752l-3.383.457c-1.388.179-2.439.483-3.152.913-.713.43-1.07.968-1.07 1.613 0 .734.323 1.298.97 1.692.645.395 1.41.592 2.298.592 1.272 0 2.313-.385 3.123-1.156z"/>
    <path id="path1_fill" fill-rule="evenodd" d="M0 0h57.74v23.565H0V0z"/>
    <path id="path2_fill" fill-rule="evenodd" d="M13.896 19.154a.328.328 0 0 0 .107-.24.328.328 0 0 0-.107-.24l-7.745-7.198a.38.38 0 0 0-.258-.1.38.38 0 0 0-.258.1l-1.549 1.44a.322.322 0 0 0 0 .48l5.421 5.038c.137.127.214.3.214.48s-.077.352-.214.48L2.28 26.112a.77.77 0 0 1-1.033 0l-1.032-.96a.645.645 0 0 1 0-.96l5.421-5.038a.323.323 0 0 0 0-.48L.214 13.635a.645.645 0 0 1 0-.96l5.163-4.798a.77.77 0 0 1 1.033 0l11.358 10.557a.645.645 0 0 1 0 .96L6.41 29.95a.77.77 0 0 1-1.033 0l-1.033-.96a.655.655 0 0 1-.214-.48c0-.18.077-.352.214-.48l9.552-8.877zm6.712 5.758a.38.38 0 0 0-.258-.1.38.38 0 0 0-.258.1l-7.745 7.198a.328.328 0 0 0-.107.24c0 .09.039.176.107.24l1.549 1.44a.385.385 0 0 0 .516 0l5.421-5.039a.76.76 0 0 1 .517-.199.76.76 0 0 1 .516.2l7.229 6.717a.645.645 0 0 1 0 .96l-1.033.96a.77.77 0 0 1-1.033 0l-5.421-5.04a.385.385 0 0 0-.516 0l-5.421 5.04a.77.77 0 0 1-1.033 0L8.475 32.83a.645.645 0 0 1 0-.96l11.359-10.557a.77.77 0 0 1 1.032 0L32.225 31.87a.645.645 0 0 1 0 .96l-1.033.96a.759.759 0 0 1-.516.199.759.759 0 0 1-.516-.199l-9.552-8.878zm6.196-6.238a.328.328 0 0 0-.107.24c0 .09.038.176.107.24l7.744 7.198a.38.38 0 0 0 .258.099.38.38 0 0 0 .259-.099l1.549-1.44a.322.322 0 0 0 0-.48l-5.422-5.038a.655.655 0 0 1-.214-.48c0-.18.077-.353.214-.48l7.229-6.718a.77.77 0 0 1 1.032 0l1.033.96a.645.645 0 0 1 0 .96C39.22 14.81 36 17.804 35.065 18.673a.323.323 0 0 0 0 .48l5.42 5.038a.645.645 0 0 1 0 .96l-5.162 4.799a.77.77 0 0 1-1.033 0L22.931 19.394a.645.645 0 0 1 0-.96c2.016-1.874 9.343-8.684 11.36-10.557a.77.77 0 0 1 1.032 0l1.032.96c.137.127.214.3.214.48s-.077.352-.214.48l-9.551 8.877zm-6.712-5.759a.38.38 0 0 0 .258.1.38.38 0 0 0 .258-.1l7.745-7.198a.328.328 0 0 0 .107-.24.327.327 0 0 0-.107-.24l-1.55-1.44a.385.385 0 0 0-.516 0l-5.42 5.04a.76.76 0 0 1-.517.198.759.759 0 0 1-.517-.199l-7.228-6.718a.645.645 0 0 1 0-.96l1.033-.96a.77.77 0 0 1 1.033 0c1.265 1.177 4.486 4.17 5.42 5.04a.385.385 0 0 0 .517 0l5.421-5.04a.77.77 0 0 1 1.033 0l5.163 4.8a.645.645 0 0 1 0 .96L20.866 16.513a.77.77 0 0 1-1.032 0L8.474 5.957a.645.645 0 0 1 0-.96l1.033-.96a.759.759 0 0 1 .517-.198c.193 0 .38.071.516.199l9.552 8.877z"/>
    <path id="path3_fill" fill-rule="evenodd" d="M0 0h45.23v42.043H0V0z"/>
  </defs>
</svg>
