<svg xmlns="http://www.w3.org/2000/svg" xmlns:xlink="http://www.w3.org/1999/xlink" viewBox="0 0 536 234">
  <use fill="#F0EDED" transform="scale(-1 1) rotate(8 19.451 -3677.18)" xlink:href="#path0_fill"/>
  <use fill="#FFF" transform="translate(77.803 10.415)" xlink:href="#path1_fill"/>
  <use fill="#D0DADD" transform="translate(77.803 62.528)" xlink:href="#path2_fill"/>
  <use fill="#FFF" transform="translate(74.755 70.544)" xlink:href="#path3_fill"/>
  <use fill="#FFF" transform="translate(74.755 79.23)" xlink:href="#path3_fill"/>
  <use fill="#1A285C" transform="translate(74.755 87.915)" xlink:href="#path3_fill"/>
  <use fill="#1A285C" transform="translate(89.324 48.326)" xlink:href="#path4_fill"/>
  <use fill="#1A285C" transform="translate(117.934 39.691)" xlink:href="#path5_fill"/>
  <use fill="#1A285C" transform="translate(146.67 31.057)" xlink:href="#path6_fill"/>
  <use fill="#1A285C" transform="translate(233.525 5)" xlink:href="#path7_fill"/>
  <use fill="#1A285C" transform="translate(176.995 22.32)" xlink:href="#path8_fill"/>
  <use fill="#1A285C" transform="translate(205.731 13.686)" xlink:href="#path9_fill"/>
  <use fill="#1A285C" transform="translate(139.6 72.344)" xlink:href="#path10_fill"/>
  <use fill="#1A285C" transform="translate(152.127 69.573)" xlink:href="#path11_fill"/>
  <use fill="#1A285C" transform="translate(161.394 66.366)" xlink:href="#path12_fill"/>
  <use fill="#1A285C" transform="translate(171.341 63.951)" xlink:href="#path13_fill"/>
  <use fill="#1A285C" transform="translate(177.952 60.844)" xlink:href="#path14_fill"/>
  <use fill="#1A285C" transform="translate(187.31 55.327)" xlink:href="#path15_fill"/>
  <use fill="#1A285C" transform="translate(199.584 53.271)" xlink:href="#path16_fill"/>
  <use fill="#1A285C" transform="translate(205.867 50.834)" xlink:href="#path17_fill"/>
  <use fill="#1A285C" transform="translate(217.728 43.557)" xlink:href="#path18_fill"/>
  <use fill="#1A285C" transform="translate(224.366 41.067)" xlink:href="#path19_fill"/>
  <use fill="#1A285C" transform="translate(232.427 41.558)" xlink:href="#path20_fill"/>
  <use fill="#1A285C" transform="translate(238.711 39.12)" xlink:href="#path21_fill"/>
  <use fill="#1A285C" transform="translate(248.108 34.94)" xlink:href="#path22_fill"/>
  <use fill="#1A285C" transform="translate(256.087 33.118)" xlink:href="#path23_fill"/>
  <use fill="#1A285C" transform="translate(262.462 30.7)" xlink:href="#path24_fill"/>
  <use fill="#1A285C" transform="translate(164.442 87.243)" xlink:href="#path25_fill"/>
  <use fill="#1A285C" transform="translate(193.973 102.877)" xlink:href="#path26_fill"/>
  <use fill="#1A285C" transform="translate(223.504 116.775)" xlink:href="#path27_fill"/>
  <use fill="#1A285C" transform="translate(193.465 51.576)" xlink:href="#path28_fill"/>
  <use fill="#1A285C" transform="translate(219.132 66.613)" xlink:href="#path29_fill"/>
  <use fill="#1A285C" transform="translate(250.73 81.637)" xlink:href="#path30_fill"/>
  <use fill="#1A285C" transform="translate(174.213 83.237)" xlink:href="#path31_fill"/>
  <use fill="#1A285C" transform="translate(202.006 98.87)" xlink:href="#path32_fill"/>
  <use fill="#1A285C" transform="translate(231.537 112.768)" xlink:href="#path33_fill"/>
  <use fill="#1A285C" transform="translate(249.561 134.146)" xlink:href="#path27_fill"/>
  <use fill="#1A285C" transform="translate(276.787 99.008)" xlink:href="#path34_fill"/>
  <use fill="#1A285C" transform="translate(257.594 130.139)" xlink:href="#path31_fill"/>
  <use fill="#8E95F8" transform="translate(241.825 214.392)" xlink:href="#path35_fill"/>
  <use fill="#00A8FF" transform="translate(19.473 126.673)" xlink:href="#path36_fill"/>
  <use fill="#1A285C" transform="translate(237.245 216.048)" xlink:href="#path37_fill"/>
  <use fill="#1A285C" transform="translate(69.293 145.749)" xlink:href="#path38_fill"/>
  <use fill="#1A285C" transform="translate(13 126.049)" xlink:href="#path39_fill"/>
  <use fill="#1A285C" transform="translate(24.566 125.372)" xlink:href="#path40_fill"/>
  <use fill="#1A285C" transform="translate(65.431 160.271)" xlink:href="#path41_fill"/>
  <defs>
    <path id="path0_fill" fill-rule="evenodd" d="M240.588 6.21C302.44-8.204 344.81 5.275 380.627 18.266c35.817 12.992 106.148 23.693 126.854 26.666 20.707 2.973 28.381 39.022 0 45.227-28.38 6.205-18.316 45.339 0 48.417 18.317 3.079 35.981 65.233-38.224 69.629-74.205 4.396-198.017 4.428-286.104 12.209-88.086 7.781-97.25 12.209-132.733 0-35.482-12.209-90.095-67.793-5.817-89.577 84.278-21.784 18.42-9.53 10.708-29.273-7.713-19.743 123.424-80.94 185.277-95.354z"/>
    <path id="path1_fill" fill-rule="evenodd" d="M189.345 0l203.242 99.016S204.979 168.5 203.242 170.237C201.505 171.975 0 50.376 0 50.376L189.345 0z"/>
    <path id="path2_fill" fill-rule="evenodd" d="M392.587 48.64s-187.608 69.484-189.345 71.222C201.504 121.598 0 0 0 0v33.874l200.636 121.598 189.346-74.696 2.605-32.136z"/>
    <path id="path3_fill" fill-rule="evenodd" d="M205.425 121.345a9.062 9.062 0 0 1-4.615-1.267L0 1.496.884 0l200.81 118.582a7.326 7.326 0 0 0 6.296.563l189.949-70.513.604 1.629-189.949 70.513a9.107 9.107 0 0 1-3.169.571z"/>
    <path id="path4_fill" fill-rule="evenodd" d="M21.297 13.334H19.56c0-7.551-5.107-11.55-10.152-11.597h-.083c-3.719 0-7.488 2.358-7.589 7.656L0 9.359C.121 2.916 4.902 0 9.33 0h.095c5.899.056 11.872 4.653 11.872 13.334z"/>
    <path id="path5_fill" fill-rule="evenodd" d="M21.297 13.334H19.56c0-7.551-5.107-11.55-10.152-11.597h-.084c-3.718 0-7.487 2.358-7.588 7.656L0 9.359C.121 2.916 4.902 0 9.33 0h.094c5.9.056 11.873 4.653 11.873 13.334z"/>
    <path id="path6_fill" fill-rule="evenodd" d="M21.297 13.334H19.56c0-7.551-5.107-11.549-10.152-11.597h-.084c-3.718 0-7.487 2.358-7.588 7.656L0 9.359C.121 2.916 4.902 0 9.33 0h.094c5.9.056 11.873 4.653 11.873 13.334z"/>
    <path id="path7_fill" fill-rule="evenodd" d="M21.297 13.334H19.56c0-7.551-5.107-11.55-10.152-11.597h-.083c-3.719 0-7.488 2.358-7.588 7.656L0 9.359C.121 2.916 4.902 0 9.33 0h.095c5.899.056 11.872 4.653 11.872 13.334z"/>
    <path id="path8_fill" fill-rule="evenodd" d="M21.298 13.334h-1.737c0-7.551-5.107-11.55-10.153-11.597h-.083c-3.718 0-7.487 2.358-7.588 7.656L0 9.359C.122 2.916 4.903 0 9.331 0h.094c5.9.056 11.873 4.653 11.873 13.334z"/>
    <path id="path9_fill" fill-rule="evenodd" d="M21.297 13.334H19.56c0-7.551-5.107-11.55-10.152-11.597h-.083c-3.718 0-7.488 2.358-7.588 7.656L0 9.359C.121 2.916 4.902 0 9.33 0h.095c5.899.056 11.872 4.653 11.872 13.334z"/>
    <path id="path10_fill" fill-rule="evenodd" d="M11.205.677l.119.412-.154.29.12.148a2.477 2.477 0 0 0-.272.2l-.042.029c.024.118-.022.205-.139.256-.056.146-.237.308-.543.487a.613.613 0 0 1-.373.395l-.171.165-.338.12-.122.144-.075.042a.438.438 0 0 1-.137.154l-.112.157-.39.14-.109.182-.644.362a6.529 6.529 0 0 0-.386.17l-.207.308a1.07 1.07 0 0 0-.34.065l-.102.036-.082.086-.193.112-.095.122-.1.066.349.132.116.324.443.327.211.258.153.079c.255-.063.456-.003.606.176.142.175.042.38-.302.619l-.389.272-.87-.234-.6-.385-.355-.431-.472-.202.068-.184-.162-.118-.058-.096a7.363 7.363 0 0 1-.723.184L3.31 5.708l1.222-.51-.094-.116-.015-.169-.316-.506.041-.103-.407-.414-.098-.2-.507-.616v-.339l.02-.036-.044-.027c-.036-.115-.009-.224.083-.326l.361-.144.119-.043c.485-.172.828-.136 1.028.108.082.097.114.261.1.493l.048.058c.093.112.268.204.527.269l-.2.128.234.285-.161.205.215.129.007.221.228.198.033.12.102.097.081-.088.338-.12c.09-.14.238-.252.446-.335l.126-.222a.914.914 0 0 0 .303.024c.094-.081.257-.221.494-.41l.2-.102.178-.211.136-.048-.001-.028.118-.041c.226-.081.39-.2.497-.355l.372-.131-.031-.064.182-.15.034-.147a.88.88 0 0 0 .178-.049l-.007-.248c.032-.048.066-.079.1-.09.034-.013.068-.007.104.019.003-.049.054-.113.152-.186l-.028-.065.071-.097-.056-.096-.207-.117-.221-.056-.154.027-.47-.068-.758.064a8.96 8.96 0 0 0-.995.02l-.181.203-.633-.023-.373.156-.337-.013-.27.096-.311-.006-.067.024a.264.264 0 0 1-.075.042c-.136.048-.3.069-.496.062l-.436.104-.283.136-.378.045-.309.185-.069-.004-.207.146-.24.028.036.045-.405.144-.207.226-.328.163-.329.317-.54-.179A1.252 1.252 0 0 1 0 2.611l.074-.204c-.061-.145-.006-.271.171-.377.173-.11.353-.218.534-.332.046-.017.092-.032.136-.049l.08-.01.128-.03-.017.06.299-.195.051-.019c.034-.011.085-.028.153-.053a.969.969 0 0 1 .376-.046l.677-.242.526-.159L4.194.714l.355.034.2-.129.503-.078.51-.181.122.044.356-.127.519.02.392-.108.149.047c.202-.072.447-.095.731-.07L8.33 0l.322.18.26.023L9.2.1l.399.14.846.018.139.171.621.248z"/>
    <path id="path11_fill" fill-rule="evenodd" d="M4.407 1.346l-.132-.055-.155.024-.756-.095-.367.087-.27.097-.07-.035-.099.094-.19.008-.44.158.09.028-.317.228-.02.082-.043.028c-.108.185-.17.331-.188.437l.105.311.017.129.3.097-.168.251.072.032a.716.716 0 0 0 .16.486l-.04.163.165.203-.053.151.051.113-.03.041.128.16-.003.075c.075.09.122.166.143.226l.08.045.025.27.124.046-.026.154.295.175-.054.223.21.205.028.033.086-.001.076-.041c.026-.06.053-.114.085-.165l-.108-.079.217-.106-.015-.098.544-.899.083-.058-.04-.236c.056-.039.125-.103.211-.193l-.037-.219.133-.048-.209-.175.22-.108a.688.688 0 0 1 .014-.152.975.975 0 0 1 .06-.18l.23-1.079-.007-.219-.054-.041.017-.166-.07-.138.077-.145-.085-.129zM5.528.182l-.045.209.36.224-.082.248.112.267-.006.076.082.046c.086.104.112.198.076.279l-.007.047.04.046a.548.548 0 0 1 .171.127c.031.039.046.067.048.085l.055.04.034.15.163.119-.06.138.181.14.166.044-.076.145.147.181.032.224.233.15-.027.126.234.021-.022.345.011.04.187-.038.097.302.037.048a.567.567 0 0 1 .085.129l.046.03.288-.074.405.146.024.213.177-.076c.142.066.246.13.314.194l-.114.262c-.036.08-.105.173-.209.279l-.203.205-.13-.028-.123.117-.859-.218-.157-.192a2.048 2.048 0 0 1-.445-.381l-.056-.069-.648-.631-.256-.52-.324-.237-.025.421.09.35-.099.094-.03.336-.207.412-.005.179-.196.35.038.178-.353.423-.219.635-.283.162-.127.193a1.291 1.291 0 0 1-.82.012c-.644.015-1.106-.129-1.384-.433l.056-.064-.073-.063-.129-.129-.224-.112-.027-.195-.164-.251-.19-.417a1.16 1.16 0 0 0-.038-.046.229.229 0 0 1-.054-.04.308.308 0 0 1-.059-.126.288.288 0 0 1-.092-.085c-.044-.053-.082-.151-.114-.299l.09-.074c-.098-.016-.166-.044-.203-.09-.026-.031-.045-.053-.056-.069L.52 4.333c-.074-.091-.062-.183.036-.278a.513.513 0 0 1-.002-.294L.395 3.7l.063-.243-.038-.045a.506.506 0 0 1-.106-.475L.13 2.741l.03-.072-.027-.034c-.024-.01-.039-.018-.046-.027C.05 2.562.04 2.516.061 2.47l-.056-.067c-.017-.092.008-.248.076-.467.066-.221.098-.403.097-.548l.13.025.14-.122.067-.052.418-.37 1.338-.42.066.079.453-.086c.258-.094.475-.095.647-.012A.312.312 0 0 1 3.39.347C3.37.323 3.36.308 3.352.301l.531.086.36-.067.523-.32.453.204.31-.022z"/>
    <path id="path12_fill" fill-rule="evenodd" d="M9.013 2.963l.175.48.18.112-.04.06a.593.593 0 0 1 .268.165.268.268 0 0 1 .062.157l.02.022c.073.09.328.48.76 1.165l.142.226.04.048.003.057.018.051.074.061-.022.052.005.085-.068.026.064.05.022.08c.043.053.06.116.046.19l.064.213a.479.479 0 0 1 .018.285c.001.127-.03.311-.096.548l-.168.251-.17.295-.189.17-.12.174-.118.072a1.98 1.98 0 0 1-.637.42l-.112.022-.116.101.02.021a2.583 2.583 0 0 1-.454.221l-.658.235-.453.09-.309.182-.254-.044-.537.147-.507-.085-.327.002c-.546.044-.972-.064-1.276-.329l-.003-.057-.202-.165c.017-.193.078-.314.185-.363a.511.511 0 0 1 .222-.152c.455-.104.798-.193 1.03-.265l.106.183.277.017.112.135-.042.163.91-.12.342-.195.066.08.098-.065.034-.013c.011-.004.09-.02.238-.055l.054.04.12-.118c.1-.093.35-.212.755-.356a.837.837 0 0 0 .096-.149.452.452 0 0 1 .093-.019l.1-.036c.068-.023.098-.092.091-.21.03.021.061.022.095.01a.154.154 0 0 0 .065-.053c.022-.026.037-.042.05-.046l.028-.018.295-.507.034-.348-.105-.154.05-.222-.105-.155-.01-.17-.17-.337-.1-.33a9.608 9.608 0 0 1-.169-.205 1.774 1.774 0 0 1-.309-.535l-.253-.146-.456-.557-.26-.154-.26-.319-.33-.19-.3-.363-.065-.05-.098.063.04.21-.133.237-.032.44-.268.36-.203.5a2.871 2.871 0 0 1-.532.837l-.056.198-.17.192-.169.163-.099.228-.195.186c-.039.094-.135.18-.285.265-.154.202-.388.358-.704.47l-.185.066c-.056.02-.134.05-.235.085a1.09 1.09 0 0 1-.213.06l-.313.097-.67-.125-.555-.17-.33-.19-.49-.41-.205-.355-.147-.446-.136-.114-.136-.405-.017-.258a1.126 1.126 0 0 0-.22-.375l-.01-.597c-.017-.073.015-.168.094-.284l.011-.252.081-.222a.44.44 0 0 1 .056-.357c.066-.06.085-.14.056-.239-.029-.098.12-.247.446-.454l-.073.042.065-.053c.003-.048.02-.152.051-.308l.222-.05.095-.123a.782.782 0 0 1 .445-.365l.118-.042.346-.27.3-.036.304-.108.243.002a.61.61 0 0 1 .354.006l.368.073h.087l.07.032.284.105.063.053.097.195.136.114-.03.303-.45.217-.48-.178-.287.033-.184-.035-.169.058a4.244 4.244 0 0 0-.265.24l.058.096-.424.151c-.02.155-.095.26-.224.316-.044.055-.09.103-.139.152l.042.264-.11.052.066.11-.24.08-.013.317-.122.145.065.186-.058.326.153.241-.09.208.215.556-.06.136.123.12.147.501.162.12.095.142c.14.045.245.111.313.194l.136-.02.107.052c.192-.07.33-.097.411-.089.057-.088.286-.244.688-.465a.384.384 0 0 1 .097-.334c.083-.093.261-.276.532-.55l.06-.007a.208.208 0 0 1-.037-.205c.132-.106.206-.173.23-.2.06-.069.068-.138.031-.202l.233-.143.084-.162.107-.536.156.003c-.009-.025.032-.17.12-.439l.145-.46-.088-.16c.067-.133.027-.432-.123-.895l-.279-.209-.267-.109-.039-.207L4.485.78 4.321.634 4.177.537V.275c.13-.126.235-.205.315-.23.102-.037.265-.053.49-.042l.238.104.314.034.24.237c.09.056.211.144.37.265a.737.737 0 0 1 .28.208l.063.08.09.055.338.115.115.221.176.057c.078.04.141.09.19.15a.474.474 0 0 1 .087.133l.214-.032.081.337.244.19a.701.701 0 0 1 .253.175.54.54 0 0 1 .102.256l.146.021.49.354z"/>
    <path id="path13_fill" fill-rule="evenodd" d="M5.093 1.962l-.064-.05a.55.55 0 0 1-.275-.124l.005-.072-.329-.161-.143-.226-.113-.034c-.211-.022-.338-.056-.387-.095-.126.005-.239-.052-.338-.174l-.112.025L2.95.898 2.732.872l-.43.036-.154.028c-.068.023-.125.025-.173.001l-.132.37.039.393-.255.249.053.145-.124.115.173.317-.146.139a.94.94 0 0 0 .172.319l-.131.263.112.005c.074.092.081.19.025.297.017.082.029.175.034.28l.075.09.035.046.112.134.063.372.08.044.26.315.062.182.146.152.273.094.284-.029.103-.007.134-.049.44-.156-.026-.136.068-.025c.068-.024.115-.028.146-.007l.124-.088.163-.016.135-.181.005-.046.133-.078c.01-.112.127-.263.353-.45l-.014-.069.205-.28.036-.249.195-.189-.027-.062-.015-.157-.121-.147.108-.185.004-.103.029-.099a1.132 1.132 0 0 1-.226-.168.362.362 0 0 1-.076-.251l.032-.069zm.896-.665l.066.239c.161.197.271.358.332.484l-.01.148.104.124-.021.11.082.177-.085.192.115.327-.106.082.033.147-.137.153.022.239-.147.14.096.145-.256.193a.67.67 0 0 1-.327.455l-.058.034c-.027.215-.171.368-.431.462a.78.78 0 0 1-.333.207l-.103.14-.141.095-.127.19-.22.078-.209.119-.351.024-.755.226-.47-.17-.585-.129-.065-.212-.572-.295-.037-.179-.273-.253-.09-.188c-.087-.105-.149-.183-.187-.227-.118-.142-.147-.271-.085-.379-.05-.081-.077-.233-.081-.456l.088-.032-.115-.061-.082-.178-.139-.17c.036-.1.05-.162.041-.19l-.181-.14-.037-.045A.632.632 0 0 0 0 2.552l.085-.456c.032-.05.053-.087.063-.109l-.056-.041.068-.023.097-.284-.199-.268.339-.253C.499.994.508.846.423.671L.642.593A.741.741 0 0 1 .925.404a.99.99 0 0 1 .324-.059L1.444.29l.348-.269.358.063.251.013.135-.049h.328L3 0c.22.039.491.103.814.193l.08.046.156.002.607.18.76.419.093.114.479.343z"/>
    <path id="path14_fill" fill-rule="evenodd" d="M8.388 3.417l-.07.233.055.362-.082.114.014.201-.319.143-.1.227-.338.12-.11.186-.214.034-.19.111.073.09-.655.189-.269.096-.138.153-.225-.008c.107-.046.193-.083.261-.107-.085.039-.348.144-.784.322l-.064.002-.15.03-.154.16a3.411 3.411 0 0 0-.426.068c-.256.078-.424.13-.502.159l-.135.048a1.032 1.032 0 0 0-.282.057.873.873 0 0 0-.243.131l-.319-.017-.154.027a1.119 1.119 0 0 1-.214.032c-.443.119-.84-.039-1.198-.473l-.084-.102.193-.272.323-.245.388-.007.236-.085.028.035a.817.817 0 0 1 .421.086l.144-.037.121.145.247-.044.07.005 2.09-.863.479-.243.05-.017-.013-.071.218-.105.006-.046c.22-.108.4-.232.548-.373l-.029-.063a.846.846 0 0 1-.134-.054l-.075.04-.314-.033-.152.054-.148-.051.012-.063-.166.09-.211-.044-.17.061a1.94 1.94 0 0 1-.484.1l-.153.054-.146.009-.192.14-.218-.053-.052.018-.338-.041-.637.051-.242-.028-.708.149-.134-.057-.64-.035-.563-.282-.361-.12-.551-.566.012-.092a.63.63 0 0 1-.102-.55c.117-.122.131-.239.039-.353l.225-.124c-.006-.076.038-.166.131-.266l.141-.227.841-.651L1.56.78l.321-.145.473-.301L3.457 0l.081.044a1.5 1.5 0 0 1 .487.061l.048.058.362.015.106.316.051.113c.086.214.006.364-.242.454a.817.817 0 0 1-.615-.03L3.708.997l-.197.07-.204.129-.312-.034-.071.102a.63.63 0 0 0-.329.239.67.67 0 0 0-.378.317l-.225.078-.096.121-.209.117-.013.036-.073.071-.068.155-.04.03-.021.214-.13.133c.035.114.077.207.121.282.099.1.177.165.233.188.056.024.161.032.317.026l.046.057.285.002c.22-.018.395-.02.53.002l.337-.122.32.054.418-.105.207.012.761-.112.187.093.003-.103c.146-.051.38-.078.704-.075l.334-.075.097.068.271-.097.625.012c.137.078.335.124.595.139l.253.012.061.156a.677.677 0 0 1 .312.194l.029.034z"/>
    <path id="path15_fill" fill-rule="evenodd" d="M11.203.677l.121.412-.155.29.12.148a2.682 2.682 0 0 0-.273.2l-.042.029c.025.118-.022.205-.139.256-.054.146-.236.308-.541.487a.619.619 0 0 1-.375.395l-.17.165-.339.12-.121.144-.076.042a.428.428 0 0 1-.135.154l-.114.157-.388.14L8.465 4l-.643.36a5.17 5.17 0 0 0-.387.17l-.207.308a1.087 1.087 0 0 0-.34.065l-.102.036-.082.086-.191.112-.097.122-.099.066.35.132.115.324.443.327.212.258.151.079c.256-.063.458-.003.606.176.144.175.042.38-.301.619l-.388.272-.87-.234-.602-.385-.355-.431-.47-.202.066-.184-.163-.118-.055-.096a7.51 7.51 0 0 1-.723.184L3.31 5.708l1.221-.51-.093-.116-.017-.169-.316-.506.041-.103-.405-.414-.1-.2-.506-.616-.002-.339.022-.036-.045-.027c-.036-.115-.007-.224.083-.326l.363-.144.119-.043c.483-.172.827-.136 1.028.108.079.097.113.261.1.495l.046.055c.093.115.269.205.527.271l-.2.129.235.284-.161.204.216.129.005.221.229.198.034.12.102.097.079-.088.34-.12c.09-.14.237-.252.446-.335l.124-.222a.927.927 0 0 0 .305.024c.092-.081.256-.221.492-.41l.202-.102.178-.211.134-.048V2.93l.117-.042c.226-.08.392-.199.497-.354l.373-.131-.03-.064.181-.15.034-.147a.88.88 0 0 0 .178-.049l-.007-.248c.033-.048.065-.079.099-.09.034-.013.068-.007.105.019.003-.049.053-.113.153-.186l-.029-.065.071-.097-.057-.096-.207-.117-.219-.056-.155.027-.471-.068-.757.064a8.93 8.93 0 0 0-.994.02l-.181.203-.633-.023-.375.156-.336-.013-.271.096-.309-.006-.068.024a.278.278 0 0 1-.075.042 1.347 1.347 0 0 1-.495.062l-.438.104-.283.136-.376.045-.309.185-.07-.004-.207.146-.239.028.036.045-.406.144-.209.226-.325.163-.331.317-.54-.179A1.256 1.256 0 0 1 0 2.611l.071-.204C.01 2.262.068 2.136.243 2.03c.173-.11.353-.218.536-.332l.135-.049.079-.01.128-.03-.015.06.299-.194.05-.02c.035-.011.085-.028.153-.053.1-.037.226-.051.377-.046l.676-.242.526-.159L4.192.714l.356.034.2-.129.504-.078.507-.181.124.044.355-.127.521.02.39-.108.149.047c.203-.072.448-.095.731-.07l.3-.166.323.18.259.023L9.2.1l.397.14.846.018.141.171.619.248z"/>
    <path id="path16_fill" fill-rule="evenodd" d="M3.013.968A.933.933 0 0 0 2.85.85l-.093.02-.024.022c-.012.006-.036.012-.068.024a.16.16 0 0 1-.059.037.182.182 0 0 1-.06.005c-.023.009-.04.016-.051.019l-.103.14-.143.067-.066.051-.083.353-.112.155-.008.416-.097.122a.506.506 0 0 1 .034.415l-.004.101a.817.817 0 0 1 .36-.228l.09-.078-.034-.12.246-.073.024-.184.102-.036.222-.02-.056-.202.119-.042-.102-.124.191-.113.022-.052-.048-.116.042-.292a.352.352 0 0 0-.078-.149zm4.359 2.669c.075.093.067.241-.025.449a.559.559 0 0 1-.01.386l-.094.047-.008.282-.276.143-.211.251v.265l-.186.067a1.532 1.532 0 0 1-.257.168l-.028.122-.153.054c-.146.053-.234.166-.265.344l-.347-.052a5.964 5.964 0 0 0-.204.071c-.146.052-.285.08-.417.078l-.289.102-.181-.009c-.465.111-.825.099-1.081-.036l-.027-.033-.258.005-.259-.156-.277-.016L2.382 6l-.611-.423-.332-.403-.048-.218-.193-.235-.063-.21-.081-.073.008-.177-.017.034a.412.412 0 0 1-.092-.246l-.047-.058-.273-.252C.528 3.612.517 3.465.606 3.31c0-.021-.014-.046-.039-.076a1.255 1.255 0 0 0-.214-.165 1.192 1.192 0 0 1-.221-.178A.592.592 0 0 1 0 2.572a.734.734 0 0 0 .502-.002l.05-.019c-.002-.037.022-.09.069-.157a1.084 1.084 0 0 1-.021-.61l.031-.067a1.242 1.242 0 0 1-.112-.299l.134-.048-.014-.069.119-.071a.523.523 0 0 1 .021-.146c.006-.017.089-.109.247-.271 0-.071.029-.143.082-.221.032-.029.076-.066.132-.103l.012-.094c.248-.178.412-.28.49-.307a.824.824 0 0 1 .292-.046L2.109 0l.155.005c.191.019.372.027.545.024l.409.045.037.046c.372.042.66.19.865.44l.043.132.358.356-.097.122.075.357-.128.349.133.19a5.992 5.992 0 0 1-.652.773c-.015.145-.13.252-.344.328l-.051.019-.208.251-.27.096-.314.256-.388.011-.035.012c.028.066.081.166.158.295l-.079.117.095.144.059.229c.173.175.282.29.324.343l-.029.054c.083.098.138.173.165.222a.084.084 0 0 1 .015.039c.012.016.022.025.027.034.051.061.136.093.258.099a.5.5 0 0 0 .311.113l.173.026.429-.065.027.034.154-.025.575-.205.311-.155.105-.139.083-.06.032-.227.073-.04.351-.241c.002-.068.038-.139.109-.214l.003-.075c.202-.108.267-.232.197-.373.072-.161.233-.285.48-.375l.068-.024c.35.09.57.19.656.294z"/>
    <path id="path17_fill" fill-rule="evenodd" d="M12.182.945c.049.06.042.168-.023.317l-.028.26.117.251-.124.088.022.08c-.149.102-.2.242-.155.422a.696.696 0 0 1-.221.37.397.397 0 0 1-.085.136l-.002.132-.132.076-.31.314-.537.251-.171.032-.226.125-.167-.043a1.797 1.797 0 0 1-.468-.038.703.703 0 0 1-.482-.108c-.318-.08-.511-.168-.586-.26l-.028-.034-.229-.091-.055-.012-.268-.168-.329-.162-.181-.272-.289-.089-1.057-.884a2.341 2.341 0 0 1-.32-.311l-.082-.043-.15-.049-.043.19-.265.65-.028.315.023.201-.034.246-.057.138.062.05.053.436-.042.165-.151.081-.068.156c.125.152.098.288-.078.41l-.015.036c.035.201.006.344-.087.426l-.02.213a5.702 5.702 0 0 1-.258.459.31.31 0 0 1-.029.258.462.462 0 0 1-.043.134c.072.14-.011.288-.249.442l-.158.1c-.232.073-.49.051-.773-.063l-.487-.191-.122-.311-.171-.127.015-.036-.105-.154-.411-.207.025-.181-.189-.124.001-.207-.178-.274-.087-.028-.03-.193-.102-.065-.163-.178-.229-.358a1.139 1.139 0 0 1-.171-.129l-.037-.046-.038-.045-.124-.074-.249-.38-.102-.124-.149-.182L0 2.358l.017-.446c.372-.083.65-.117.833-.099a.705.705 0 0 1 .484.276l.081.099.248.09.129.262.439.43.059.258.246.219.16.191-.049.182.319.147-.028.174.08.132.206.088.059.287.034.12.083.103.178.083.129-.297c-.093-.114-.098-.207-.017-.285-.051-.08-.052-.153-.005-.221l-.078-.016.108-.212.014-.064-.085-.103.16-.233-.027-.137.096-.122.249-.735c-.018.064-.089.271-.211.619l.017.023-.031-.09.08-.249-.005-.248-.094-.114.207-.146-.088-.161.031-.068-.031-.064-.065-.078.107-.244a.71.71 0 0 0-.047-.058.18.18 0 0 1-.053-.038c-.111-.136-.062-.252.151-.348-.01-.171.077-.306.261-.4l.018-.141.015-.034c.02-.134.117-.256.288-.366l.051-.18L5.129 0l.332.087.242.002.045.028.137-.021.231.228.38.009.086.293.411.207.259.315.491.386.37.393.347.183.345.26a.838.838 0 0 1 .31.139l.35-.052.186.226.273.067.029.034.075-.016.124.044.022-.079c-.024.009.008.002.093-.02.124-.044.192-.165.202-.365l.18-.103.003-.075c-.017-.074.013-.145.088-.212l.129-.031.029-.07-.029-.062.014-.063c.068-.094.078-.198.024-.315l.074-.205-.051-.115-.03-.221.256-.196.541-.059.421.275a.072.072 0 0 0 .035.015.454.454 0 0 1 .029.034z"/>
    <path id="path18_fill" fill-rule="evenodd" d="M4.821 4.357l-.086.003a1.02 1.02 0 0 1-.334-.072c-.118-.048-.233-.092-.345-.14a.919.919 0 0 1-.41-.046l-.102.037-.407-.016-.436.083-.355.156-.336.219-.157-.028-.106.082.036.044-.132.078c-.002.158-.075.319-.214.486l.022.24-.08.117.032.224.257.39-.08.143.168.205-.071.127.212.275.027.479.102.196.21.306.204.09.001.16.15.048v.266l.169.07.18.112.139.01.119-.04.078-.145.146-.035.22-.184-.022-.081.255-.193-.021-.078.138-.153-.021-.024.182-.446.156-.127-.02-.185.201-.102.102-.302-.069-.003.05-.122-.026-.3.066-.155-.121-.278.221-.155.044-.246.042-.06-.168-.202.189-.17.001-.558zm4.794 1.87l.188.547-.023.185c-.031.248-.131.399-.3.46-.136.047-.368.047-.7 0l-.608-.208-.319-.15-.236-.18-.433-.285-.41-.501-.406-.412-.144-.258-.09-.055-.096.548-.051.018.012.039-.036.41-.193.509-.085.457-.177.369a1.156 1.156 0 0 1-.095.447l-.207.278-.054.255-.307.212-.049.177-.334.179-.204.234-.051.019.004.056-.562.142-.867-.071a1.763 1.763 0 0 1-.667-.306.115.115 0 0 0 .036-.064l.017-.06a3.547 3.547 0 0 0-.232.01l-.338-.171.019-.11-.197-.107-.046-.186-.202-.193-.151-.373-.29-.35.036-.145-.197-.24-.001-.187-.107-.183.015-.034L.356 6.8l.019-.242-.095-.17.007-.15-.006-.087-.155-.294-.077-.281.038-.087L0 5.329l.088-.236a14.818 14.818 0 0 1-.044-.294l.322-.274.112-.29.655-.425c.124-.044.219-.081.28-.113l.155.002-.041-.102.371-.161.163-.014.109-.054.148.02.33-.103.041-.058.122.015.177-.05.065.08.097.009.375-.074.412.103.479.049.176.083.027.006-.062-.184-.019-.183-.249-.25-.323-.498-.252-.148.023-.182-.169-.101-.211-.336-.283-.251-.243-.016.121-.28L2.85.897c-.105-.13-.294-.241-.565-.341L2.387.52l.037-.25c.151-.082.293-.148.428-.195.157-.057.308-.08.446-.071.212-.026.451.123.717.449l-.084.03.02.05.227.037.048.219.329.159-.029.1c.078.04.139.086.182.139a.476.476 0 0 1 .09.19l.14.038a.472.472 0 0 1 .154.135c.068.083.103.17.103.258.334.493.527.808.575.939a.554.554 0 0 1 .208.306l.056.068c.075.09.134.202.178.33l.226.362-.019.122.153.08.071.194.188.124.155.398.281.235.121.15.207.219a.693.693 0 0 1 .153.137c.03.036.037.073.023.109l.192.018.051.277.33.187.006.088.107.049.005.087.078.014.227.036.307-.078.541-.03z"/>
    <path id="path19_fill" fill-rule="evenodd" d="M8.579 5.634c.142.173.188.298.135.376l-.047.075.046.19-.224.154a.514.514 0 0 1-.122.409l-.124.088-.09.238-.175.105c.033.167-.071.296-.314.39-.003.033-.018.095-.04.19a1.123 1.123 0 0 1-.413.326l-.074.04-.034.145-.339.12-.16.233-.972-.094-.685-.327-.473-.55-.18-.113-.618-1.067.031-.07a2.414 2.414 0 0 1-.323-.312c-.054-.067-.135-.22-.242-.456l-.129-.29a.929.929 0 0 0-.256-.1l-.076-.252-.181-.273.006-.045a1.125 1.125 0 0 1-.272-.197.206.206 0 0 0-.017-.074.184.184 0 0 0-.034-.07.813.813 0 0 1-.208-.174c-.151-.181-.066-.318.251-.412l.203-.073c.104-.084.171-.134.206-.146a.72.72 0 0 1 .663.087l.035.044c.121.074.216.153.284.238.056.067.085.122.087.159l.347.607.25.119a.444.444 0 0 1 .096.434l.178.112.134.509c.133.197.223.352.27.462l.232.283.031.195.11.109.18.272.202.193.366.046.184-.097.004-.046.145-.037.183-.124.083-.191.012-.091.11-.052-.015-.07.015-.065.138.01.076-.174.112-.024-.032-.091.034-.013-.028-.108.116-.098.239-.22c.161-.213.365-.362.613-.452l.067-.024a.91.91 0 0 1 .423.114zM1.912.236c.075.089.053.205-.066.344l.019.024c-.074.25-.179.416-.32.494l-.086.293-.049.207-.336.205-.036.22-.195.189-.221.42-.408-.072-.183-.3.018-.272c-.076-.11-.059-.232.048-.368l-.038-.046.065-.082L0 1.317l.234-.143-.085-.102.185-.095C.255.81.261.665.351.546L.384.505.429.402.341.079c.843-.143 1.367-.092 1.571.157z"/>
    <path id="path20_fill" fill-rule="evenodd" d="M3.013.967A.847.847 0 0 0 2.85.85l-.093.02-.026.023-.068.023a.149.149 0 0 1-.118.042l-.051.019-.104.139-.14.067-.068.052-.082.351-.111.156-.009.415-.097.122a.511.511 0 0 1 .034.415l-.003.102a.807.807 0 0 1 .358-.229l.09-.075-.033-.121.245-.074.025-.184.1-.037.224-.02-.056-.202.119-.04-.103-.124.191-.114.024-.051-.051-.116.044-.293a.37.37 0 0 0-.078-.149zm4.358 2.668c.077.094.066.241-.024.45.043.141.04.27-.012.385l-.091.049-.01.282-.277.143-.209.251v.264l-.186.067a1.507 1.507 0 0 1-.256.168l-.029.123-.153.054c-.146.051-.234.166-.264.343l-.35-.053-.202.074a1.175 1.175 0 0 1-.419.076l-.287.103-.183-.009c-.465.109-.824.097-1.078-.035l-.028-.034-.259.003-.258-.154-.277-.017-.139-.17-.609-.422-.332-.404-.048-.215-.193-.236-.063-.21-.083-.075.008-.175-.015.034a.401.401 0 0 1-.092-.246l-.047-.058-.275-.253c-.105-.126-.113-.272-.025-.43a.16.16 0 0 0-.039-.074 1.454 1.454 0 0 0-.214-.166 1.226 1.226 0 0 1-.222-.177.579.579 0 0 1-.131-.32.731.731 0 0 0 .501-.002l.051-.018c-.002-.039.02-.091.067-.157a1.081 1.081 0 0 1-.018-.61l.03-.069c-.025-.03-.064-.131-.113-.297l.135-.048-.013-.071.117-.069a.673.673 0 0 1 .02-.146c.008-.018.09-.108.248-.273a.424.424 0 0 1 .081-.219c.034-.03.078-.067.135-.105l.011-.091c.248-.179.411-.281.49-.31a.79.79 0 0 1 .291-.044L2.109 0l.154.003c.192.021.374.027.546.026l.41.043.035.046c.373.045.66.193.867.44l.04.133.36.356-.096.122.072.356-.125.351.132.189a6.246 6.246 0 0 1-.653.775c-.013.143-.129.251-.342.327l-.052.017-.208.253-.272.096-.312.257-.388.008-.034.012c.027.068.08.168.156.296l-.078.118.095.142.057.231c.174.175.284.29.326.343l-.029.052c.082.099.138.173.165.223.007.008.01.021.014.039.011.015.022.025.028.033.05.062.136.096.258.101.109.08.211.117.309.112l.175.026.427-.065.029.033.154-.023.576-.205.31-.154.105-.141.082-.059.032-.228.075-.039.349-.241c.002-.07.039-.139.109-.215l.004-.074c.203-.11.267-.234.196-.373.073-.161.232-.287.48-.375l.068-.023c.351.09.569.187.656.291z"/>
    <path id="path21_fill" fill-rule="evenodd" d="M12.18.944c.049.06.042.168-.023.315l-.028.26.119.253-.124.088.022.08c-.149.102-.202.242-.156.421a.707.707 0 0 1-.22.371.456.456 0 0 1-.087.136v.133l-.134.076-.31.313-.537.251-.171.032-.226.125-.166-.042a1.835 1.835 0 0 1-.468-.039.71.71 0 0 1-.483-.108c-.316-.081-.509-.17-.586-.261l-.026-.034-.231-.092-.053-.011-.268-.166-.331-.162-.18-.275-.29-.086-1.055-.886a2.437 2.437 0 0 1-.322-.31l-.082-.044-.149-.05-.044.192-.265.648-.027.315.024.201-.036.248-.057.138.064.05.051.436-.041.163-.151.083-.068.156c.126.152.099.287-.079.409l-.014.037c.034.202.005.344-.086.426l-.022.214c-.124.239-.211.39-.258.458a.314.314 0 0 1-.028.258.524.524 0 0 1-.042.134c.071.14-.013.287-.251.441l-.158.1c-.232.075-.49.052-.772-.061l-.487-.193-.123-.31-.171-.129.017-.035-.106-.152-.41-.207.023-.184-.188-.122v-.207l-.176-.274-.089-.028-.028-.195-.104-.063L1.35 4l-.227-.359a.924.924 0 0 1-.173-.129 7.617 7.617 0 0 0-.037-.046l-.038-.045-.123-.072-.248-.381L.4 2.844l-.149-.183L0 2.355l.017-.444c.371-.085.648-.117.833-.1.183.017.344.111.482.277l.083.099.247.089.129.261.44.431.059.258.246.219.158.191-.049.182.32.147-.027.175.08.131.204.088.061.288.034.119.083.102.176.083.131-.295c-.095-.113-.099-.209-.017-.287-.053-.079-.053-.151-.006-.219l-.079-.015.109-.215.013-.061-.083-.103.158-.233-.026-.138.097-.122.249-.734c-.018.064-.089.271-.213.617l.018.022-.03-.09.079-.247-.006-.248-.094-.114.207-.146-.086-.161.03-.07-.03-.062-.065-.078.107-.244-.047-.058c-.031-.019-.048-.029-.055-.039-.111-.136-.062-.251.151-.348-.01-.172.078-.305.261-.4l.019-.14.014-.033c.022-.135.117-.257.29-.367l.049-.18L5.128 0l.333.086.24.002.046.027.138-.021.229.228.38.01.088.294.409.206.261.316.491.383.368.395.347.184.345.259c.105.02.209.068.31.139l.351-.052.187.227.273.065.027.033.077-.013.123.044.021-.082c-.022.009.008.002.094-.018.124-.044.192-.166.203-.365l.179-.103.004-.076c-.019-.074.011-.143.088-.211l.127-.031.031-.069-.029-.063.014-.065c.068-.091.076-.198.023-.315l.073-.203-.049-.115-.031-.221.255-.196.541-.059.423.275c.006.007.017.01.035.015l.027.034z"/>
    <path id="path22_fill" fill-rule="evenodd" d="M6.731.828c.056.068.008.168-.146.3-.014.054-.069.119-.169.194-.121.102-.201.18-.245.234l-.42.047c-.106.157-.301.284-.582.383l-.231.039-.087.133-.456.164-.176.238c-.148.015-.28.04-.392.08-.021.03-.089.07-.2.13a.723.723 0 0 1-.214.035l.302.447.263.317.325.398.362.428.22.186.121.162.517.257c-.015.033-.012.064.014.095.044.053.203.05.476-.007l.146.125.144-.01.279.02.191.019c.101-.056.172-.092.217-.108.102-.036.214-.06.333-.076a1.14 1.14 0 0 0 .158-.258.388.388 0 0 1 .212-.194c.012-.004.029-.008.051-.017a.385.385 0 0 0 .05-.02c-.01-.174.096-.328.318-.466.237-.084.475-.104.714-.062l.065.078c.212.26.21.468-.004.635.029.193-.102.373-.392.534l-.1.196-.22.078-.333.207a2.18 2.18 0 0 1-.37.163c-.09.033-.198.05-.325.056l-.221.078-.768-.003-.18.02-.618-.19-.322-.076-.84-.434-.573-.486-.06-.152-.256-.073-.045-.188-.289-.22.051-.122-.087-.16-.162-.116-.117-.222-.233-.151.037-.088-.149-.181-.146.008-.283.16-.417-.026-.051.017c-.338.122-.607.057-.81-.187L.58 3.162l-.382-.146.149-.322.462-.105.2-.102.37-.057.354-.126-.186-.227-.482-.24.156-.157-.225-.14-.272-.358-.256-.101C.32 1.028.218.966.163.897.095.814.067.736.079.664L0 .487l.061-.14C.334.2.522.11.624.073c.359-.127.648-.088.863.12L1.484.27a.575.575 0 0 1 .258.155.323.323 0 0 1 .032.064l.022.08.049.088.189.122.03.065.165.147-.04.19.272.199.158.298.219.054.034.253.476-.244.979-.275.677-.344.265-.078L5.343 1l.659-.235c.349-.125.593-.104.729.062z"/>
    <path id="path23_fill" fill-rule="evenodd" d="M3.013.969A.868.868 0 0 0 2.85.85l-.093.02-.026.022c-.01.004-.033.013-.067.024a.148.148 0 0 1-.058.037.175.175 0 0 1-.059.005l-.051.019-.104.139-.142.066-.068.053-.082.353-.111.155-.009.416-.097.122a.499.499 0 0 1 .034.413l-.003.103a.81.81 0 0 1 .358-.228l.092-.078-.035-.12.247-.074.023-.183.102-.036.222-.02-.056-.202.119-.042-.102-.124.192-.113.022-.052-.051-.116.044-.292a.333.333 0 0 0-.078-.148zm4.358 2.668c.077.092.068.241-.024.449.043.14.04.269-.011.386l-.092.047-.008.282-.277.143-.211.251v.264l-.186.068a1.53 1.53 0 0 1-.256.168l-.029.122-.153.054c-.146.053-.234.166-.264.344l-.35-.052a9.844 9.844 0 0 0-.202.072 1.195 1.195 0 0 1-.417.076l-.288.103-.182-.008c-.465.108-.825.096-1.08-.036l-.028-.034-.258.005-.259-.156-.277-.015L2.382 6l-.611-.424-.332-.404-.048-.215-.193-.236-.063-.21-.081-.073.006-.177-.015.034a.416.416 0 0 1-.092-.246l-.047-.058-.275-.252C.526 3.612.518 3.466.606 3.31c0-.021-.015-.046-.039-.076a1.39 1.39 0 0 0-.214-.167 1.08 1.08 0 0 1-.22-.176A.593.593 0 0 1 0 2.572a.731.731 0 0 0 .501-.002l.051-.019c-.002-.039.02-.09.067-.157a1.09 1.09 0 0 1-.018-.61l.03-.067a1.376 1.376 0 0 1-.113-.299l.136-.048-.014-.069.117-.071a.55.55 0 0 1 .022-.146c.007-.017.09-.108.248-.271 0-.07.027-.143.081-.221a1.04 1.04 0 0 1 .133-.103l.011-.094c.248-.178.412-.28.49-.309a.815.815 0 0 1 .291-.044L2.109 0l.154.003c.192.021.374.029.546.026l.41.045.037.046c.371.042.658.191.865.44l.042.132.358.356-.096.122.074.355-.127.351.132.19c-.217.3-.436.558-.653.774-.013.144-.129.251-.342.327l-.052.019-.208.251-.27.096-.314.256-.388.009-.034.012c.027.068.08.168.156.297l-.078.117.095.144.057.229c.175.175.284.29.326.343l-.029.054c.084.098.138.173.165.222.007.009.01.021.014.039.011.016.022.026.028.034.05.062.136.094.258.099a.497.497 0 0 0 .309.113l.175.026.429-.065.027.034.154-.025.576-.205.31-.154.105-.14.083-.06.031-.226.075-.041.349-.241c.002-.068.039-.139.11-.214l.003-.075c.203-.108.267-.234.197-.373.072-.161.231-.287.48-.375l.068-.023c.35.09.568.188.655.293z"/>
    <path id="path24_fill" fill-rule="evenodd" d="M8.387 3.419l-.07.232.054.362-.079.115.012.201-.319.143-.1.225-.338.121-.11.187-.214.032-.19.111.073.09-.653.191-.272.096-.137.152-.225-.007c.107-.048.194-.085.261-.108-.085.038-.346.145-.784.323h-.064l-.15.032-.154.158a3.681 3.681 0 0 0-.426.068c-.254.078-.422.132-.502.16l-.136.049a.929.929 0 0 0-.524.186l-.319-.015-.154.026a1.176 1.176 0 0 1-.214.032c-.443.118-.84-.039-1.198-.474l-.085-.101.194-.272.322-.246.39-.006.236-.085.027.034a.86.86 0 0 1 .421.086l.144-.037.121.147.25-.044.067.004 2.092-.862.478-.243.051-.018-.015-.07.22-.107.003-.046a2.1 2.1 0 0 0 .548-.373l-.029-.061a1.157 1.157 0 0 1-.133-.056l-.075.042-.314-.035-.15.055-.15-.05.012-.065-.167.09-.21-.042-.17.06a1.964 1.964 0 0 1-.485.101l-.152.054-.146.007-.192.141-.219-.052-.05.016-.338-.041-.638.052-.243-.029-.707.149-.134-.056-.64-.034-.563-.283-.36-.121-.552-.566.011-.092c-.12-.183-.154-.364-.1-.549.117-.123.13-.238.038-.352l.225-.126c-.006-.076.04-.164.131-.265l.141-.228.841-.651L1.56.78l.32-.143.474-.303L3.457 0l.08.044c.12-.012.283.009.487.062l.047.057.363.016.105.315.051.113c.087.216.007.366-.24.454a.799.799 0 0 1-.616-.03L3.706.998l-.196.071-.202.127-.314-.034-.07.102a.64.64 0 0 0-.33.241.66.66 0 0 0-.377.315l-.224.078-.098.121-.207.119-.015.036-.074.069-.067.156-.04.029-.02.214-.13.133c.035.116.076.209.12.283a.875.875 0 0 0 .233.189c.056.024.161.032.317.026l.045.057h.287a2.26 2.26 0 0 1 .528.004l.337-.122.321.054.418-.105.208.012.76-.112.187.091.003-.101c.148-.053.382-.08.706-.077l.332-.075.098.068.271-.097.624.013c.137.078.335.123.595.139l.253.013.061.155a.686.686 0 0 1 .314.195l.027.034z"/>
    <path id="path25_fill" fill-rule="evenodd" d="M2.17 5.742l9.362 4.681L24.32 5.627 14.957.946 2.17 5.742zm9.313 5.627L0 5.627 15.006 0l11.483 5.742-15.006 5.627z"/>
    <path id="path26_fill" fill-rule="evenodd" d="M2.17 5.742l9.362 4.681L24.32 5.627 14.958.947 2.17 5.742zm9.313 5.627L0 5.627 15.006 0l11.483 5.742-15.006 5.627z"/>
    <path id="path27_fill" fill-rule="evenodd" d="M2.169 5.742l9.363 4.681 12.787-4.796L14.957.946 2.169 5.742zm9.313 5.627L0 5.627 15.006 0l11.483 5.742-15.007 5.627z"/>
    <path id="path28_fill" fill-rule="evenodd" d="M22.139 23.636c-.65 0-1.557.472-1.902.945-.07.095-.13.217-.1.263.021.029.357.462 2.597.26.081-.233.12-.482.108-.745-.026-.569-.306-.653-.412-.684a1.03 1.03 0 0 0-.291-.039zM7.86 31.966c-1.693 0-4.013-.572-7.86-2.064l.314-.812c7.566 2.939 8.789 2.205 11.47.598.613-.368 1.308-.786 2.162-1.208l.173-.046c1.948-.088 6.325-.697 8.028-2.426-1.468.042-2.38-.168-2.726-.674-.25-.364-.207-.826.115-1.265.603-.825 2.113-1.534 3.145-1.227.365.11.982.45 1.028 1.477.011.239-.005.465-.045.681 1.473-.196 3.554-.609 6.49-1.396 8.646-2.319 14.243-4.509 17.945-5.957 4.337-1.696 6.318-2.469 7.796-1.278 2.074 1.676 8.585-2.383 10.892-4.609.655-.631.853-1.469 1.061-2.358.444-1.883.947-4.019 5.936-4.243 2.933-.13 4.742.505 6.065.972 1.892.665 2.842 1.003 5.304-1.374C89.745.324 94.577.106 96.898 0l.043.869c-2.388.107-6.829.307-11.184 4.512-2.848 2.748-4.181 2.278-6.196 1.569-1.325-.467-2.973-1.058-5.738-.922-4.333.193-4.702 1.76-5.129 3.574-.229.971-.465 1.974-1.304 2.782-2.233 2.154-9.32 6.856-12.04 4.66-1.089-.875-2.922-.158-6.935 1.411-3.72 1.456-9.343 3.657-18.036 5.988-2.925.785-5.282 1.275-7.058 1.473-1.672 2.87-8.159 3.33-9.069 3.381-.787.394-1.443.787-2.022 1.135-1.469.881-2.56 1.534-4.37 1.534z"/>
    <path id="path29_fill" fill-rule="evenodd" d="M22.14 23.634c-.65 0-1.557.474-1.903.947-.07.095-.13.217-.1.261.022.031.357.451 2.597.262.081-.235.12-.483.108-.747-.026-.567-.306-.652-.411-.684a1.034 1.034 0 0 0-.291-.039zM7.86 31.965c-1.693 0-4.013-.571-7.86-2.064l.314-.811c7.565 2.937 8.789 2.204 11.47.596.613-.368 1.309-.786 2.163-1.208l.173-.046c1.947-.088 6.323-.697 8.027-2.424-1.466.044-2.38-.168-2.726-.674-.25-.364-.207-.826.115-1.267.604-.823 2.111-1.53 3.146-1.225.364.11.981.448 1.027 1.475.01.216-.003.446-.048.683 1.473-.197 3.555-.609 6.493-1.396 8.649-2.319 14.245-4.509 17.948-5.958 4.336-1.697 6.315-2.472 7.794-1.279 2.072 1.663 8.583-2.38 10.893-4.607.653-.633.851-1.471 1.059-2.358.445-1.883.947-4.019 5.936-4.245 2.924-.139 4.741.507 6.065.972 1.892.665 2.843 1.001 5.305-1.374C89.752.318 94.582.104 96.903 0l.039.868c-2.215.099-6.824.303-11.184 4.511-2.849 2.747-4.181 2.278-6.198 1.569-1.325-.466-2.982-1.051-5.737-.922-4.332.195-4.701 1.76-5.129 3.576-.228.97-.465 1.972-1.302 2.782-2.234 2.158-9.32 6.855-12.041 4.658-1.09-.875-2.92-.158-6.932 1.411-3.721 1.457-9.345 3.659-18.04 5.989-2.929.786-5.288 1.277-7.066 1.476-.565.965-1.831 1.949-4.423 2.645-2.094.561-4.172.705-4.638.732-.787.394-1.442.787-2.021 1.135-1.47.881-2.561 1.535-4.371 1.535z"/>
    <path id="path30_fill" fill-rule="evenodd" d="M22.139 23.636c-.65 0-1.557.472-1.903.945-.069.095-.129.217-.099.263.022.028.356.46 2.596.26.082-.233.121-.483.109-.745-.026-.569-.306-.654-.412-.684a.994.994 0 0 0-.291-.039zm-14.28 8.329c-1.693 0-4.013-.571-7.859-2.064l.314-.811c7.567 2.942 8.789 2.203 11.469.596.613-.368 1.309-.786 2.163-1.208l.173-.046c1.948-.088 6.325-.697 8.028-2.424-1.477.04-2.38-.17-2.727-.674-.249-.365-.207-.826.116-1.265.603-.823 2.109-1.529 3.145-1.227.365.11.982.449 1.028 1.476.01.217-.003.446-.049.682 1.474-.197 3.555-.609 6.494-1.396 8.648-2.32 14.244-4.509 17.947-5.958 4.337-1.697 6.316-2.47 7.794-1.279 2.069 1.665 8.584-2.381 10.894-4.607.653-.632.85-1.47 1.06-2.356.444-1.885.947-4.021 5.935-4.246 2.924-.128 4.742.506 6.065.973 1.892.665 2.844.999 5.304-1.376C89.746.324 94.577.106 96.9 0l.042.868c-2.389.108-6.829.308-11.185 4.511-2.846 2.748-4.176 2.28-6.197 1.571-1.325-.468-2.967-1.058-5.737-.922-4.332.193-4.702 1.76-5.129 3.574-.228.971-.465 1.974-1.302 2.782-2.233 2.156-9.32 6.847-12.041 4.658-1.09-.875-2.92-.158-6.933 1.413-3.721 1.455-9.345 3.656-18.039 5.987-2.929.785-5.287 1.277-7.065 1.475-.565.966-1.832 1.949-4.425 2.646-2.094.561-4.172.705-4.638.732-.787.394-1.442.787-2.021 1.135-1.47.881-2.561 1.535-4.371 1.535z"/>
    <path id="path31_fill" fill-rule="evenodd" d="M5.524 10.994H0v-.868h4.898L8.273 0l.824.274-3.573 10.72z"/>
    <path id="path32_fill" fill-rule="evenodd" d="M5.524 10.994H0v-.868h4.898L8.273 0l.825.275-3.574 10.719z"/>
    <path id="path33_fill" fill-rule="evenodd" d="M5.524 10.994H0v-.869h4.898L8.273 0l.824.274-3.573 10.72z"/>
    <path id="path34_fill" fill-rule="evenodd" d="M22.139 23.636c-.65 0-1.557.472-1.902.945-.07.095-.13.217-.1.263.022.028.356.46 2.597.26.081-.233.12-.483.108-.745-.026-.569-.306-.654-.412-.684a.994.994 0 0 0-.291-.039zM7.86 31.965c-1.694 0-4.014-.571-7.86-2.064l.314-.811c7.568 2.94 8.789 2.203 11.469.596.613-.368 1.309-.786 2.163-1.208l.173-.046c1.948-.088 6.325-.697 8.028-2.424-1.478.045-2.38-.168-2.727-.674-.249-.365-.206-.826.116-1.265.603-.825 2.109-1.533 3.145-1.227.365.11.982.449 1.028 1.476.01.217-.003.446-.049.682 1.474-.197 3.556-.609 6.494-1.396 8.648-2.32 14.244-4.509 17.947-5.958 4.337-1.697 6.316-2.472 7.795-1.279 2.068 1.661 8.583-2.38 10.893-4.607.653-.632.851-1.47 1.06-2.356.444-1.885.947-4.021 5.935-4.246 2.92-.125 4.742.506 6.065.973 1.892.665 2.844.999 5.305-1.376C89.746.324 94.578.106 96.9 0l.042.868c-2.389.108-6.829.308-11.185 4.511-2.845 2.748-4.177 2.28-6.197 1.571-1.325-.468-2.97-1.046-5.737-.922-4.332.193-4.702 1.76-5.129 3.574-.228.971-.465 1.974-1.302 2.782-2.233 2.156-9.321 6.854-12.041 4.658-1.09-.872-2.92-.158-6.933 1.413-3.721 1.455-9.345 3.656-18.039 5.987-2.929.786-5.287 1.277-7.065 1.476-.565.965-1.832 1.948-4.425 2.645-2.094.561-4.172.705-4.638.732-.787.394-1.442.787-2.021 1.135-1.469.881-2.56 1.535-4.37 1.535z"/>
    <path id="path35_fill" fill-rule="evenodd" d="M12.93 10.173c-1.222 4.594-5.484 7.977-8.932 7.06C.55 16.317-.776 11.446.445 6.853 1.667 2.26 5.33-.753 8.779.164c3.447.916 5.373 5.416 4.15 10.01z"/>
    <path id="path36_fill" fill-rule="evenodd" d="M226.351 104.952L4.671 14.389a7.466 7.466 0 0 1-4.42-8.84c1.15-4.322 5.816-6.67 9.97-5.018l220.686 87.292"/>
    <path id="path37_fill" fill-rule="evenodd" d="M7.562 1.364c-1.059 0-2.119.352-3.078 1.033-1.36.968-2.374 2.488-2.85 4.279-.966 3.632.725 7.248 3.77 8.057 1.454.386 3.008.083 4.372-.862 1.398-.966 2.43-2.479 2.902-4.257.95-3.571-.83-7.275-3.889-8.09a4.797 4.797 0 0 0-1.227-.16zM6.66 16.26c-.538 0-1.076-.07-1.605-.21C1.282 15.049-.843 10.685.316 6.326c.56-2.097 1.758-3.887 3.377-5.038C5.363.1 7.295-.281 9.14.207c3.838 1.021 6.016 5.397 4.857 9.759-.557 2.09-1.78 3.877-3.445 5.027C9.34 15.83 8 16.26 6.66 16.26z"/>
    <path id="path38_fill" fill-rule="evenodd" d="M176.663 71.798L0 1.266.506 0l176.663 70.531-.506 1.267z"/>
    <path id="path39_fill" fill-rule="evenodd" d="M59.466 38.305L5.417 16.795C1.368 15.155-.833 10.724.294 6.482A8.736 8.736 0 0 1 4.808.92a8.657 8.657 0 0 1 7.077-.31l49.643 19.97-.509 1.267L11.38 1.876a7.28 7.28 0 0 0-5.959.264 7.37 7.37 0 0 0-3.808 4.693c-.952 3.577.903 7.317 4.313 8.696l54.046 21.508-.505 1.268z"/>
    <path id="path40_fill" fill-rule="evenodd" d="M41.685 36.268c-4.047-1.638-6.248-6.07-5.12-10.313.432-1.621 1.63-2.965 3.465-3.888 2.726-1.37 6.752-1.693 9.918-.888l-1.046-3.1L7.286 1.396l-7.119.877L0 .92 7.467 0l42.526 17.048 2.15 6.371-1.37-.544c-2.963-1.182-7.317-1.003-10.131.41-1.498.753-2.427 1.769-2.759 3.021-.952 3.579.903 7.317 4.314 8.697l-.512 1.265z"/>
    <path id="path41_fill" fill-rule="evenodd" d="M176.67 71.771L0 1.268.505 0l176.671 70.503-.506 1.268z"/>
  </defs>
</svg>
