<svg xmlns="http://www.w3.org/2000/svg" xmlns:xlink="http://www.w3.org/1999/xlink" viewBox="0 0 414 371">
  <use fill="#E9E9E9" transform="translate(0 122)" xlink:href="#path0_fill"/>
  <use fill="#1A285C" transform="translate(47 80)" xlink:href="#path1_fill"/>
  <use fill="#818FF2" transform="translate(88 119)" xlink:href="#path2_fill"/>
  <g transform="translate(100 1112)">
    <mask id="a">
      <use fill="#FFF" transform="translate(166.598 -820.345)" xlink:href="#path3_fill"/>
    </mask>
    <g mask="url(#a)">
      <use fill="#FBDEB0" transform="translate(166.598 -820.345)" xlink:href="#path4_fill"/>
    </g>
  </g>
  <use fill="#FBDEB0" transform="translate(339.055 302.144)" xlink:href="#path5_fill"/>
  <use fill="#1A285C" transform="translate(252 175)" xlink:href="#path6_fill"/>
  <use fill="#1A285C" transform="translate(118 153)" xlink:href="#path7_fill"/>
  <use fill="#8E95F8" transform="translate(45 119)" xlink:href="#path8_fill"/>
  <use fill="#E44A4A" transform="translate(101 139)" xlink:href="#path9_fill"/>
  <use fill="#FBDEB0" transform="translate(85 180)" xlink:href="#path10_fill"/>
  <use fill="#818FF2" transform="translate(35 119)" xlink:href="#path11_fill"/>
  <use fill="#633E2C" transform="translate(149 107)" xlink:href="#path12_fill"/>
  <use fill="#FBDEB0" transform="translate(163 119)" xlink:href="#path13_fill"/>
  <use fill="#FBDEB0" transform="translate(44 42)" xlink:href="#path14_fill"/>
  <use fill="#FBDEB0" transform="translate(65 95)" xlink:href="#path15_fill"/>
  <use fill="#1A285C" xlink:href="#path16_fill"/>
  <use fill="#E9E9E9" transform="translate(65 232)" xlink:href="#path17_fill"/>
  <defs>
    <path id="path0_fill" fill-rule="evenodd" d="M208.115 76.643c23.775 1.699 63.591 15.033 53.186 46.255-10.406 31.222 30.061 100.605-72.841 102.918C85.559 228.128 0 237.379 0 124.055 0 10.73 26.685-13.464 84.449 6.15c57.763 19.613 107.48 69.337 123.666 70.493z"/>
    <path id="path1_fill" fill-rule="evenodd" d="M56.97 17.314s-4.354 12.633-4.637 13.863c-1.195 5.204-4 .324-13.11 8.014C11.763 62.37 2.489 38.11.17 31.177c-2.318-6.931 19.706-25.415 24.343-20.794C29.15 15.004 54.65-6.946 56.97 2.296c2.318 9.242 0 15.018 0 15.018z"/>
    <path id="path2_fill" fill-rule="evenodd" d="M.717 2.842c1.91-4.374 23.105-3.474 24.26 1.159 1.155 4.633 18.485 30.113 18.485 30.113l30.624-21.108a10.138 10.138 0 0 1 12.26.57c4.365 3.647 4.896 10.176 1.179 14.485L55.655 65S-7.37 21.374.716 2.842z"/>
    <path id="path3_fill" fill-rule="evenodd" d="M0 79.345h42.396V0H0v79.345z"/>
    <path id="path4_fill" fill-rule="evenodd" d="M33.295 21.714l8.942 46.902c.864 4.533-1.868 8.98-6.35 10.336-4.186 1.266-8.692-.611-10.678-4.45L2.494 30.595C-2.008 21.89-.305 11.325 6.717 4.421L11.214 0l22.08 21.714z"/>
    <path id="path5_fill" fill-rule="evenodd" d="M28.925 0l40.614 20.146c3.924 1.947 5.755 6.515 4.255 10.616-1.402 3.83-5.367 6.103-9.399 5.385l-46.112-8.21C9.142 26.306 2.092 19.01.817 9.852L0 3.993 28.925 0z"/>
    <path id="path6_fill" fill-rule="evenodd" d="M116 127.368L20.162 5.95A15.632 15.632 0 0 0 7.895 0H0l24.047 67.651L88.267 132 116 127.368z"/>
    <path id="path7_fill" fill-rule="evenodd" d="M129.706 12.658c-4.067-11.406-17.622-16.17-27.947-9.826L1.425 64.498c-5.022 15.047 3.682 31.214 19.023 35.323a41.567 41.567 0 0 0 35.22-6.54l52.25-38.031 45.124 93.01c5.214 10.746 17.902 15.581 28.958 11.035l-24.973-70.027-24.088-67.544-3.233-9.066z"/>
    <path id="path8_fill" fill-rule="evenodd" d="M49.175 0s27.65 5.388 29.956 25.491C82.587 55.617 101.022 70.68 116 72.997c0 0-29.992 16.856-32.86 27.279-1.36 4.944-5.073 27.458-10.093 28.362-5.57 1.004-13.434.181-23.872-5.817-24.196-13.904-28.804-46.348-33.413-67.204C11.153 34.761-10.738 0 6.545 0h42.63z"/>
    <path id="path9_fill" fill-rule="evenodd" d="M0 42L15.646 1.134A1.752 1.752 0 0 1 17.278 0h24.166c1.074 0 1.825 1.08 1.465 2.107L26.27 49.638a4.93 4.93 0 0 1-3.964 3.273L0 56V42z"/>
    <path id="path10_fill" fill-rule="evenodd" d="M2.279 10.577S10.418 1.44 18.557.297c8.14-1.142 17.44 1.142 11.627 4.57C24.371 8.292 27.86 17.43 10.418 22c0 0-16.278-4.569-8.14-11.423z"/>
    <path id="path11_fill" fill-rule="evenodd" d="M2.206 15.46c.001-.263 16.183-32.235 23.119-3.454 3.554 14.75 4.522 41.961 3.117 56.69-.345 3.614 3.197 6.356 6.629 5.134l11.157-3.968C52.94 67.474 60 72.43 60 79.528a7.172 7.172 0 0 1-3.262 6.018c-9.338 6.079-25.826 18.143-37.193 16.256-13.87-2.303-24.273-5.756-17.338-27.63 6.554-20.671-.02-54.356 0-58.713z"/>
    <path id="path12_fill" fill-rule="evenodd" d="M2.107 0h19.786a2.096 2.096 0 0 1 2.1 2.25l-2.787 35.916C21.083 39.766 19.738 41 18.12 41H6.81a3.086 3.086 0 0 1-3.08-2.755L.012 2.302C-.117 1.07.86 0 2.107 0z"/>
    <path id="path13_fill" fill-rule="evenodd" d="M10 .074c2.445-1.157 8.028 11.57 5.237 19.67 0 0 2.193 7.125-4.014 9.256 0 0-9.779-10.413-11.001-13.885C-1 11.645 2.926 8.263 9.519 8.218"/>
    <path id="path14_fill" fill-rule="evenodd" d="M56.538 12.33s5.654 50.893-22.615 52.589C5.653 66.616 0 41.169 0 37.776 0 34.384 0-4.633 18.846.457 37.692 5.545 45.231-6.33 56.54 12.331z"/>
    <path id="path15_fill" fill-rule="evenodd" d="M19.659 0s-2.299 22.885 2.298 26.318c4.597 3.433 0 2.86 0 2.86l-13.4 1.756C4.008 31.53-.03 27.998 0 23.431.053 14.964.66 2.897 3.57 0h16.09z"/>
    <path id="path16_fill" fill-rule="evenodd" d="M48.8 60.677c-.13-3.52 3.06-6.245 6.52-5.518 6.286 1.32 12.187 1.65 24.922-1.733 17.403-4.624 20.42-2.178 20.651 3.535.232 5.713-6.026 55.458-5.569 56.577.361.885 5.232-2.523 12.419-6.846a191.217 191.217 0 0 1 6.144-3.558c10.442-5.78-2.32-25.432 9.282-35.836s8.121-20.808 3.48-33.524c-4.64-12.716-9.281-10.404-23.203-23.12C89.524-2.062 75.601-2.062 65.16 3.718c-10.442 5.78-17.403 20.808-25.524 20.808-8.122 0-23.204 8.092-17.403 38.148 5.8 30.056-3.48 31.212-12.762 36.992-9.282 5.78-15.083 39.304-1.16 47.396 13.922 8.092 18.563-11.56 33.645-15.028 15.082-3.468 15.082-31.212 17.403-26.588 2.32 4.624 6.688.008 6.688.008s-12.42-3.476-15.356-10.412c-2.934-6.936-5.503-17.756-2.934-25.432.955-2.856 1.147-6.103 1.043-8.933z"/>
    <path id="path17_fill" fill-rule="evenodd" d="M0 1.078c14.958-4.693 56.379 7.038 70.186 14.076 13.807 7.039 36.818 9.385 41.421 9.385 4.602 0 1.15 17.596 1.15 17.596L65.583 48 0 31.577v-30.5z"/>
  </defs>
</svg>
