<svg xmlns="http://www.w3.org/2000/svg" xmlns:xlink="http://www.w3.org/1999/xlink" viewBox="0 0 562 343">
  <use fill="#F0EDED" transform="translate(0 96)" xlink:href="#path0_fill"/>
  <use fill="#00A8FF" transform="translate(433.678 38.22)" xlink:href="#path1_fill"/>
  <use fill="#1A285C" transform="translate(471.698 48.585)" xlink:href="#path2_stroke"/>
  <use fill="#00A8FF" transform="translate(32.087 140.13)" xlink:href="#path3_fill"/>
  <use fill="#00A8FF" transform="translate(32.075 200.542)" xlink:href="#path4_fill"/>
  <use fill="#1A285C" transform="translate(30.006 198.474)" xlink:href="#path5_stroke"/>
  <use fill="#1A285C" transform="translate(76.953 157.118)" xlink:href="#path6_fill"/>
  <use fill="#1A285C" transform="translate(313.623 159.673)" xlink:href="#path7_stroke"/>
  <use fill="#FFF" transform="translate(212.186 206.399)" xlink:href="#path8_fill"/>
  <g transform="translate(-514 506)">
    <mask id="a">
      <use fill="#FFF" transform="translate(726.096 -300.096)" xlink:href="#path9_fill"/>
    </mask>
    <g mask="url(#a)">
      <use fill="#FFF" transform="translate(370.965 -454.549)" xlink:href="#path10_fill"/>
    </g>
  </g>
  <g transform="translate(-514 506)">
    <mask id="b">
      <use fill="#FFF" transform="translate(726.096 -300.096)" xlink:href="#path11_fill"/>
    </mask>
    <g mask="url(#b)">
      <use fill="#FFF" transform="translate(721.062 -303.582)" xlink:href="#path12_fill"/>
    </g>
  </g>
  <g transform="translate(-514 506)">
    <mask id="c">
      <use fill="#FFF" transform="translate(726.096 -300.096)" xlink:href="#path11_fill"/>
    </mask>
    <g mask="url(#c)">
      <use fill="#FFF" transform="translate(722.505 -303.5)" xlink:href="#path13_fill"/>
    </g>
  </g>
  <g transform="translate(-514 506)">
    <mask id="d">
      <use fill="#FFF" transform="translate(726.096 -300.096)" xlink:href="#path11_fill"/>
    </mask>
    <g mask="url(#d)">
      <use fill="#FFF" transform="translate(725.477 -301.581)" xlink:href="#path14_fill"/>
    </g>
  </g>
  <g transform="translate(-514 506)">
    <mask id="e">
      <use fill="#FFF" transform="translate(726.096 -300.096)" xlink:href="#path15_fill"/>
    </mask>
    <g mask="url(#e)">
      <use fill="#FFF" transform="translate(715.145 -308.247)" xlink:href="#path16_fill"/>
    </g>
  </g>
  <use fill="#00A8FF" transform="translate(334)" xlink:href="#path17_fill"/>
  <g transform="translate(-514 506)">
    <mask id="f">
      <use fill="#FFF" transform="translate(848.007 -490.844)" xlink:href="#path18_fill"/>
    </mask>
    <g mask="url(#f)">
      <use fill="#1A285C" transform="translate(848.007 -490.844)" xlink:href="#path19_fill"/>
    </g>
  </g>
  <use fill="#00A8FF" transform="translate(334.007 31.233)" xlink:href="#path20_fill"/>
  <use fill="#1A285C" transform="translate(336.975 33.162)" xlink:href="#path21_stroke"/>
  <defs>
    <path id="path0_fill" fill-rule="evenodd" d="M268.848 18.469c67.545-15.234 95.285-25.85 134.399-12.12 39.113 13.73 115.918 25.04 138.53 28.181 22.612 3.142 30.993 41.24 0 47.797-30.993 6.558-20.002 47.915 0 51.168 20.002 3.254 39.293 68.94-41.742 73.585-81.035 4.646-216.244 4.68-312.439 12.903-96.194 8.223-106.201 12.902-144.95 0-38.749-12.902-87.733-78.829 38.749-108.243C207.877 82.327 277.16 55.835 256.002 50.295c-21.159-5.54-54.7-16.592 12.846-31.826z"/>
    <path id="path1_fill" fill-rule="evenodd" d="M50.131 66.272c-14.91 1.64-8.68 4.996-32.092-.365-9.775-2.238-1.789-21.851 3.359-33.278 3.663-8.132 14.76-16.575 27.648-16.322 4.625.092 8.756 3.7 9.998 6.16 3.727 7.376 5.998 42.166-8.913 43.805zM71.462 9.654C69.516 5.803 63.048.151 55.804.009 35.618-.39 18.238 12.834 12.5 25.573 4.436 43.47-8.073 74.19 7.238 77.697c36.67 8.396 26.91 3.138 50.266.57C80.859 75.7 77.3 21.21 71.462 9.655z"/>
    <path id="path2_stroke" d="M4.208 1.502c10.864-1.55 17.189-1.264 21.047.602 3.786 1.83 5.294 5.24 6.321 10.374l.98-.196c-1.04-5.204-2.635-9.032-6.866-11.079-4.159-2.01-10.764-2.241-21.623-.69l.141.99zm27.368 10.976c1.02 5.094 1.027 16.922-.007 28.419-.516 5.74-1.287 11.362-2.318 16.01-1.036 4.675-2.31 8.241-3.77 9.944l.759.651c1.642-1.915 2.954-5.715 3.987-10.378 1.039-4.689 1.82-10.375 2.338-16.138 1.035-11.506 1.042-23.458-.008-28.704l-.98.196zm-6.095 54.373c-1.473 1.718-3.775 3.037-6.455 4.042-2.683 1.006-5.672 1.673-8.502 2.123a75.777 75.777 0 0 1-10.308.896l-.162.002H0v1h.06c.037 0 .095 0 .168-.002a72.338 72.338 0 0 0 2.969-.112 77.233 77.233 0 0 0 7.484-.797c2.86-.455 5.947-1.145 8.696-2.174 2.75-1.03 5.232-2.425 6.863-4.327l-.76-.65z"/>
    <path id="path3_fill" fill-rule="evenodd" d="M2.565 122.747L240.77 4.633a44.51 44.51 0 0 1 34.469-2.137l136.559 47.772c4.198 1.47 4.558 7.266.573 9.241L173.076 178.164a39.315 39.315 0 0 1-30.442 1.887L3.091 131.234c-3.856-1.349-4.187-6.672-.526-8.487z"/>
    <path id="path4_fill" fill-rule="evenodd" d="M0 72.373v7.803C0 85.9 3.553 91.009 8.888 93.988c.232.13.479.236.731.323l129.835 44.921c.118.04.236.077.357.109 13.849 3.717 29.027 2.69 42.115-3.878L404.495 23.781a18.68 18.68 0 0 0 10.303-16.695V0L171.966 120.925a34.806 34.806 0 0 1-26.104 1.895L0 72.373z"/>
    <path id="path5_stroke" d="M8.955 93.988l.243-.437-.243.437zm.735.323l.163-.473-.163.473zm130.806 44.921l-.162.473.002.001.16-.474zm.36.109l.129-.484h-.001l-.128.484zm42.43-3.878l-.223-.447.223.447zM407.521 23.781l.223.447-.223-.447zM-.5 72.373v7.803h1v-7.803h-1zm0 7.803c0 5.945 3.715 11.203 9.213 14.249l.484-.875C3.943 90.64.5 85.68.5 80.176h-1zm9.211 14.248c.257.143.546.267.817.36l.324-.946a3.824 3.824 0 0 1-.654-.287l-.487.873zm.817.36l130.806 44.921.325-.946L9.853 93.839l-.325.945zm130.808 44.922c.127.042.263.084.392.118l.256-.967a4.898 4.898 0 0 1-.327-.099l-.321.948zm.392.118c14.034 3.732 29.504 2.689 42.781-3.913l-.446-.895c-13.093 6.532-28.204 7.545-42.078 3.841l-.257.967zm42.781-3.913L407.744 24.228l-.446-.895-224.235 111.683.446.895zM407.744 24.228c6.532-3.254 10.657-9.886 10.657-17.142h-1c0 6.874-3.908 13.161-10.103 16.247l.446.895zm10.657-17.142V0h-1v7.086h1z"/>
    <path id="path6_fill" fill-rule="evenodd" d="M1.228 96.926L198.208 0 334.75 46.525l-202.227 99.772L1.481 100.978c-1.848-.639-2.006-3.189-.253-4.052z"/>
    <path id="path7_stroke" d="M-.164.472l76.03 26.365.327-.945L.163-.472l-.327.944z"/>
    <path id="path8_fill" fill-rule="evenodd" d="M20.052 17.59c.1-.062.16-.139.164-.215.004-.077-.047-.147-.142-.194L9.376 11.866a.726.726 0 0 0-.363-.057.842.842 0 0 0-.372.111l-2.274 1.383c-.209.129-.22.31-.022.409 1.291.64 5.74 2.852 7.488 3.72.19.094.292.232.284.386-.01.152-.126.307-.328.43L3.18 24.706c-.418.255-1.077.302-1.47.106l-1.427-.709c-.394-.195-.374-.56.045-.814l7.957-4.843c.209-.128.218-.31.022-.407-1.292-.643-5.741-2.853-7.49-3.721-.394-.196-.374-.562.045-.816L8.439 8.89c.419-.255 1.078-.303 1.472-.108l15.69 7.797c.395.195.375.56-.044.816L8.887 27.538c-.42.255-1.077.303-1.471.108-.437-.216-.991-.493-1.427-.71-.189-.094-.29-.232-.283-.385.01-.152.126-.307.328-.43l14.018-8.532zm9.294 4.199a.72.72 0 0 0-.363-.058.878.878 0 0 0-.372.11l-11.366 6.92c-.1.06-.16.138-.164.214-.004.077.047.145.142.192l2.14 1.064c.196.098.526.074.735-.053l7.957-4.843c.2-.122.468-.203.744-.224.276-.018.537.023.726.117l9.987 4.961c.393.195.373.561-.045.816l-1.516.922c-.42.254-1.077.302-1.471.106-1.748-.868-6.197-3.079-7.49-3.72-.196-.098-.526-.074-.735.053-1.371.836-6.099 3.713-7.956 4.843-.42.255-1.077.302-1.471.106-1.612-.8-5.521-2.741-7.133-3.543-.394-.195-.374-.56.045-.815L28.41 18.81c.42-.254 1.078-.303 1.471-.108L45.573 26.5c.394.196.375.561-.044.816l-1.516.923c-.2.122-.47.202-.744.222-.277.019-.538-.021-.727-.117-2.572-1.276-11.318-5.622-13.196-6.554zm9.117-5.943c-.1.062-.16.138-.164.215-.004.077.047.147.14.193l10.7 5.316a.725.725 0 0 0 .363.056.843.843 0 0 0 .372-.11l2.274-1.384c.209-.127.22-.31.022-.408l-7.489-3.72c-.19-.094-.291-.233-.283-.386.008-.153.126-.307.328-.43l10.608-6.457c.419-.254 1.077-.301 1.47-.106.437.216.992.492 1.427.71.394.194.375.56-.044.814L50.23 14.99c-.209.128-.22.31-.022.408 1.291.642 5.741 2.853 7.49 3.72.394.197.373.561-.045.817-1.713 1.041-5.865 3.57-7.578 4.611-.418.255-1.077.303-1.471.107l-15.69-7.795c-.395-.196-.375-.562.044-.816l16.67-10.146c.419-.256 1.077-.303 1.471-.107l1.427.708c.189.094.29.233.282.387-.008.152-.126.306-.327.43-2.733 1.663-12.024 7.318-14.018 8.53zm-9.294-4.198a.856.856 0 0 0 .734-.054c1.81-1.1 9.558-5.817 11.367-6.917.1-.063.16-.139.163-.216.005-.076-.046-.145-.141-.193l-2.14-1.063c-.197-.098-.526-.073-.735.054-1.373.834-6.1 3.712-7.957 4.842-.2.122-.47.202-.744.222-.277.02-.537-.02-.726-.115-2.05-1.018-7.937-3.943-9.987-4.96-.394-.197-.373-.562.045-.816l1.516-.923c.418-.255 1.077-.302 1.471-.106 1.747.869 6.197 3.078 7.49 3.72.196.097.526.075.735-.053 1.371-.836 6.099-3.712 7.957-4.843.417-.255 1.076-.302 1.47-.106l7.133 3.542c.394.197.373.56-.045.816l-16.67 10.147c-.42.255-1.078.303-1.472.106L12.942 6.937c-.394-.196-.375-.562.044-.816l1.516-.922c.2-.123.468-.203.744-.223.277-.02.537.021.727.116l13.196 6.556z"/>
    <path id="path9_fill" fill-rule="evenodd" d="M38.242.226c.244-.149.571-.226.879-.226.22 0 .428.04.592.12l7.137 3.527c.394.196.374.558-.045.812-2.959 1.794-13.72 8.31-16.681 10.103-.418.254-1.078.302-1.472.107-2.787-1.378-12.916-6.384-15.702-7.763-.394-.194-.374-.558.045-.812.463-.28 1.054-.637 1.516-.918.2-.123.47-.2.746-.221.275-.02.536.021.726.116 2.574 1.27 11.325 5.597 13.204 6.526a.726.726 0 0 0 .363.058.873.873 0 0 0 .373-.11c1.81-1.098 9.563-5.794 11.375-6.889.1-.062.158-.138.163-.214.004-.076-.046-.145-.142-.193l-2.141-1.057c-.197-.099-.526-.075-.735.053-1.375.831-6.104 3.696-7.962 4.82-.202.122-.47.202-.745.222-.278.02-.539-.02-.727-.115-2.052-1.013-7.942-3.925-9.993-4.939-.394-.194-.373-.559.045-.812l1.517-.918c.418-.254 1.077-.302 1.471-.106 1.75.865 6.202 3.064 7.494 3.704.198.096.527.074.736-.053L38.242.226zm11.42 5.645c.243-.149.572-.227.88-.227.218 0 .427.04.591.12.436.216.99.492 1.427.707.19.093.291.231.282.384-.007.152-.125.306-.327.428l-14.028 8.495c-.1.06-.16.137-.162.214-.005.076.045.145.14.191 1.705.842 9.002 4.45 10.705 5.294a.732.732 0 0 0 .365.056.845.845 0 0 0 .371-.11c.584-.352 1.694-1.025 2.276-1.378.21-.127.22-.308.022-.407l-7.494-3.704c-.19-.093-.29-.231-.282-.384.008-.151.126-.305.327-.428L55.37 8.693c.418-.253 1.077-.3 1.472-.106.435.217.99.49 1.427.707.393.193.375.557-.045.81-1.858 1.127-6.588 3.99-7.962 4.823-.209.126-.219.307-.022.405l7.495 3.705c.394.195.373.559-.045.812l-7.583 4.592c-.418.253-1.078.3-1.472.106l-15.702-7.761c-.393-.195-.375-.56.045-.813L49.66 5.871zM8.444 8.85c.245-.15.573-.228.882-.228.218 0 .426.04.59.12l15.702 7.762c.393.195.374.56-.044.813-2.962 1.792-13.723 8.31-16.683 10.101-.418.255-1.077.302-1.472.107l-1.427-.706c-.189-.093-.29-.23-.283-.383.01-.152.127-.306.328-.429l14.028-8.494c.1-.062.16-.137.164-.214.004-.077-.047-.146-.142-.193-1.705-.842-9.002-4.448-10.706-5.292a.725.725 0 0 0-.364-.056.84.84 0 0 0-.372.11l-2.274 1.377c-.21.127-.22.31-.023.406l7.494 3.705c.19.093.29.232.283.384-.009.152-.127.306-.327.428-2.18 1.32-8.439 5.108-10.616 6.429-.419.254-1.078.3-1.472.105-.436-.214-.992-.49-1.428-.705-.394-.194-.374-.558.045-.812 1.859-1.126 6.588-3.99 7.962-4.82.209-.129.22-.31.021-.408L.818 14.254c-.395-.195-.374-.558.044-.812l7.583-4.591zm19.984 9.878a1.75 1.75 0 0 1 .882-.226c.219 0 .427.039.59.12 2.787 1.376 12.915 6.384 15.702 7.76.394.196.374.56-.045.813l-1.516.92c-.201.12-.47.2-.745.22-.276.02-.538-.02-.727-.115l-13.204-6.528a.742.742 0 0 0-.363-.057.86.86 0 0 0-.373.111l-11.373 6.888c-.1.062-.16.137-.164.214-.005.076.047.144.142.192l2.14 1.059c.197.098.526.073.736-.053l7.961-4.822c.202-.122.47-.202.747-.223.276-.018.536.023.726.117l9.992 4.939c.394.195.374.558-.045.812l-1.516.92c-.42.252-1.078.299-1.472.104-1.75-.864-6.202-3.065-7.494-3.705-.197-.095-.527-.073-.736.054-1.373.833-6.103 3.697-7.962 4.823-.419.253-1.078.3-1.473.106-1.612-.798-5.524-2.731-7.137-3.53-.393-.194-.373-.556.046-.811 2.96-1.791 13.721-8.31 16.681-10.102z"/>
    <path id="path10_fill" fill-rule="evenodd" d="M0 3131.64l2052.72-148.36L2216.38 0 163.662 148.36 0 3131.64z"/>
    <path id="path11_fill" fill-rule="evenodd" d="M38.242.226c.243-.148.57-.226.879-.226.22 0 .428.04.592.12l7.137 3.527c.394.196.374.558-.045.812-2.959 1.794-13.72 8.31-16.681 10.103-.418.254-1.078.302-1.472.107-2.787-1.378-12.916-6.384-15.702-7.763-.394-.194-.374-.558.045-.812.463-.28 1.054-.637 1.516-.918.2-.123.47-.2.746-.221.275-.02.536.021.726.116 2.574 1.27 11.325 5.597 13.204 6.526a.726.726 0 0 0 .363.058.873.873 0 0 0 .373-.11c1.81-1.098 9.563-5.794 11.375-6.889.1-.062.158-.138.163-.214.004-.076-.046-.145-.142-.193l-2.141-1.057c-.197-.099-.526-.075-.735.053-1.375.831-6.104 3.696-7.962 4.82-.202.122-.47.202-.745.222-.278.02-.539-.02-.727-.115-2.052-1.013-7.942-3.925-9.993-4.939-.394-.194-.373-.559.045-.812l1.517-.918c.418-.254 1.077-.302 1.471-.106 1.75.865 6.202 3.064 7.494 3.704.198.096.527.074.736-.053L38.242.226zm11.42 5.645c.243-.149.57-.226.879-.226.22 0 .428.038.592.12l1.427.706c.19.093.291.231.282.384-.007.152-.125.306-.327.428l-14.028 8.495c-.1.06-.16.137-.162.214-.005.076.045.145.14.191 1.705.842 9.002 4.45 10.705 5.294a.732.732 0 0 0 .365.056.845.845 0 0 0 .371-.11c.584-.352 1.694-1.025 2.276-1.378.21-.127.22-.308.022-.407l-7.494-3.704c-.19-.093-.29-.231-.282-.384.008-.151.126-.305.327-.428L55.37 8.693c.418-.253 1.077-.3 1.472-.106.435.217.99.49 1.427.707.393.193.375.557-.045.81-1.858 1.127-6.588 3.99-7.962 4.823-.209.126-.219.307-.022.405l7.495 3.705c.394.195.373.559-.045.812l-7.583 4.592c-.418.253-1.078.3-1.472.106l-15.702-7.761c-.393-.195-.375-.56.045-.813L49.66 5.871zM8.444 8.85c.245-.148.573-.228.882-.228.217 0 .427.04.59.12l15.702 7.762c.393.195.374.56-.044.813-2.962 1.792-13.723 8.31-16.683 10.101-.418.255-1.077.302-1.472.107l-1.427-.706c-.189-.093-.29-.23-.283-.383.01-.152.127-.306.328-.429l14.028-8.494c.1-.062.16-.137.164-.214.004-.077-.047-.146-.142-.193-1.705-.842-9.002-4.448-10.706-5.292a.725.725 0 0 0-.364-.056.84.84 0 0 0-.372.11l-2.274 1.377c-.21.127-.22.31-.023.406l7.494 3.705c.19.093.29.232.283.384-.009.152-.127.306-.327.428-2.18 1.32-8.439 5.108-10.616 6.429-.419.254-1.078.3-1.472.105-.436-.214-.992-.49-1.428-.705-.394-.194-.374-.558.045-.812 1.859-1.126 6.588-3.99 7.962-4.82.209-.129.22-.31.021-.408L.818 14.254c-.395-.195-.374-.558.044-.812l7.583-4.591zm19.984 9.878a1.75 1.75 0 0 1 .882-.226c.219 0 .427.039.59.12 2.787 1.376 12.915 6.384 15.702 7.76.394.196.374.56-.045.813l-1.516.92c-.201.12-.47.2-.745.22-.276.02-.538-.02-.727-.115l-13.204-6.528a.742.742 0 0 0-.363-.057.86.86 0 0 0-.373.111l-11.373 6.888c-.1.062-.16.137-.164.214-.005.076.047.144.142.192l2.14 1.059c.197.098.526.073.736-.053l7.961-4.822c.202-.122.47-.202.747-.223.276-.018.536.023.726.117l9.992 4.939c.394.195.374.558-.045.812l-1.516.92c-.42.252-1.078.299-1.472.104-1.75-.864-6.202-3.065-7.494-3.705-.197-.095-.527-.073-.736.054-1.373.833-6.103 3.697-7.962 4.823-.419.253-1.078.3-1.473.106-1.612-.798-5.524-2.731-7.137-3.53-.393-.194-.373-.556.046-.811 2.96-1.791 13.721-8.31 16.681-10.102z"/>
    <path id="path12_fill" fill-rule="evenodd" d="M0 41.224l67-4.842L68.994 0l-67 4.842L0 41.224z"/>
    <path id="path13_fill" fill-rule="evenodd" d="M1.951 4.66L66.428 0l-1.952 35.57L0 40.231 1.951 4.66z"/>
    <path id="path14_fill" fill-rule="evenodd" d="M0 36.375l58.445-4.224L60.21 0 1.764 4.225 0 36.375z"/>
    <path id="path15_fill" fill-rule="evenodd" d="M38.982.005A2.11 2.11 0 0 1 39.12 0c.219 0 .428.04.592.12l7.136 3.527c.395.196.375.558-.044.812-2.96 1.794-13.721 8.31-16.681 10.103-.419.254-1.078.302-1.472.107-2.787-1.378-12.916-6.384-15.703-7.763-.393-.194-.373-.558.046-.812.463-.28 1.054-.637 1.515-.918.201-.123.47-.2.747-.221.275-.02.536.021.726.116 2.573 1.27 11.325 5.597 13.204 6.526a.726.726 0 0 0 .363.058.873.873 0 0 0 .373-.11c1.81-1.098 9.563-5.794 11.374-6.889.1-.062.159-.138.164-.214.004-.076-.047-.145-.142-.193l-2.142-1.057c-.196-.099-.525-.075-.734.053-1.375.831-6.104 3.696-7.962 4.82-.202.122-.47.202-.746.222-.277.02-.538-.02-.726-.115-2.052-1.013-7.942-3.925-9.993-4.939-.394-.194-.374-.559.045-.812l1.517-.918c.418-.254 1.076-.302 1.47-.106 1.75.865 6.203 3.064 7.495 3.704.198.096.527.074.736-.053 1.373-.833 6.104-3.696 7.963-4.822.205-.125.47-.2.732-.22h.008zM49.66 5.871c.244-.149.571-.226.88-.226.22 0 .428.038.592.12l1.427.706c.19.093.29.231.282.384-.008.152-.126.306-.328.428l-14.027 8.495c-.1.06-.16.137-.163.214-.005.076.046.145.141.191 1.705.842 9.001 4.45 10.705 5.294a.732.732 0 0 0 .364.056.845.845 0 0 0 .372-.11c.584-.352 1.694-1.025 2.275-1.378.21-.127.22-.308.023-.407l-7.494-3.704c-.19-.093-.29-.231-.283-.384.009-.151.127-.305.328-.428 2.178-1.319 8.438-5.109 10.615-6.429.419-.253 1.078-.3 1.472-.106.436.217.99.49 1.428.707.393.193.374.557-.045.81-1.858 1.127-6.588 3.99-7.962 4.823-.209.126-.22.307-.023.405l7.495 3.705c.395.195.374.559-.044.812l-7.583 4.592c-.418.253-1.079.3-1.472.106l-15.702-7.761c-.393-.195-.375-.56.044-.813L49.661 5.871zM8.445 8.85c.245-.148.573-.228.882-.228.217 0 .427.04.59.12l15.702 7.762c.393.195.373.56-.045.813-2.961 1.792-13.722 8.31-16.682 10.101-.418.255-1.078.302-1.472.107l-1.427-.706c-.189-.093-.29-.23-.283-.383.01-.152.126-.306.328-.429l14.028-8.494c.1-.062.159-.137.163-.214.004-.077-.046-.146-.142-.193L9.381 11.815a.725.725 0 0 0-.363-.056.84.84 0 0 0-.373.11l-2.274 1.377c-.21.127-.22.31-.022.406l7.494 3.705c.189.093.29.232.282.384-.008.152-.126.306-.327.428-2.179 1.32-8.438 5.108-10.616 6.429-.418.254-1.077.3-1.472.105l-1.427-.705c-.197-.097-.29-.236-.283-.382v-.003c.01-.146.12-.3.327-.427 1.86-1.126 6.589-3.99 7.962-4.82.21-.129.22-.31.022-.408-1.293-.638-5.745-2.839-7.493-3.704-.194-.095-.288-.232-.284-.377l.002-.015c.01-.144.12-.295.326-.42l7.583-4.591zm19.984 9.878c.246-.15.573-.226.882-.226.218 0 .426.039.59.12l15.701 7.76c.395.196.375.56-.044.813l-1.517.92c-.2.12-.469.2-.744.22-.276.02-.538-.02-.728-.115l-13.203-6.528a.741.741 0 0 0-.363-.057.859.859 0 0 0-.373.111l-11.374 6.888c-.1.062-.16.137-.163.214-.005.076.046.144.142.192l2.14 1.059c.197.098.526.073.736-.053l7.961-4.822a1.73 1.73 0 0 1 .746-.223c.277-.018.536.023.727.117l9.992 4.939c.394.195.373.558-.045.812-.464.281-1.054.638-1.516.92-.42.252-1.078.299-1.472.104-1.75-.864-6.202-3.065-7.494-3.705-.197-.095-.527-.073-.736.054l-7.962 4.823c-.42.253-1.079.3-1.473.106-1.613-.798-5.524-2.731-7.137-3.53-.393-.194-.374-.556.046-.811 2.96-1.791 13.72-8.31 16.681-10.102z"/>
    <path id="path16_fill" fill-rule="evenodd" d="M0 49.724l78.732-5.69L81.147 0 2.416 5.692 0 49.724z"/>
    <path id="path17_fill" fill-rule="evenodd" d="M144 29c0 16.016-32.236 29-72 29S0 45.016 0 29 32.236 0 72 0s72 12.984 72 29z"/>
    <path id="path18_fill" fill-rule="evenodd" d="M110.448 0l33.618 13.385v.098c-.133 15.794-32.333 28.582-72.034 28.582C32.351 42.065.162 29.289 0 13.505v-.24C.05 8.474 3.047 3.961 8.308 0h102.14z"/>
    <path id="path19_fill" fill-rule="evenodd" d="M144.066 28.681c0 15.84-32.251 28.68-72.033 28.68C32.25 57.361 0 44.521 0 28.681S32.25 0 72.033 0c39.782 0 72.033 12.84 72.033 28.681z"/>
    <path id="path20_fill" fill-rule="evenodd" d="M71.998 28.931C32.235 28.931 0 15.979 0 0v80.307c0 10.705 4.292 20.372 10.9 24.551l.206.13c38.919 24.605 82.866 24.605 121.785 0 6.732-4.257 11.106-14.107 11.106-25.013V0c0 15.978-32.235 28.931-71.999 28.931z"/>
    <path id="path21_stroke" d="M132.891 104.987l-.268-.423.268.423zm-121.785 0l.267-.423-.267.423zm-.206-.13l-.267.422.267-.422zM143.497 0v79.975h1V0h-1zm0 79.975c0 10.805-4.337 20.457-10.874 24.589l.535.846c6.928-4.38 11.339-14.428 11.339-25.435h-1zm-10.874 24.589c-38.755 24.503-82.494 24.503-121.25 0l-.534.846c39.082 24.709 83.237 24.709 122.319 0l-.535-.846zm-121.25 0l-.206-.13-.534.845.206.131.534-.846zm-.206-.13C4.755 100.38.5 90.911.5 80.308h-1c0 10.806 4.33 20.67 11.133 24.971l.534-.845zM.5 80.308V15.615h-1v64.694h1z"/>
  </defs>
</svg>
